<svg id="Capa_1" data-name="Capa 1" xmlns="http://www.w3.org/2000/svg" viewBox="0 0 293.43 147.25">
  <defs>
    <style>
      .cls-1, .cls-2 {
        fill: #f9f9f9;
      }

      .cls-2 {
        fill-rule: evenodd;
      }
    </style>
  </defs>
  <title>logo-kia-blanco</title>
  <g>
    <path class="cls-1" d="M150.41,4.81c-81,0-146.72,33-146.72,73.62s65.69,73.63,146.72,73.63,146.71-33,146.71-73.63S231.44,4.81,150.41,4.81Zm0,138C79,142.79,20.88,113.92,20.88,78.44S79,14.09,150.41,14.09,279.94,43,279.94,78.44,221.83,142.79,150.41,142.79Z" transform="translate(-3.7 -4.81)"/>
    <path class="cls-2" d="M136.14,45.42h2.37A1.46,1.46,0,0,1,140,46.9V114.2a1.56,1.56,0,0,0,1.58,1.58h17.62a1.56,1.56,0,0,0,1.59-1.58V42.49a1.59,1.59,0,0,0-1.59-1.58h-23c-0.23,0-.23.22-0.23,0.39V45C135.92,45.2,135.92,45.42,136.14,45.42Z" transform="translate(-3.7 -4.81)"/>
    <path class="cls-2" d="M175.88,115.78h17.3a2.41,2.41,0,0,0,2.08-1.56L210,67.76a0.83,0.83,0,0,1,.72-0.65,0.86,0.86,0,0,1,.71.65l14.92,46.46a2.4,2.4,0,0,0,2.09,1.56h17.3a1.36,1.36,0,0,0,1.14-.55,1.65,1.65,0,0,0,.26-1.38L223.08,42a2,2,0,0,0-2.09-1H193.36a0.41,0.41,0,0,0-.39.39V45a0.42,0.42,0,0,0,.39.38h2a1.31,1.31,0,0,1,1.47,1.29,2.53,2.53,0,0,1-.17.85l-22.21,66.29a1.59,1.59,0,0,0,.27,1.37A1.39,1.39,0,0,0,175.88,115.78Z" transform="translate(-3.7 -4.81)"/>
    <path class="cls-2" d="M58.14,45.42a1.46,1.46,0,0,1,1.48,1.48V114.2a1.55,1.55,0,0,0,1.57,1.58H78.33a1.57,1.57,0,0,0,1.57-1.58V85.9a0.81,0.81,0,0,1,.78-1,1.28,1.28,0,0,1,1.08.72l0.07,0.1L102,114.06a3.77,3.77,0,0,0,2.75,1.72h20.34a1.5,1.5,0,0,0,1.07-2.46L100.41,76.88c-0.08-.11-0.11-0.18-0.16-0.26a1.16,1.16,0,0,1-.13-0.32,1,1,0,0,1,0-.24,2.27,2.27,0,0,1,.31-0.94l0,0,21.53-31.88a1.5,1.5,0,0,0,0-1.52,1.43,1.43,0,0,0-1.24-.76H101.39a3.82,3.82,0,0,0-2.77,1.72L81.83,66.37a1.49,1.49,0,0,1-1.13.82h0a0.74,0.74,0,0,1-.78-0.79V42.49a1.58,1.58,0,0,0-1.57-1.58H55.77a0.41,0.41,0,0,0-.39.39V45a0.41,0.41,0,0,0,.39.38h2.37Z" transform="translate(-3.7 -4.81)"/>
  </g>
</svg>
