<svg id="Capa_1" data-name="Capa 1" xmlns="http://www.w3.org/2000/svg" viewBox="0 0 290.92 136.42">
  <defs>
    <style>
      .cls-1 {
        fill: #f9f9f9;
        fill-rule: evenodd;
      }
    </style>
  </defs>
  <title>logo-hyundai</title>
  <g>
    <polygon class="cls-1" points="0 100.62 11.26 100.62 11.26 113 31.38 113 31.38 100.62 42.5 100.62 42.5 135.37 31.38 135.37 31.38 120.74 11.12 120.74 11.12 135.23 0 135.23 0 100.62 0 100.62"/>
    <polygon class="cls-1" points="43.77 100.62 54.74 100.62 66.28 113.98 77.67 100.62 88.51 100.62 71.77 121.86 71.77 135.37 60.65 135.37 60.65 120.88 43.77 100.62 43.77 100.62"/>
    <path class="cls-1" d="M96.38,103.27H107.5v26.87h17.87c2.81,0,4.64-2.81,4.64-5.77V103.27h11.11V131c0,4.36-4.92,6.89-7.74,6.89h-37V103.27h0Z" transform="translate(-6.46 -2.66)"/>
    <path class="cls-1" d="M143.52,103.27h37c4.36,0,7.88,2.67,7.88,8.09V138l-11.12.07V116.92c0-2.95-1-4.71-4.79-4.71H155.76V138.1H143.52V103.27h0Z" transform="translate(-6.46 -2.66)"/>
    <path class="cls-1" d="M191.78,103.27h32.36c6.47,0,11.47,5.2,11.47,9.22v16c-0.07,2.81-4,9.57-8.94,9.57h-34.9V103.27h0Zm11.33,27h17.08a4.2,4.2,0,0,0,4.36-4.08V116.07c0-2.46-2-3.93-4.62-3.93H203.11v18.15h0Z" transform="translate(-6.46 -2.66)"/>
    <path class="cls-1" d="M249.33,103.13H284V138H271.63v-9H250.32v9H237.79V115.37c-0.28-7.6,6.47-12.24,11.54-12.24h0Zm0.84,12.39v5.62h21.39v-8.87h-18a3.07,3.07,0,0,0-3.37,3.25h0Z" transform="translate(-6.46 -2.66)"/>
    <polygon class="cls-1" points="279.81 100.55 290.92 100.55 290.92 136.42 279.81 136.42 279.81 100.55 279.81 100.55"/>
    <path class="cls-1" d="M152.6,2.66c-46.13,0-83.52,18.46-83.52,41.23s37.4,41.24,83.52,41.24,83.52-18.46,83.52-41.24S198.73,2.66,152.6,2.66h0Zm-7.92,9.18c9.53-3.37,37.85,0,48.86,5.28,3.52,3.38-15.7,14.23-38.58,18.93-32.72,6.6-17.17-18.64-10.27-24.21h0ZM88.49,60.69c-7.19-5.13-21.28-19.8,2.05-35.06,12.32-7.19,19.22-8.81,27.73-10.56,4.11-.88,7,0.15,3.37,3.23-7.77,8.07-23.91,34.77-25.38,40.64-1.18,4-3.52,5-7.78,1.76h0Zm67.19,17c-13.79,1.46-44.45-3.08-45-7,0.59-9.54,48.71-25.39,57.37-16.58,3.67,6.9-3.37,23.18-12.32,23.62h0ZM225.81,50C222.29,58,210.4,67.15,185.47,73.31c-3.82.87-5.14-1.47-2.64-3.67,4.11-2.49,23.92-35.65,26.41-42.26,1.47-3.38,4.25-2.05,6-.73,7.92,5.13,13.94,13.5,10.56,23.33h0Z" transform="translate(-6.46 -2.66)"/>
  </g>
</svg>
