<?xml version="1.0" encoding="utf-8"?>
<!-- Generator: Adobe Illustrator 19.2.1, SVG Export Plug-In . SVG Version: 6.00 Build 0)  -->
<svg version="1.1" id="OBJECTS" xmlns="http://www.w3.org/2000/svg" xmlns:xlink="http://www.w3.org/1999/xlink" x="0px" y="0px"
	 viewBox="0 0 634 340.9" style="enable-background:new 0 0 634 340.9;" xml:space="preserve">
<style type="text/css">
	.st0{fill:#FFE33E;}
	.st1{fill:#EAEAEA;}
	.st2{enable-background:new    ;}
</style>
<polygon class="st0" points="37.7,273.1 0,207.9 37.7,142.6 113,142.6 150.7,207.9 113,273.1 "/>
<polygon class="st0" points="157.5,201.4 119.8,136.1 157.5,70.9 232.8,70.9 270.5,136.1 232.8,201.4 "/>
<polygon class="st0" points="279.4,270.4 241.7,205.1 279.4,139.8 354.7,139.8 392.4,205.1 354.7,270.4 "/>
<polygon class="st0" points="399.3,198.1 361.6,132.8 399.3,67.6 474.6,67.6 512.3,132.8 474.6,198.1 "/>
<polygon class="st0" points="521,265.6 483.3,200.3 521,135.1 596.3,135.1 634,200.3 596.3,265.6 "/>
<polygon class="st1" points="277.3,130.5 239.6,65.3 277.3,0 352.6,0 390.3,65.3 352.6,130.5 "/>
<polygon class="st1" points="401.6,338 363.9,272.7 401.6,207.4 477,207.4 514.6,272.7 477,338 "/>
<polygon class="st1" points="158.5,340.9 120.8,275.7 158.5,210.4 233.8,210.4 271.5,275.7 233.8,340.9 "/>
<title>g1</title>
<g>
	<polygon class="st1" points="68.1,134 46.7,96.9 68.1,59.8 110.9,59.8 132.3,96.9 110.9,134 	"/>
	<polygon class="st1" points="518.9,126 497.5,88.9 518.9,51.8 561.7,51.8 583.1,88.9 561.7,126 	"/>
	<polygon class="st1" points="588.1,79 575.8,57.7 588.1,36.3 612.8,36.3 625.1,57.7 612.8,79 	"/>
	<polygon class="st1" points="89.5,325 77.1,303.6 89.5,282.2 114.1,282.2 126.5,303.6 114.1,325 	"/>
	<g>
		<g>
			<g>
				<g class="st2">
					<path d="M54,232.2c0-1.2,0.9-2.1,2.2-2.1c0.6,0,1.2,0.2,1.5,0.6l-0.3,0.3c-0.3-0.3-0.8-0.5-1.2-0.5c-1,0-1.8,0.7-1.8,1.7
						c0,1,0.8,1.7,1.8,1.7c0.5,0,0.9-0.2,1.2-0.5l0.3,0.3c-0.4,0.4-0.9,0.6-1.5,0.6C54.9,234.4,54,233.5,54,232.2z"/>
					<path d="M58.6,229.9H59v4.5h-0.4V229.9z"/>
					<path d="M60.1,230.2c0-0.2,0.1-0.3,0.3-0.3s0.3,0.1,0.3,0.3c0,0.2-0.1,0.3-0.3,0.3C60.2,230.5,60.1,230.3,60.1,230.2z
						 M60.2,231.2h0.4v3.2h-0.4V231.2z"/>
					<path d="M64.6,232.9h-2.7c0,0.7,0.6,1.1,1.2,1.1c0.4,0,0.7-0.1,1-0.4l0.2,0.3c-0.3,0.3-0.7,0.5-1.2,0.5c-1,0-1.7-0.7-1.7-1.6
						s0.7-1.6,1.5-1.6s1.5,0.7,1.5,1.6C64.6,232.8,64.6,232.8,64.6,232.9z M61.9,232.6h2.2c-0.1-0.6-0.5-1.1-1.1-1.1
						C62.4,231.5,62,231.9,61.9,232.6z"/>
					<path d="M68.4,232.5v1.8h-0.4v-1.8c0-0.7-0.3-1-1-1c-0.7,0-1.1,0.4-1.1,1.1v1.7h-0.4v-3.2h0.4v0.6c0.2-0.4,0.7-0.6,1.2-0.6
						C67.8,231.1,68.4,231.6,68.4,232.5z"/>
					<path d="M71.2,234.1c-0.2,0.2-0.4,0.2-0.7,0.2c-0.6,0-0.9-0.3-0.9-0.9v-1.9H69v-0.4h0.6v-0.7H70v0.7h1v0.4h-1v1.9
						c0,0.4,0.2,0.6,0.5,0.6c0.2,0,0.3-0.1,0.5-0.2L71.2,234.1z"/>
					<path d="M78,230.1v4.2h-0.4V231l-1.7,2.8h-0.2l-1.7-2.8v3.4h-0.4v-4.2H74l1.8,3.1l1.8-3.1H78z"/>
					<path d="M82,232.9h-2.7c0,0.7,0.6,1.1,1.2,1.1c0.4,0,0.7-0.1,1-0.4l0.2,0.3c-0.3,0.3-0.7,0.5-1.2,0.5c-1,0-1.7-0.7-1.7-1.6
						s0.7-1.6,1.5-1.6s1.5,0.7,1.5,1.6C82.1,232.8,82,232.8,82,232.9z M79.4,232.6h2.2c-0.1-0.6-0.5-1.1-1.1-1.1
						C79.9,231.5,79.4,231.9,79.4,232.6z"/>
					<path d="M85.7,232.9H83c0,0.7,0.6,1.1,1.2,1.1c0.4,0,0.7-0.1,1-0.4l0.2,0.3c-0.3,0.3-0.7,0.5-1.2,0.5c-1,0-1.7-0.7-1.7-1.6
						s0.7-1.6,1.5-1.6s1.5,0.7,1.5,1.6C85.7,232.8,85.7,232.8,85.7,232.9z M83,232.6h2.2c-0.1-0.6-0.5-1.1-1.1-1.1
						C83.5,231.5,83.1,231.9,83,232.6z"/>
					<path d="M88.2,234.1c-0.2,0.2-0.4,0.2-0.7,0.2c-0.6,0-0.9-0.3-0.9-0.9v-1.9h-0.6v-0.4h0.6v-0.7h0.4v0.7h1v0.4h-1v1.9
						c0,0.4,0.2,0.6,0.5,0.6c0.2,0,0.3-0.1,0.5-0.2L88.2,234.1z"/>
					<path d="M88.9,230.2c0-0.2,0.1-0.3,0.3-0.3s0.3,0.1,0.3,0.3c0,0.2-0.1,0.3-0.3,0.3C89,230.5,88.9,230.3,88.9,230.2z M89,231.2
						h0.4v3.2H89V231.2z"/>
					<path d="M93.5,232.5v1.8h-0.4v-1.8c0-0.7-0.3-1-1-1c-0.7,0-1.1,0.4-1.1,1.1v1.7h-0.4v-3.2H91v0.6c0.2-0.4,0.7-0.6,1.2-0.6
						C93,231.1,93.5,231.6,93.5,232.5z"/>
					<path d="M97.6,231.2v2.8c0,1.1-0.5,1.6-1.6,1.6c-0.6,0-1.1-0.2-1.5-0.5l0.2-0.3c0.3,0.3,0.8,0.4,1.2,0.4c0.8,0,1.2-0.4,1.2-1.2
						v-0.4c-0.3,0.4-0.7,0.6-1.2,0.6c-0.9,0-1.6-0.6-1.6-1.5s0.7-1.5,1.6-1.5c0.5,0,1,0.2,1.3,0.6v-0.6H97.6z M97.2,232.7
						c0-0.7-0.5-1.2-1.2-1.2s-1.2,0.5-1.2,1.2c0,0.7,0.5,1.2,1.2,1.2S97.2,233.4,97.2,232.7z"/>
				</g>
				<g class="st2">
					<path d="M45.2,240.2c0-1.2,0.9-2.1,2.2-2.1c0.6,0,1.2,0.2,1.5,0.6l-0.3,0.3c-0.3-0.3-0.8-0.5-1.2-0.5c-1,0-1.8,0.7-1.8,1.7
						c0,1,0.8,1.7,1.8,1.7c0.5,0,0.9-0.2,1.2-0.5l0.3,0.3c-0.4,0.4-0.9,0.6-1.5,0.6C46.2,242.3,45.2,241.4,45.2,240.2z"/>
					<path d="M49.8,237.8h0.4v4.5h-0.4V237.8z"/>
					<path d="M51.3,238.1c0-0.2,0.1-0.3,0.3-0.3s0.3,0.1,0.3,0.3c0,0.2-0.1,0.3-0.3,0.3C51.5,238.4,51.3,238.3,51.3,238.1z
						 M51.4,239.1h0.4v3.2h-0.4V239.1z"/>
					<path d="M55.8,240.8h-2.7c0,0.7,0.6,1.1,1.2,1.1c0.4,0,0.7-0.1,1-0.4l0.2,0.3c-0.3,0.3-0.7,0.5-1.2,0.5c-1,0-1.7-0.7-1.7-1.6
						s0.7-1.6,1.5-1.6s1.5,0.7,1.5,1.6C55.8,240.7,55.8,240.8,55.8,240.8z M53.2,240.5h2.2c-0.1-0.6-0.5-1.1-1.1-1.1
						C53.7,239.5,53.2,239.9,53.2,240.5z"/>
					<path d="M59.6,240.5v1.8h-0.4v-1.8c0-0.7-0.3-1-1-1c-0.7,0-1.1,0.4-1.1,1.1v1.7h-0.4v-3.2h0.4v0.6c0.2-0.4,0.7-0.6,1.2-0.6
						C59.1,239.1,59.6,239.5,59.6,240.5z"/>
					<path d="M62.4,242.1c-0.2,0.2-0.4,0.2-0.7,0.2c-0.6,0-0.9-0.3-0.9-0.9v-1.9h-0.6v-0.4h0.6v-0.7h0.4v0.7h1v0.4h-1v1.9
						c0,0.4,0.2,0.6,0.5,0.6c0.2,0,0.3-0.1,0.5-0.2L62.4,242.1z"/>
					<path d="M67.8,242.3l-1-1.4c-0.1,0-0.2,0-0.3,0h-1.1v1.3h-0.4v-4.2h1.6c1.1,0,1.7,0.5,1.7,1.4c0,0.7-0.3,1.1-1,1.3l1,1.4H67.8z
						 M67.7,239.5c0-0.7-0.4-1.1-1.3-1.1h-1.1v2.1h1.1C67.3,240.6,67.7,240.2,67.7,239.5z"/>
					<path d="M71.9,240.8h-2.7c0,0.7,0.6,1.1,1.2,1.1c0.4,0,0.7-0.1,1-0.4l0.2,0.3c-0.3,0.3-0.7,0.5-1.2,0.5c-1,0-1.7-0.7-1.7-1.6
						s0.7-1.6,1.5-1.6s1.5,0.7,1.5,1.6C71.9,240.7,71.9,240.8,71.9,240.8z M69.3,240.5h2.2c-0.1-0.6-0.5-1.1-1.1-1.1
						C69.8,239.5,69.3,239.9,69.3,240.5z"/>
					<path d="M75.7,239.1v4.3h-0.4v-1.8c-0.3,0.4-0.7,0.6-1.2,0.6c-0.9,0-1.6-0.7-1.6-1.6c0-1,0.7-1.6,1.6-1.6c0.5,0,1,0.2,1.2,0.7
						v-0.6H75.7z M75.3,240.7c0-0.7-0.5-1.2-1.2-1.2c-0.7,0-1.2,0.5-1.2,1.2c0,0.7,0.5,1.2,1.2,1.2
						C74.7,241.9,75.3,241.4,75.3,240.7z"/>
					<path d="M79.7,239.1v3.2h-0.4v-0.6c-0.2,0.4-0.6,0.6-1.1,0.6c-0.8,0-1.3-0.5-1.3-1.4v-1.8h0.4v1.8c0,0.7,0.3,1,1,1
						c0.7,0,1.1-0.4,1.1-1.2v-1.7H79.7z"/>
					<path d="M80.8,238.1c0-0.2,0.1-0.3,0.3-0.3s0.3,0.1,0.3,0.3c0,0.2-0.1,0.3-0.3,0.3C81,238.4,80.8,238.3,80.8,238.1z
						 M80.9,239.1h0.4v3.2h-0.4V239.1z"/>
				</g>
				<g class="st2">
					<path d="M83.2,239.1v0.4c0,0-0.1,0-0.1,0c-0.7,0-1.1,0.4-1.1,1.2v1.6h-0.4v-3.2H82v0.6C82.2,239.3,82.6,239.1,83.2,239.1z"/>
				</g>
				<g class="st2">
					<path d="M86.5,240.8h-2.7c0,0.7,0.6,1.1,1.2,1.1c0.4,0,0.7-0.1,1-0.4l0.2,0.3c-0.3,0.3-0.7,0.5-1.2,0.5c-1,0-1.7-0.7-1.7-1.6
						s0.7-1.6,1.5-1.6s1.5,0.7,1.5,1.6C86.6,240.7,86.5,240.8,86.5,240.8z M83.9,240.5h2.2c-0.1-0.6-0.5-1.1-1.1-1.1
						C84.4,239.5,83.9,239.9,83.9,240.5z"/>
					<path d="M92.7,240.5v1.8h-0.4v-1.8c0-0.7-0.3-1-0.9-1c-0.7,0-1.1,0.4-1.1,1.1v1.7h-0.4v-1.8c0-0.7-0.3-1-0.9-1
						c-0.6,0-1.1,0.4-1.1,1.1v1.7h-0.4v-3.2h0.4v0.6c0.2-0.4,0.6-0.6,1.2-0.6c0.5,0,0.9,0.2,1.1,0.7c0.2-0.4,0.7-0.7,1.3-0.7
						C92.1,239.1,92.7,239.5,92.7,240.5z"/>
					<path d="M96.6,240.8h-2.7c0,0.7,0.6,1.1,1.2,1.1c0.4,0,0.7-0.1,1-0.4l0.2,0.3c-0.3,0.3-0.7,0.5-1.2,0.5c-1,0-1.7-0.7-1.7-1.6
						s0.7-1.6,1.5-1.6s1.5,0.7,1.5,1.6C96.6,240.7,96.6,240.8,96.6,240.8z M93.9,240.5h2.2c-0.1-0.6-0.5-1.1-1.1-1.1
						C94.4,239.5,94,239.9,93.9,240.5z"/>
					<path d="M100.4,240.5v1.8h-0.4v-1.8c0-0.7-0.3-1-1-1c-0.7,0-1.1,0.4-1.1,1.1v1.7h-0.4v-3.2h0.4v0.6c0.2-0.4,0.7-0.6,1.2-0.6
						C99.8,239.1,100.4,239.5,100.4,240.5z"/>
					<path d="M103.2,242.1c-0.2,0.2-0.4,0.2-0.7,0.2c-0.6,0-0.9-0.3-0.9-0.9v-1.9H101v-0.4h0.6v-0.7h0.4v0.7h1v0.4h-1v1.9
						c0,0.4,0.2,0.6,0.5,0.6c0.2,0,0.3-0.1,0.5-0.2L103.2,242.1z"/>
					<path d="M103.5,241.9l0.2-0.3c0.3,0.2,0.7,0.4,1.1,0.4c0.6,0,0.9-0.2,0.9-0.5c0-0.8-2.1-0.2-2.1-1.4c0-0.5,0.4-0.9,1.3-0.9
						c0.4,0,0.9,0.1,1.1,0.3l-0.2,0.3c-0.3-0.2-0.6-0.3-0.9-0.3c-0.6,0-0.8,0.2-0.8,0.5c0,0.9,2.1,0.2,2.1,1.4
						c0,0.5-0.5,0.9-1.3,0.9C104.3,242.3,103.8,242.2,103.5,241.9z"/>
				</g>
				<g class="st2">
					<path d="M67.1,249.1h-2.4l-0.5,1.1h-0.5l1.9-4.2h0.4l1.9,4.2h-0.5L67.1,249.1z M66.9,248.8l-1-2.3l-1,2.3H66.9z"/>
					<path d="M71.6,248.4v1.8h-0.4v-1.8c0-0.7-0.3-1-1-1c-0.7,0-1.1,0.4-1.1,1.1v1.7h-0.4v-3.2h0.4v0.6c0.2-0.4,0.7-0.6,1.2-0.6
						C71,247.1,71.6,247.5,71.6,248.4z"/>
					<path d="M75.1,248.3v2h-0.4v-0.5c-0.2,0.3-0.6,0.5-1.1,0.5c-0.7,0-1.2-0.4-1.2-0.9c0-0.5,0.3-0.9,1.2-0.9h1v-0.2
						c0-0.5-0.3-0.8-0.9-0.8c-0.4,0-0.8,0.1-1.1,0.4l-0.2-0.3c0.3-0.3,0.8-0.4,1.3-0.4C74.7,247.1,75.1,247.5,75.1,248.3z
						 M74.7,249.3v-0.5h-1c-0.6,0-0.8,0.2-0.8,0.6c0,0.4,0.3,0.6,0.8,0.6C74.2,249.9,74.5,249.7,74.7,249.3z"/>
					<path d="M76.3,245.8h0.4v4.5h-0.4V245.8z"/>
				</g>
				<g class="st2">
					<path d="M80.1,247.1l-1.6,3.5c-0.3,0.6-0.6,0.8-1.1,0.8c-0.3,0-0.6-0.1-0.8-0.3l0.2-0.3c0.2,0.2,0.3,0.2,0.6,0.2
						c0.3,0,0.5-0.1,0.7-0.5l0.1-0.3l-1.4-3.2h0.4l1.2,2.7l1.2-2.7H80.1z"/>
				</g>
				<g class="st2">
					<path d="M80.1,249.9l0.2-0.3c0.3,0.2,0.7,0.4,1.1,0.4c0.6,0,0.9-0.2,0.9-0.5c0-0.8-2.1-0.2-2.1-1.4c0-0.5,0.4-0.9,1.3-0.9
						c0.4,0,0.9,0.1,1.1,0.3l-0.2,0.3c-0.3-0.2-0.6-0.3-0.9-0.3c-0.6,0-0.8,0.2-0.8,0.5c0,0.9,2.1,0.2,2.1,1.4
						c0,0.5-0.5,0.9-1.3,0.9C80.8,250.3,80.3,250.1,80.1,249.9z"/>
					<path d="M83.3,246.1c0-0.2,0.1-0.3,0.3-0.3s0.3,0.1,0.3,0.3c0,0.2-0.1,0.3-0.3,0.3C83.5,246.4,83.3,246.2,83.3,246.1z
						 M83.4,247.1h0.4v3.2h-0.4V247.1z"/>
					<path d="M84.6,249.9l0.2-0.3c0.3,0.2,0.7,0.4,1.1,0.4c0.6,0,0.9-0.2,0.9-0.5c0-0.8-2.1-0.2-2.1-1.4c0-0.5,0.4-0.9,1.3-0.9
						c0.4,0,0.9,0.1,1.1,0.3l-0.2,0.3c-0.3-0.2-0.6-0.3-0.9-0.3c-0.6,0-0.8,0.2-0.8,0.5c0,0.9,2.1,0.2,2.1,1.4
						c0,0.5-0.5,0.9-1.3,0.9C85.4,250.3,84.9,250.1,84.6,249.9z"/>
				</g>
				<g class="st2">
					<path d="M58.3,256.1c0-1.2,0.9-2.1,2.2-2.1c0.6,0,1.2,0.2,1.5,0.6l-0.3,0.3c-0.3-0.3-0.8-0.5-1.2-0.5c-1,0-1.8,0.7-1.8,1.7
						c0,1,0.8,1.7,1.8,1.7c0.5,0,0.9-0.2,1.2-0.5l0.3,0.3c-0.4,0.4-0.9,0.6-1.5,0.6C59.2,258.2,58.3,257.3,58.3,256.1z"/>
				</g>
				<g class="st2">
					<path d="M62.4,256.6c0-0.9,0.7-1.6,1.6-1.6s1.6,0.7,1.6,1.6s-0.7,1.6-1.6,1.6S62.4,257.6,62.4,256.6z M65.2,256.6
						c0-0.7-0.5-1.2-1.2-1.2c-0.7,0-1.2,0.5-1.2,1.2s0.5,1.2,1.2,1.2C64.7,257.9,65.2,257.4,65.2,256.6z"/>
					<path d="M66.5,253.7h0.4v4.5h-0.4V253.7z"/>
					<path d="M68.1,253.7h0.4v4.5h-0.4V253.7z"/>
					<path d="M72.5,256.7h-2.7c0,0.7,0.6,1.1,1.2,1.1c0.4,0,0.7-0.1,1-0.4l0.2,0.3c-0.3,0.3-0.7,0.5-1.2,0.5c-1,0-1.7-0.7-1.7-1.6
						s0.7-1.6,1.5-1.6s1.5,0.7,1.5,1.6C72.5,256.7,72.5,256.7,72.5,256.7z M69.8,256.4h2.2c-0.1-0.6-0.5-1.1-1.1-1.1
						C70.3,255.4,69.9,255.8,69.8,256.4z"/>
				</g>
				<g class="st2">
					<path d="M72.6,256.6c0-0.9,0.7-1.6,1.6-1.6c0.5,0,1,0.2,1.2,0.6l-0.3,0.2c-0.2-0.3-0.6-0.5-0.9-0.5c-0.7,0-1.2,0.5-1.2,1.2
						c0,0.7,0.5,1.2,1.2,1.2c0.4,0,0.7-0.1,0.9-0.5l0.3,0.2c-0.3,0.4-0.7,0.6-1.2,0.6C73.3,258.2,72.6,257.6,72.6,256.6z"/>
				</g>
				<g class="st2">
					<path d="M77.9,258c-0.2,0.2-0.4,0.2-0.7,0.2c-0.6,0-0.9-0.3-0.9-0.9v-1.9h-0.6V255h0.6v-0.7h0.4v0.7h1v0.4h-1v1.9
						c0,0.4,0.2,0.6,0.5,0.6c0.2,0,0.3-0.1,0.5-0.2L77.9,258z"/>
					<path d="M83.1,253.7v4.5h-0.4v-0.6c-0.3,0.4-0.7,0.7-1.2,0.7c-0.9,0-1.6-0.7-1.6-1.6c0-1,0.7-1.6,1.6-1.6
						c0.5,0,0.9,0.2,1.2,0.6v-1.9H83.1z M82.7,256.6c0-0.7-0.5-1.2-1.2-1.2c-0.7,0-1.2,0.5-1.2,1.2s0.5,1.2,1.2,1.2
						C82.2,257.9,82.7,257.4,82.7,256.6z"/>
					<path d="M86.7,256.2v2h-0.4v-0.5c-0.2,0.3-0.6,0.5-1.1,0.5c-0.7,0-1.2-0.4-1.2-0.9c0-0.5,0.3-0.9,1.2-0.9h1v-0.2
						c0-0.5-0.3-0.8-0.9-0.8c-0.4,0-0.8,0.1-1.1,0.4l-0.2-0.3c0.3-0.3,0.8-0.4,1.3-0.4C86.3,255,86.7,255.4,86.7,256.2z M86.3,257.2
						v-0.5h-1c-0.6,0-0.8,0.2-0.8,0.6c0,0.4,0.3,0.6,0.8,0.6C85.8,257.9,86.1,257.7,86.3,257.2z"/>
					<path d="M89.6,258c-0.2,0.2-0.4,0.2-0.7,0.2c-0.6,0-0.9-0.3-0.9-0.9v-1.9h-0.6V255H88v-0.7h0.4v0.7h1v0.4h-1v1.9
						c0,0.4,0.2,0.6,0.5,0.6c0.2,0,0.3-0.1,0.5-0.2L89.6,258z"/>
					<path d="M92.7,256.2v2h-0.4v-0.5c-0.2,0.3-0.6,0.5-1.1,0.5c-0.7,0-1.2-0.4-1.2-0.9c0-0.5,0.3-0.9,1.2-0.9h1v-0.2
						c0-0.5-0.3-0.8-0.9-0.8c-0.4,0-0.8,0.1-1.1,0.4l-0.2-0.3c0.3-0.3,0.8-0.4,1.3-0.4C92.3,255,92.7,255.4,92.7,256.2z M92.3,257.2
						v-0.5h-1c-0.6,0-0.8,0.2-0.8,0.6c0,0.4,0.3,0.6,0.8,0.6C91.8,257.9,92.1,257.7,92.3,257.2z"/>
				</g>
				<g class="st2">
					<path d="M52.1,218.6c0,1.7-1.3,2.8-3.3,2.8h-1.5v2.1h-1.8v-7.7h3.3C50.8,215.8,52.1,216.8,52.1,218.6z M50.3,218.6
						c0-0.8-0.5-1.3-1.6-1.3h-1.4v2.7h1.4C49.8,219.9,50.3,219.4,50.3,218.6z"/>
				</g>
				<g class="st2">
					<path d="M53.4,215.8h1.8v6.2H59v1.4h-5.6V215.8z"/>
				</g>
				<g class="st2">
					<path d="M65.1,221.8h-3.6l-0.7,1.6h-1.8l3.4-7.7h1.8l3.4,7.7h-1.9L65.1,221.8z M64.6,220.4l-1.2-2.9l-1.2,2.9H64.6z"/>
					<path d="M75.5,215.8v7.7H74l-3.8-4.7v4.7h-1.8v-7.7h1.5l3.8,4.7v-4.7H75.5z"/>
					<path d="M84.3,215.8v7.7h-1.5l-3.8-4.7v4.7h-1.8v-7.7h1.5l3.8,4.7v-4.7H84.3z"/>
					<path d="M86.2,215.8h1.8v7.7h-1.8V215.8z"/>
					<path d="M96.8,215.8v7.7h-1.5l-3.8-4.7v4.7h-1.8v-7.7h1.5l3.8,4.7v-4.7H96.8z"/>
					<path d="M103.8,219.5h1.6v3.1c-0.8,0.6-2,1-3.1,1c-2.4,0-4.2-1.7-4.2-4c0-2.3,1.8-4,4.2-4c1.3,0,2.5,0.5,3.2,1.3l-1.1,1.1
						c-0.6-0.6-1.2-0.9-2-0.9c-1.5,0-2.5,1-2.5,2.5c0,1.4,1,2.5,2.5,2.5c0.5,0,0.9-0.1,1.4-0.3V219.5z"/>
				</g>
			</g>
			<g>
				<g>
					<path d="M92,156.8l-4.2,2.1l-0.9-1.9l4.2-2.1L92,156.8z"/>
				</g>
				<g>
					<path d="M91.1,173.5l-4.2-2.1l0.9-1.9l4.2,2.1L91.1,173.5z"/>
				</g>
				<g>
					<path d="M88.4,163.2h4.2v2.1h-4.2V163.2z"/>
				</g>
				<g>
					<path d="M58.7,155l4.2,2.1l-0.9,1.9l-4.2-2.1L58.7,155z"/>
				</g>
				<g>
					<path d="M58.7,173.5l-0.9-1.9l4.2-2.1l0.9,1.9L58.7,173.5z"/>
				</g>
				<g>
					<path d="M57.1,163.2h4.2v2.1h-4.2V163.2z"/>
				</g>
				<g>
					<path d="M71.8,186.2H78v2.1h-6.2V186.2z"/>
				</g>
				<g>
					<path d="M86.3,164.2c0-6.3-5.1-11.4-11.4-11.4c-6.3,0-11.4,5.1-11.4,11.4c0,4.3,2.4,8.2,6.2,10.2v3.4h-2.1v2.1h2.1v4.3h10.4
						v-4.3h2.1v-2.1h-2.1v-3.4C83.9,172.5,86.4,168.5,86.3,164.2z M78,182.1h-6.2v-2.2H78L78,182.1L78,182.1z M73.9,166.3
						c0-0.6,0.4-1,1-1s1,0.4,1,1s-0.4,1-1,1C74.3,167.3,73.9,166.9,73.9,166.3C73.9,166.3,73.9,166.3,73.9,166.3L73.9,166.3z
						 M76,177.8v-8.5c1.6-0.6,2.5-2.4,1.9-4c-0.6-1.6-2.4-2.5-4-1.9c-1.6,0.6-2.5,2.4-1.9,4c0.3,0.9,1,1.6,1.9,1.9v8.5h-2.1v-4.7
						l-0.6-0.3c-4.7-2.1-6.9-7.6-4.8-12.3s7.6-6.9,12.3-4.8c4.7,2.1,6.9,7.6,4.8,12.3c-0.9,2.2-2.7,3.9-4.8,4.8l-0.6,0.3v4.7H76
						L76,177.8z"/>
				</g>
			</g>
			<g class="st2">
				<path d="M37.1,203.6c0-3.7,2.1-5.9,4.9-5.9c2.8,0,4.9,2.1,4.9,5.9c0,3.7-2.1,5.9-4.9,5.9C39.1,209.5,37.1,207.4,37.1,203.6z
					 M44.1,203.6c0-2.6-0.9-3.6-2.2-3.6c-1.3,0-2.2,1.1-2.2,3.6s0.9,3.6,2.2,3.6C43.2,207.3,44.1,206.2,44.1,203.6z"/>
			</g>
			<g class="st2">
				<path d="M52.3,198v11.3h-2.6v-9.2h-2.3V198H52.3z"/>
				<path d="M54.2,207.8c0-0.9,0.7-1.6,1.6-1.6c0.9,0,1.6,0.6,1.6,1.6c0,0.9-0.7,1.6-1.6,1.6C54.9,209.4,54.2,208.8,54.2,207.8z"/>
			</g>
		</g>
	</g>
	<g>
		<g>
			<g>
				<g class="st2">
					<path d="M174.4,158.4l-1.4,4.2h-0.5l-1.2-3.6l-1.2,3.6h-0.5l-1.4-4.2h0.5l1.2,3.6l1.3-3.6h0.4l1.2,3.6l1.2-3.6H174.4z"/>
				</g>
				<g class="st2">
					<path d="M174.8,158.4c0-0.2,0.1-0.3,0.3-0.3s0.3,0.1,0.3,0.3c0,0.2-0.1,0.3-0.3,0.3C175,158.7,174.8,158.6,174.8,158.4z
						 M174.9,159.4h0.4v3.2h-0.4V159.4z"/>
				</g>
				<g class="st2">
					<path d="M178,159.4v0.4c0,0-0.1,0-0.1,0c-0.7,0-1.1,0.4-1.1,1.2v1.6h-0.4v-3.2h0.4v0.6C177,159.6,177.4,159.4,178,159.4z"/>
				</g>
				<g class="st2">
					<path d="M181.4,161.1h-2.7c0,0.7,0.6,1.1,1.2,1.1c0.4,0,0.7-0.1,1-0.4l0.2,0.3c-0.3,0.3-0.7,0.5-1.2,0.5c-1,0-1.7-0.7-1.7-1.6
						s0.7-1.6,1.5-1.6s1.5,0.7,1.5,1.6C181.4,161,181.4,161.1,181.4,161.1z M178.7,160.8h2.2c-0.1-0.6-0.5-1.1-1.1-1.1
						C179.3,159.7,178.8,160.2,178.7,160.8z"/>
				</g>
				<g class="st2">
					<path d="M182.7,158.7v1.7h2.2v0.4h-2.2v1.8h-0.4v-4.2h2.9v0.4H182.7z"/>
					<path d="M187.5,159.4v0.4c0,0-0.1,0-0.1,0c-0.7,0-1.1,0.4-1.1,1.2v1.6h-0.4v-3.2h0.4v0.6C186.5,159.6,186.9,159.4,187.5,159.4z
						"/>
				</g>
				<g class="st2">
					<path d="M190.5,160.6v2h-0.4v-0.5c-0.2,0.3-0.6,0.5-1.1,0.5c-0.7,0-1.2-0.4-1.2-0.9c0-0.5,0.3-0.9,1.2-0.9h1v-0.2
						c0-0.5-0.3-0.8-0.9-0.8c-0.4,0-0.8,0.1-1.1,0.4l-0.2-0.3c0.3-0.3,0.8-0.4,1.3-0.4C190.1,159.4,190.5,159.8,190.5,160.6z
						 M190.1,161.6v-0.5h-1c-0.6,0-0.8,0.2-0.8,0.6c0,0.4,0.3,0.6,0.8,0.6C189.6,162.3,189.9,162,190.1,161.6z"/>
					<path d="M196.9,160.7v1.8h-0.4v-1.8c0-0.7-0.3-1-0.9-1c-0.7,0-1.1,0.4-1.1,1.1v1.7h-0.4v-1.8c0-0.7-0.3-1-0.9-1
						c-0.6,0-1.1,0.4-1.1,1.1v1.7h-0.4v-3.2h0.4v0.6c0.2-0.4,0.6-0.6,1.2-0.6c0.5,0,0.9,0.2,1.1,0.7c0.2-0.4,0.7-0.7,1.3-0.7
						C196.4,159.4,196.9,159.8,196.9,160.7z"/>
					<path d="M200.9,161.1h-2.7c0,0.7,0.6,1.1,1.2,1.1c0.4,0,0.7-0.1,1-0.4l0.2,0.3c-0.3,0.3-0.7,0.5-1.2,0.5c-1,0-1.7-0.7-1.7-1.6
						s0.7-1.6,1.5-1.6s1.5,0.7,1.5,1.6C200.9,161,200.9,161.1,200.9,161.1z M198.2,160.8h2.2c-0.1-0.6-0.5-1.1-1.1-1.1
						C198.7,159.7,198.3,160.2,198.2,160.8z"/>
					<path d="M203.4,158.4h0.4v3.8h2.4v0.4h-2.8V158.4z"/>
				</g>
				<g class="st2">
					<path d="M209,160.6v2h-0.4v-0.5c-0.2,0.3-0.6,0.5-1.1,0.5c-0.7,0-1.2-0.4-1.2-0.9c0-0.5,0.3-0.9,1.2-0.9h1v-0.2
						c0-0.5-0.3-0.8-0.9-0.8c-0.4,0-0.8,0.1-1.1,0.4l-0.2-0.3c0.3-0.3,0.8-0.4,1.3-0.4C208.5,159.4,209,159.8,209,160.6z
						 M208.5,161.6v-0.5h-1c-0.6,0-0.8,0.2-0.8,0.6c0,0.4,0.3,0.6,0.8,0.6C208,162.3,208.4,162,208.5,161.6z"/>
				</g>
				<g class="st2">
					<path d="M212.6,159.4l-1.6,3.5c-0.3,0.6-0.6,0.8-1.1,0.8c-0.3,0-0.6-0.1-0.8-0.3l0.2-0.3c0.2,0.2,0.3,0.2,0.6,0.2
						c0.3,0,0.5-0.1,0.7-0.5l0.1-0.3l-1.4-3.2h0.4l1.2,2.7l1.2-2.7H212.6z"/>
				</g>
				<g class="st2">
					<path d="M212.6,161c0-0.9,0.7-1.6,1.6-1.6s1.6,0.7,1.6,1.6s-0.7,1.6-1.6,1.6S212.6,161.9,212.6,161z M215.4,161
						c0-0.7-0.5-1.2-1.2-1.2c-0.7,0-1.2,0.5-1.2,1.2s0.5,1.2,1.2,1.2C214.9,162.2,215.4,161.7,215.4,161z"/>
					<path d="M219.6,159.4v3.2h-0.4V162c-0.2,0.4-0.6,0.6-1.1,0.6c-0.8,0-1.3-0.5-1.3-1.4v-1.8h0.4v1.8c0,0.7,0.3,1,1,1
						c0.7,0,1.1-0.4,1.1-1.2v-1.7H219.6z"/>
					<path d="M222.4,162.4c-0.2,0.2-0.4,0.2-0.7,0.2c-0.6,0-0.9-0.3-0.9-0.9v-1.9h-0.6v-0.4h0.6v-0.7h0.4v0.7h1v0.4h-1v1.9
						c0,0.4,0.2,0.6,0.5,0.6c0.2,0,0.3-0.1,0.5-0.2L222.4,162.4z"/>
				</g>
				<g class="st2">
					<path d="M172.4,167.8c0,0.9-0.7,1.4-1.7,1.4h-1.1v1.3h-0.4v-4.2h1.6C171.7,166.3,172.4,166.9,172.4,167.8z M171.9,167.8
						c0-0.7-0.4-1.1-1.3-1.1h-1.1v2.1h1.1C171.5,168.8,171.9,168.4,171.9,167.8z"/>
				</g>
				<g class="st2">
					<path d="M174.7,167.3v0.4c0,0-0.1,0-0.1,0c-0.7,0-1.1,0.4-1.1,1.2v1.6h-0.4v-3.2h0.4v0.6C173.7,167.6,174.1,167.3,174.7,167.3z
						"/>
				</g>
				<g class="st2">
					<path d="M175,168.9c0-0.9,0.7-1.6,1.6-1.6s1.6,0.7,1.6,1.6s-0.7,1.6-1.6,1.6S175,169.9,175,168.9z M177.8,168.9
						c0-0.7-0.5-1.2-1.2-1.2c-0.7,0-1.2,0.5-1.2,1.2s0.5,1.2,1.2,1.2C177.3,170.2,177.8,169.7,177.8,168.9z"/>
				</g>
				<g class="st2">
					<path d="M180.7,170.3c-0.2,0.2-0.4,0.2-0.7,0.2c-0.6,0-0.9-0.3-0.9-0.9v-1.9h-0.6v-0.4h0.6v-0.7h0.4v0.7h1v0.4h-1v1.9
						c0,0.4,0.2,0.6,0.5,0.6c0.2,0,0.3-0.1,0.5-0.2L180.7,170.3z"/>
				</g>
				<g class="st2">
					<path d="M180.9,168.9c0-0.9,0.7-1.6,1.6-1.6s1.6,0.7,1.6,1.6s-0.7,1.6-1.6,1.6S180.9,169.9,180.9,168.9z M183.7,168.9
						c0-0.7-0.5-1.2-1.2-1.2c-0.7,0-1.2,0.5-1.2,1.2s0.5,1.2,1.2,1.2C183.2,170.2,183.7,169.7,183.7,168.9z"/>
				</g>
				<g class="st2">
					<path d="M187.3,166.7h-1.5v-0.4h3.4v0.4h-1.5v3.8h-0.4V166.7z"/>
				</g>
				<g class="st2">
					<path d="M192.1,167.4l-1.6,3.5c-0.3,0.6-0.6,0.8-1.1,0.8c-0.3,0-0.6-0.1-0.8-0.3l0.2-0.3c0.2,0.2,0.3,0.2,0.6,0.2
						c0.3,0,0.5-0.1,0.7-0.5l0.1-0.3l-1.4-3.2h0.4l1.2,2.7l1.2-2.7H192.1z"/>
					<path d="M195.9,168.9c0,1-0.7,1.6-1.6,1.6c-0.5,0-0.9-0.2-1.2-0.6v1.8h-0.4v-4.3h0.4v0.6c0.3-0.4,0.7-0.7,1.2-0.7
						C195.3,167.3,195.9,168,195.9,168.9z M195.5,168.9c0-0.7-0.5-1.2-1.2-1.2c-0.7,0-1.2,0.5-1.2,1.2c0,0.7,0.5,1.2,1.2,1.2
						C195,170.2,195.5,169.7,195.5,168.9z"/>
					<path d="M199.6,169.1h-2.7c0,0.7,0.6,1.1,1.2,1.1c0.4,0,0.7-0.1,1-0.4l0.2,0.3c-0.3,0.3-0.7,0.5-1.2,0.5c-1,0-1.7-0.7-1.7-1.6
						s0.7-1.6,1.5-1.6s1.5,0.7,1.5,1.6C199.6,169,199.6,169,199.6,169.1z M196.9,168.8h2.2c-0.1-0.6-0.5-1.1-1.1-1.1
						C197.4,167.7,197,168.1,196.9,168.8z"/>
					<path d="M202.1,166.3h1.7c1.4,0,2.3,0.9,2.3,2.1c0,1.2-0.9,2.1-2.3,2.1h-1.7V166.3z M203.8,170.1c1.1,0,1.8-0.7,1.8-1.7
						s-0.7-1.7-1.8-1.7h-1.2v3.4H203.8z"/>
					<path d="M209.8,169.1h-2.7c0,0.7,0.6,1.1,1.2,1.1c0.4,0,0.7-0.1,1-0.4l0.2,0.3c-0.3,0.3-0.7,0.5-1.2,0.5c-1,0-1.7-0.7-1.7-1.6
						s0.7-1.6,1.5-1.6s1.5,0.7,1.5,1.6C209.8,169,209.8,169,209.8,169.1z M207.1,168.8h2.2c-0.1-0.6-0.5-1.1-1.1-1.1
						C207.6,167.7,207.2,168.1,207.1,168.8z"/>
					<path d="M210.2,170.2l0.2-0.3c0.3,0.2,0.7,0.4,1.1,0.4c0.6,0,0.9-0.2,0.9-0.5c0-0.8-2.1-0.2-2.1-1.4c0-0.5,0.4-0.9,1.3-0.9
						c0.4,0,0.9,0.1,1.1,0.3l-0.2,0.3c-0.3-0.2-0.6-0.3-0.9-0.3c-0.6,0-0.8,0.2-0.8,0.5c0,0.9,2.1,0.2,2.1,1.4
						c0,0.5-0.5,0.9-1.3,0.9C211,170.6,210.5,170.4,210.2,170.2z"/>
					<path d="M213.5,166.4c0-0.2,0.1-0.3,0.3-0.3s0.3,0.1,0.3,0.3c0,0.2-0.1,0.3-0.3,0.3C213.6,166.7,213.5,166.5,213.5,166.4z
						 M213.6,167.4h0.4v3.2h-0.4V167.4z"/>
					<path d="M218.1,167.4v2.8c0,1.1-0.5,1.6-1.6,1.6c-0.6,0-1.1-0.2-1.5-0.5l0.2-0.3c0.3,0.3,0.8,0.4,1.2,0.4
						c0.8,0,1.2-0.4,1.2-1.2v-0.4c-0.3,0.4-0.7,0.6-1.2,0.6c-0.9,0-1.6-0.6-1.6-1.5s0.7-1.5,1.6-1.5c0.5,0,1,0.2,1.3,0.6v-0.6H218.1
						z M217.7,168.9c0-0.7-0.5-1.2-1.2-1.2s-1.2,0.5-1.2,1.2c0,0.7,0.5,1.2,1.2,1.2S217.7,169.6,217.7,168.9z"/>
					<path d="M222.2,168.7v1.8h-0.4v-1.8c0-0.7-0.3-1-1-1c-0.7,0-1.1,0.4-1.1,1.1v1.7h-0.4v-3.2h0.4v0.6c0.2-0.4,0.7-0.6,1.2-0.6
						C221.7,167.3,222.2,167.8,222.2,168.7z"/>
				</g>
				<g class="st2">
					<path d="M174.3,174.3h1.7c1.4,0,2.3,0.9,2.3,2.1c0,1.2-0.9,2.1-2.3,2.1h-1.7V174.3z M176,178.1c1.1,0,1.8-0.7,1.8-1.7
						s-0.7-1.7-1.8-1.7h-1.2v3.4H176z"/>
					<path d="M182,177h-2.7c0,0.7,0.6,1.1,1.2,1.1c0.4,0,0.7-0.1,1-0.4l0.2,0.3c-0.3,0.3-0.7,0.5-1.2,0.5c-1,0-1.7-0.7-1.7-1.6
						s0.7-1.6,1.5-1.6s1.5,0.7,1.5,1.6C182,176.9,182,177,182,177z M179.3,176.7h2.2c-0.1-0.6-0.5-1.1-1.1-1.1
						C179.8,175.7,179.4,176.1,179.3,176.7z"/>
					<path d="M182.4,178.1l0.2-0.3c0.3,0.2,0.7,0.4,1.1,0.4c0.6,0,0.9-0.2,0.9-0.5c0-0.8-2.1-0.2-2.1-1.4c0-0.5,0.4-0.9,1.3-0.9
						c0.4,0,0.9,0.1,1.1,0.3l-0.2,0.3c-0.3-0.2-0.6-0.3-0.9-0.3c-0.6,0-0.8,0.2-0.8,0.5c0,0.9,2.1,0.2,2.1,1.4
						c0,0.5-0.5,0.9-1.3,0.9C183.2,178.5,182.7,178.3,182.4,178.1z"/>
					<path d="M185.7,174.3c0-0.2,0.1-0.3,0.3-0.3s0.3,0.1,0.3,0.3c0,0.2-0.1,0.3-0.3,0.3C185.8,174.6,185.7,174.5,185.7,174.3z
						 M185.8,175.3h0.4v3.2h-0.4V175.3z"/>
					<path d="M190.3,175.3v2.8c0,1.1-0.5,1.6-1.6,1.6c-0.6,0-1.1-0.2-1.5-0.5l0.2-0.3c0.3,0.3,0.8,0.4,1.2,0.4
						c0.8,0,1.2-0.4,1.2-1.2v-0.4c-0.3,0.4-0.7,0.6-1.2,0.6c-0.9,0-1.6-0.6-1.6-1.5s0.7-1.5,1.6-1.5c0.5,0,1,0.2,1.3,0.6v-0.6H190.3
						z M189.9,176.8c0-0.7-0.5-1.2-1.2-1.2s-1.2,0.5-1.2,1.2c0,0.7,0.5,1.2,1.2,1.2S189.9,177.5,189.9,176.8z"/>
					<path d="M194.4,176.6v1.8H194v-1.8c0-0.7-0.3-1-1-1c-0.7,0-1.1,0.4-1.1,1.1v1.7h-0.4v-3.2h0.4v0.6c0.2-0.4,0.7-0.6,1.2-0.6
						C193.9,175.3,194.4,175.7,194.4,176.6z"/>
					<path d="M196.9,178l0.2-0.3c0.3,0.3,0.8,0.5,1.4,0.5c0.8,0,1.1-0.3,1.1-0.7c0-1.2-2.6-0.4-2.6-2c0-0.6,0.5-1.2,1.6-1.2
						c0.5,0,1,0.1,1.3,0.4l-0.2,0.4c-0.4-0.2-0.8-0.3-1.2-0.3c-0.8,0-1.1,0.3-1.1,0.8c0,1.2,2.6,0.5,2.6,2c0,0.6-0.5,1.2-1.6,1.2
						C197.8,178.5,197.2,178.3,196.9,178z"/>
					<path d="M200.8,174.3c0-0.2,0.1-0.3,0.3-0.3s0.3,0.1,0.3,0.3c0,0.2-0.1,0.3-0.3,0.3C200.9,174.6,200.8,174.5,200.8,174.3z
						 M200.9,175.3h0.4v3.2h-0.4V175.3z"/>
					<path d="M205.4,175.3v2.8c0,1.1-0.5,1.6-1.6,1.6c-0.6,0-1.1-0.2-1.5-0.5l0.2-0.3c0.3,0.3,0.8,0.4,1.2,0.4
						c0.8,0,1.2-0.4,1.2-1.2v-0.4c-0.3,0.4-0.7,0.6-1.2,0.6c-0.9,0-1.6-0.6-1.6-1.5s0.7-1.5,1.6-1.5c0.5,0,1,0.2,1.3,0.6v-0.6H205.4
						z M205,176.8c0-0.7-0.5-1.2-1.2-1.2s-1.2,0.5-1.2,1.2c0,0.7,0.5,1.2,1.2,1.2S205,177.5,205,176.8z"/>
					<path d="M209.5,176.6v1.8h-0.4v-1.8c0-0.7-0.3-1-1-1c-0.7,0-1.1,0.4-1.1,1.1v1.7h-0.4v-3.2h0.4v0.6c0.2-0.4,0.7-0.6,1.2-0.6
						C209,175.3,209.5,175.7,209.5,176.6z"/>
					<path d="M210.4,176.9c0-0.9,0.7-1.6,1.6-1.6s1.6,0.7,1.6,1.6s-0.7,1.6-1.6,1.6S210.4,177.8,210.4,176.9z M213.2,176.9
						c0-0.7-0.5-1.2-1.2-1.2c-0.7,0-1.2,0.5-1.2,1.2s0.5,1.2,1.2,1.2C212.7,178.1,213.2,177.6,213.2,176.9z"/>
					<path d="M215,174.9v0.4h1v0.4h-1v2.8h-0.4v-2.8H214v-0.4h0.6v-0.4c0-0.6,0.3-0.9,1-0.9c0.2,0,0.5,0.1,0.6,0.2l-0.1,0.3
						c-0.1-0.1-0.3-0.2-0.5-0.2C215.2,174.3,215,174.5,215,174.9z"/>
					<path d="M217,174.9v0.4h1v0.4h-1v2.8h-0.4v-2.8H216v-0.4h0.6v-0.4c0-0.6,0.3-0.9,1-0.9c0.2,0,0.5,0.1,0.6,0.2l-0.1,0.3
						c-0.1-0.1-0.3-0.2-0.5-0.2C217.2,174.3,217,174.5,217,174.9z"/>
				</g>
				<g class="st2">
					<path d="M173.9,144h3.5c2.5,0,4.2,1.5,4.2,3.8c0,2.3-1.7,3.8-4.2,3.8h-3.5V144z M177.3,150.2c1.5,0,2.5-0.9,2.5-2.4
						c0-1.5-1-2.4-2.5-2.4h-1.6v4.8H177.3z"/>
					<path d="M188.9,150.3v1.4H183V144h5.8v1.4h-4v1.7h3.6v1.4h-3.6v1.8H188.9z"/>
					<path d="M189.7,150.9l0.6-1.3c0.6,0.5,1.6,0.8,2.5,0.8c1.1,0,1.5-0.4,1.5-0.8c0-1.4-4.5-0.4-4.5-3.3c0-1.3,1.1-2.4,3.2-2.4
						c1,0,2,0.2,2.7,0.7l-0.5,1.3c-0.7-0.4-1.4-0.6-2.1-0.6c-1.1,0-1.5,0.4-1.5,0.9c0,1.4,4.5,0.4,4.5,3.3c0,1.3-1.1,2.4-3.3,2.4
						C191.6,151.8,190.4,151.4,189.7,150.9z"/>
					<path d="M197.3,144h1.8v7.7h-1.8V144z"/>
					<path d="M206.1,147.7h1.6v3.1c-0.8,0.6-2,1-3.1,1c-2.4,0-4.2-1.7-4.2-4c0-2.3,1.8-4,4.2-4c1.3,0,2.5,0.5,3.2,1.3l-1.1,1.1
						c-0.6-0.6-1.2-0.9-2-0.9c-1.5,0-2.5,1-2.5,2.5c0,1.4,1,2.5,2.5,2.5c0.5,0,0.9-0.1,1.4-0.3V147.7z"/>
					<path d="M216.4,144v7.7h-1.5l-3.8-4.7v4.7h-1.8V144h1.5l3.8,4.7V144H216.4z"/>
				</g>
			</g>
			<g>
				<g>
					<path d="M196.2,93.1c-2.9,0-5.3,2.4-5.3,5.3s2.4,5.3,5.3,5.3c2.9,0,5.3-2.4,5.3-5.3C201.5,95.5,199.1,93.1,196.2,93.1z
						 M196.2,101.6c-1.8,0-3.2-1.4-3.2-3.2c0-1.8,1.4-3.2,3.2-3.2c1.8,0,3.2,1.4,3.2,3.2v0C199.4,100.2,197.9,101.6,196.2,101.6z"/>
				</g>
				<g>
					<path d="M196.2,99.9l-1.5-1.5l1.5-1.5l1.5,1.5L196.2,99.9z"/>
				</g>
				<g>
					<path d="M205.7,105.3c0.1-2.1,0-4.3-0.3-6.4c-0.9-5.5-3.1-10.7-6.5-15.1l-2.7-3.7l-2.7,3.6c-3.4,4.4-5.6,9.6-6.5,15.1
						c-0.3,2.1-0.4,4.3-0.3,6.4c-2.7,2-4.3,5.1-4.3,8.5v2.9l2.2-1.6c1.1-0.7,2.4-1.2,3.7-1.4c0.4,1.3,0.7,2,1.1,3.1
						c1.6-1.6,3.6-2.6,5.8-3v3h2.1v-3c2.2,0.4,4.2,1.4,5.8,3c0.4-1.1,0.7-1.8,1.1-3.1c1.3,0.2,2.6,0.7,3.7,1.4l2.2,1.6v-2.8
						C210,110.4,208.4,107.3,205.7,105.3z M184.5,112.6c0.3-1.8,1.1-3.4,2.4-4.7c0.2,1.2,0.4,2.4,0.7,3.6
						C186.5,111.7,185.5,112.1,184.5,112.6L184.5,112.6z M202,113.2c-1.5-0.9-3.1-1.5-4.8-1.6V106h-2.1v5.6
						c-1.7,0.2-3.3,0.7-4.8,1.6c-3.2-9.7-1.5-19.6,4.9-28.1l1-1.3l1,1.3C203.5,93.5,205.2,103.5,202,113.2z M204.7,111.5
						c0.3-1.2,0.5-2.4,0.7-3.6c1.3,1.3,2.1,2.9,2.4,4.7C206.8,112.1,205.8,111.7,204.7,111.5L204.7,111.5z"/>
				</g>
				<g>
					<path d="M178,88.8h6.5V91H178V88.8z"/>
				</g>
				<g>
					<path d="M207.9,88.8h6.5V91h-6.5L207.9,88.8L207.9,88.8z"/>
				</g>
				<g>
					<path d="M180.2,81.3L186,84l-0.9,1.9l-5.8-2.7L180.2,81.3z"/>
				</g>
				<g>
					<path d="M212.1,98.5l-5.8-2.7l0.9-1.9l5.8,2.7L212.1,98.5z"/>
				</g>
				<g>
					<path d="M179.3,96.6l5.8-2.7l0.9,1.9l-5.8,2.7L179.3,96.6z"/>
				</g>
				<g>
					<path d="M212.1,81.3l0.9,1.9l-5.8,2.7l-0.9-1.9L212.1,81.3z"/>
				</g>
			</g>
			<g class="st2">
				<path d="M157.3,132.7c0-3.7,2.1-5.9,4.9-5.9c2.8,0,4.9,2.1,4.9,5.9c0,3.7-2.1,5.9-4.9,5.9C159.3,138.5,157.3,136.4,157.3,132.7z
					 M164.3,132.7c0-2.6-0.9-3.6-2.2-3.6c-1.3,0-2.2,1.1-2.2,3.6s0.9,3.6,2.2,3.6C163.4,136.3,164.3,135.2,164.3,132.7z"/>
			</g>
			<g class="st2">
				<path d="M176.6,136.2v2.1h-8.6v-1.7l4.4-4.1c1-1,1.2-1.5,1.2-2.1c0-0.9-0.6-1.4-1.8-1.4c-1,0-1.8,0.4-2.3,1.1l-1.9-1.2
					c0.9-1.3,2.5-2.1,4.5-2.1c2.5,0,4.2,1.3,4.2,3.4c0,1.1-0.3,2.1-1.9,3.6l-2.6,2.5H176.6z"/>
			</g>
			<g class="st2">
				<path d="M177.8,136.9c0-0.9,0.7-1.6,1.6-1.6c0.9,0,1.6,0.6,1.6,1.6c0,0.9-0.7,1.6-1.6,1.6C178.5,138.5,177.8,137.8,177.8,136.9z
					"/>
			</g>
		</g>
	</g>
	<g>
		<g>
			<g>
				<g class="st2">
					<path d="M306.6,229.4c0-1.2,0.9-2.1,2.2-2.1c0.6,0,1.2,0.2,1.5,0.6l-0.3,0.3c-0.3-0.3-0.8-0.5-1.2-0.5c-1,0-1.8,0.7-1.8,1.7
						c0,1,0.8,1.7,1.8,1.7c0.5,0,0.9-0.2,1.2-0.5l0.3,0.3c-0.4,0.4-0.9,0.6-1.5,0.6C307.6,231.6,306.6,230.7,306.6,229.4z"/>
				</g>
				<g class="st2">
					<path d="M310.7,229.9c0-0.9,0.7-1.6,1.6-1.6s1.6,0.7,1.6,1.6s-0.7,1.6-1.6,1.6S310.7,230.9,310.7,229.9z M313.5,229.9
						c0-0.7-0.5-1.2-1.2-1.2c-0.7,0-1.2,0.5-1.2,1.2s0.5,1.2,1.2,1.2C313,231.2,313.5,230.7,313.5,229.9z"/>
					<path d="M317.7,227.1v4.5h-0.4v-0.6c-0.3,0.4-0.7,0.7-1.2,0.7c-0.9,0-1.6-0.7-1.6-1.6c0-1,0.7-1.6,1.6-1.6
						c0.5,0,0.9,0.2,1.2,0.6v-1.9H317.7z M317.3,229.9c0-0.7-0.5-1.2-1.2-1.2c-0.7,0-1.2,0.5-1.2,1.2s0.5,1.2,1.2,1.2
						C316.8,231.2,317.3,230.7,317.3,229.9z"/>
					<path d="M318.8,227.4c0-0.2,0.1-0.3,0.3-0.3s0.3,0.1,0.3,0.3c0,0.2-0.1,0.3-0.3,0.3C318.9,227.7,318.8,227.5,318.8,227.4z
						 M318.9,228.4h0.4v3.2h-0.4V228.4z"/>
					<path d="M323.4,229.7v1.8H323v-1.8c0-0.7-0.3-1-1-1c-0.7,0-1.1,0.4-1.1,1.1v1.7h-0.4v-3.2h0.4v0.6c0.2-0.4,0.7-0.6,1.2-0.6
						C322.9,228.3,323.4,228.8,323.4,229.7z"/>
					<path d="M327.5,228.4v2.8c0,1.1-0.5,1.6-1.6,1.6c-0.6,0-1.1-0.2-1.5-0.5l0.2-0.3c0.3,0.3,0.8,0.4,1.2,0.4
						c0.8,0,1.2-0.4,1.2-1.2v-0.4c-0.3,0.4-0.7,0.6-1.2,0.6c-0.9,0-1.6-0.6-1.6-1.5s0.7-1.5,1.6-1.5c0.5,0,1,0.2,1.3,0.6v-0.6H327.5
						z M327.1,229.9c0-0.7-0.5-1.2-1.2-1.2s-1.2,0.5-1.2,1.2c0,0.7,0.5,1.2,1.2,1.2S327.1,230.6,327.1,229.9z"/>
				</g>
				<g class="st2">
					<path d="M286.5,235.3h0.4v3.8h2.4v0.4h-2.8V235.3z"/>
				</g>
				<g class="st2">
					<path d="M292.3,237.5v2h-0.4V239c-0.2,0.3-0.6,0.5-1.1,0.5c-0.7,0-1.2-0.4-1.2-0.9c0-0.5,0.3-0.9,1.2-0.9h1v-0.2
						c0-0.5-0.3-0.8-0.9-0.8c-0.4,0-0.8,0.1-1.1,0.4l-0.2-0.3c0.3-0.3,0.8-0.4,1.3-0.4C291.8,236.3,292.3,236.7,292.3,237.5z
						 M291.9,238.5V238h-1c-0.6,0-0.8,0.2-0.8,0.6c0,0.4,0.3,0.6,0.8,0.6C291.4,239.2,291.7,239,291.9,238.5z"/>
				</g>
				<g class="st2">
					<path d="M296,236.3l-1.6,3.5c-0.3,0.6-0.6,0.8-1.1,0.8c-0.3,0-0.6-0.1-0.8-0.3l0.2-0.3c0.2,0.2,0.3,0.2,0.6,0.2
						c0.3,0,0.5-0.1,0.7-0.5l0.1-0.3l-1.4-3.2h0.4l1.2,2.7l1.2-2.7H296z"/>
				</g>
				<g class="st2">
					<path d="M296,237.9c0-0.9,0.7-1.6,1.6-1.6s1.6,0.7,1.6,1.6s-0.7,1.6-1.6,1.6S296,238.8,296,237.9z M298.8,237.9
						c0-0.7-0.5-1.2-1.2-1.2c-0.7,0-1.2,0.5-1.2,1.2s0.5,1.2,1.2,1.2C298.3,239.1,298.8,238.6,298.8,237.9z"/>
					<path d="M302.9,236.3v3.2h-0.4v-0.6c-0.2,0.4-0.6,0.6-1.1,0.6c-0.8,0-1.3-0.5-1.3-1.4v-1.8h0.4v1.8c0,0.7,0.3,1,1,1
						c0.7,0,1.1-0.4,1.1-1.2v-1.7H302.9z"/>
					<path d="M305.8,239.3c-0.2,0.2-0.4,0.2-0.7,0.2c-0.6,0-0.9-0.3-0.9-0.9v-1.9h-0.6v-0.4h0.6v-0.7h0.4v0.7h1v0.4h-1v1.9
						c0,0.4,0.2,0.6,0.5,0.6c0.2,0,0.3-0.1,0.5-0.2L305.8,239.3z"/>
					<path d="M312.6,235.3v4.2h-0.4v-3.4l-1.7,2.8h-0.2l-1.7-2.8v3.4h-0.4v-4.2h0.4l1.8,3.1l1.8-3.1H312.6z"/>
					<path d="M316.3,237.5v2h-0.4V239c-0.2,0.3-0.6,0.5-1.1,0.5c-0.7,0-1.2-0.4-1.2-0.9c0-0.5,0.3-0.9,1.2-0.9h1v-0.2
						c0-0.5-0.3-0.8-0.9-0.8c-0.4,0-0.8,0.1-1.1,0.4l-0.2-0.3c0.3-0.3,0.8-0.4,1.3-0.4C315.8,236.3,316.3,236.7,316.3,237.5z
						 M315.8,238.5V238h-1c-0.6,0-0.8,0.2-0.8,0.6c0,0.4,0.3,0.6,0.8,0.6C315.3,239.2,315.7,239,315.8,238.5z"/>
					<path d="M317.3,235.3c0-0.2,0.1-0.3,0.3-0.3s0.3,0.1,0.3,0.3c0,0.2-0.1,0.3-0.3,0.3C317.5,235.6,317.3,235.5,317.3,235.3z
						 M317.4,236.3h0.4v3.2h-0.4V236.3z"/>
					<path d="M322,237.7v1.8h-0.4v-1.8c0-0.7-0.3-1-1-1c-0.7,0-1.1,0.4-1.1,1.1v1.7h-0.4v-3.2h0.4v0.6c0.2-0.4,0.7-0.6,1.2-0.6
						C321.4,236.3,322,236.7,322,237.7z"/>
					<path d="M324.4,239l0.2-0.3c0.3,0.3,0.8,0.5,1.4,0.5c0.8,0,1.1-0.3,1.1-0.7c0-1.2-2.6-0.4-2.6-2c0-0.6,0.5-1.2,1.6-1.2
						c0.5,0,1,0.1,1.3,0.4l-0.2,0.4c-0.4-0.2-0.8-0.3-1.2-0.3c-0.8,0-1.1,0.3-1.1,0.8c0,1.2,2.6,0.5,2.6,2c0,0.6-0.5,1.2-1.6,1.2
						C325.3,239.5,324.7,239.3,324.4,239z"/>
					<path d="M331.2,238h-2.7c0,0.7,0.6,1.1,1.2,1.1c0.4,0,0.7-0.1,1-0.4l0.2,0.3c-0.3,0.3-0.7,0.5-1.2,0.5c-1,0-1.7-0.7-1.7-1.6
						s0.7-1.6,1.5-1.6c0.9,0,1.5,0.7,1.5,1.6C331.2,237.9,331.2,238,331.2,238z M328.5,237.7h2.2c-0.1-0.6-0.5-1.1-1.1-1.1
						C329,236.7,328.6,237.1,328.5,237.7z"/>
				</g>
				<g class="st2">
					<path d="M330.9,237.9c0-0.9,0.7-1.6,1.6-1.6c0.5,0,1,0.2,1.2,0.6l-0.3,0.2c-0.2-0.3-0.6-0.5-0.9-0.5c-0.7,0-1.2,0.5-1.2,1.2
						c0,0.7,0.5,1.2,1.2,1.2c0.4,0,0.7-0.1,0.9-0.5l0.3,0.2c-0.3,0.4-0.7,0.6-1.2,0.6C331.6,239.5,330.9,238.9,330.9,237.9z"/>
				</g>
				<g class="st2">
					<path d="M336.2,239.3c-0.2,0.2-0.4,0.2-0.7,0.2c-0.6,0-0.9-0.3-0.9-0.9v-1.9H334v-0.4h0.6v-0.7h0.4v0.7h1v0.4h-1v1.9
						c0,0.4,0.2,0.6,0.5,0.6c0.2,0,0.3-0.1,0.5-0.2L336.2,239.3z"/>
					<path d="M336.9,235.3c0-0.2,0.1-0.3,0.3-0.3s0.3,0.1,0.3,0.3c0,0.2-0.1,0.3-0.3,0.3C337,235.6,336.9,235.5,336.9,235.3z
						 M337,236.3h0.4v3.2H337V236.3z"/>
					<path d="M338.3,237.9c0-0.9,0.7-1.6,1.6-1.6c0.9,0,1.6,0.7,1.6,1.6s-0.7,1.6-1.6,1.6C338.9,239.5,338.3,238.8,338.3,237.9z
						 M341,237.9c0-0.7-0.5-1.2-1.2-1.2c-0.7,0-1.2,0.5-1.2,1.2s0.5,1.2,1.2,1.2C340.5,239.1,341,238.6,341,237.9z"/>
					<path d="M345.3,237.7v1.8h-0.4v-1.8c0-0.7-0.3-1-1-1c-0.7,0-1.1,0.4-1.1,1.1v1.7h-0.4v-3.2h0.4v0.6c0.2-0.4,0.7-0.6,1.2-0.6
						C344.7,236.3,345.3,236.7,345.3,237.7z"/>
					<path d="M346,239.1l0.2-0.3c0.3,0.2,0.7,0.4,1.1,0.4c0.6,0,0.9-0.2,0.9-0.5c0-0.8-2.1-0.2-2.1-1.4c0-0.5,0.4-0.9,1.3-0.9
						c0.4,0,0.9,0.1,1.1,0.3l-0.2,0.3c-0.3-0.2-0.6-0.3-0.9-0.3c-0.6,0-0.8,0.2-0.8,0.5c0,0.9,2.1,0.2,2.1,1.4
						c0,0.5-0.5,0.9-1.3,0.9C346.7,239.5,346.2,239.4,346,239.1z"/>
				</g>
				<g class="st2">
					<path d="M293.5,245.3c0-1.2,0.9-2.1,2.2-2.1c0.6,0,1.2,0.2,1.5,0.6l-0.3,0.3c-0.3-0.3-0.8-0.5-1.2-0.5c-1,0-1.8,0.7-1.8,1.7
						c0,1,0.8,1.7,1.8,1.7c0.5,0,0.9-0.2,1.2-0.5l0.3,0.3c-0.4,0.4-0.9,0.6-1.5,0.6C294.5,247.5,293.5,246.6,293.5,245.3z"/>
					<path d="M298.2,243h0.4v4.5h-0.4V243z"/>
					<path d="M299.7,243.3c0-0.2,0.1-0.3,0.3-0.3s0.3,0.1,0.3,0.3c0,0.2-0.1,0.3-0.3,0.3C299.8,243.6,299.7,243.4,299.7,243.3z
						 M299.8,244.3h0.4v3.2h-0.4V244.3z"/>
					<path d="M304.2,246h-2.7c0,0.7,0.6,1.1,1.2,1.1c0.4,0,0.7-0.1,1-0.4l0.2,0.3c-0.3,0.3-0.7,0.5-1.2,0.5c-1,0-1.7-0.7-1.7-1.6
						s0.7-1.6,1.5-1.6s1.5,0.7,1.5,1.6C304.2,245.9,304.2,245.9,304.2,246z M301.5,245.7h2.2c-0.1-0.6-0.5-1.1-1.1-1.1
						C302,244.6,301.6,245.1,301.5,245.7z"/>
					<path d="M307.9,245.6v1.8h-0.4v-1.8c0-0.7-0.3-1-1-1c-0.7,0-1.1,0.4-1.1,1.1v1.7H305v-3.2h0.4v0.6c0.2-0.4,0.7-0.6,1.2-0.6
						C307.4,244.3,307.9,244.7,307.9,245.6z"/>
					<path d="M310.8,247.3c-0.2,0.2-0.4,0.2-0.7,0.2c-0.6,0-0.9-0.3-0.9-0.9v-1.9h-0.6v-0.4h0.6v-0.7h0.4v0.7h1v0.4h-1v1.9
						c0,0.4,0.2,0.6,0.5,0.6c0.2,0,0.3-0.1,0.5-0.2L310.8,247.3z"/>
				</g>
				<g class="st2">
					<path d="M313.1,243.6v1.7h2.2v0.4h-2.2v1.8h-0.4v-4.2h2.9v0.4H313.1z"/>
				</g>
				<g class="st2">
					<path d="M318.9,246h-2.7c0,0.7,0.6,1.1,1.2,1.1c0.4,0,0.7-0.1,1-0.4l0.2,0.3c-0.3,0.3-0.7,0.5-1.2,0.5c-1,0-1.7-0.7-1.7-1.6
						s0.7-1.6,1.5-1.6c0.9,0,1.5,0.7,1.5,1.6C318.9,245.9,318.9,245.9,318.9,246z M316.3,245.7h2.2c-0.1-0.6-0.5-1.1-1.1-1.1
						C316.8,244.6,316.3,245.1,316.3,245.7z"/>
					<path d="M322.6,246h-2.7c0,0.7,0.6,1.1,1.2,1.1c0.4,0,0.7-0.1,1-0.4l0.2,0.3c-0.3,0.3-0.7,0.5-1.2,0.5c-1,0-1.7-0.7-1.7-1.6
						s0.7-1.6,1.5-1.6c0.9,0,1.5,0.7,1.5,1.6C322.6,245.9,322.6,245.9,322.6,246z M319.9,245.7h2.2c-0.1-0.6-0.5-1.1-1.1-1.1
						C320.4,244.6,320,245.1,319.9,245.7z"/>
					<path d="M326.3,243v4.5h-0.4v-0.6c-0.3,0.4-0.7,0.7-1.2,0.7c-0.9,0-1.6-0.7-1.6-1.6c0-1,0.7-1.6,1.6-1.6c0.5,0,0.9,0.2,1.2,0.6
						V243H326.3z M325.9,245.9c0-0.7-0.5-1.2-1.2-1.2c-0.7,0-1.2,0.5-1.2,1.2s0.5,1.2,1.2,1.2C325.4,247.1,325.9,246.6,325.9,245.9z
						"/>
					<path d="M330.7,245.9c0,1-0.7,1.6-1.6,1.6c-0.5,0-1-0.2-1.2-0.7v0.6h-0.4V243h0.4v1.9c0.3-0.4,0.7-0.6,1.2-0.6
						C330.1,244.3,330.7,244.9,330.7,245.9z M330.3,245.9c0-0.7-0.5-1.2-1.2-1.2c-0.7,0-1.2,0.5-1.2,1.2s0.5,1.2,1.2,1.2
						C329.8,247.1,330.3,246.6,330.3,245.9z"/>
					<path d="M334,245.5v2h-0.4V247c-0.2,0.3-0.6,0.5-1.1,0.5c-0.7,0-1.2-0.4-1.2-0.9c0-0.5,0.3-0.9,1.2-0.9h1v-0.2
						c0-0.5-0.3-0.8-0.9-0.8c-0.4,0-0.8,0.1-1.1,0.4l-0.2-0.3c0.3-0.3,0.8-0.4,1.3-0.4C333.5,244.3,334,244.7,334,245.5z
						 M333.6,246.5V246h-1c-0.6,0-0.8,0.2-0.8,0.6c0,0.4,0.3,0.6,0.8,0.6C333,247.1,333.4,246.9,333.6,246.5z"/>
				</g>
				<g class="st2">
					<path d="M334.5,245.9c0-0.9,0.7-1.6,1.6-1.6c0.5,0,1,0.2,1.2,0.6l-0.3,0.2c-0.2-0.3-0.6-0.5-0.9-0.5c-0.7,0-1.2,0.5-1.2,1.2
						c0,0.7,0.5,1.2,1.2,1.2c0.4,0,0.7-0.1,0.9-0.5l0.3,0.2c-0.3,0.4-0.7,0.6-1.2,0.6C335.2,247.5,334.5,246.8,334.5,245.9z"/>
				</g>
				<g class="st2">
					<path d="M339.2,245.9l-0.7,0.7v0.9H338V243h0.4v3l1.9-1.7h0.5l-1.4,1.3l1.5,1.9h-0.5L339.2,245.9z"/>
				</g>
				<g class="st2">
					<path d="M273.5,213h3.5c2.5,0,4.2,1.5,4.2,3.8c0,2.3-1.7,3.8-4.2,3.8h-3.5V213z M276.9,219.2c1.5,0,2.5-0.9,2.5-2.4
						c0-1.5-1-2.4-2.5-2.4h-1.6v4.8H276.9z"/>
				</g>
				<g class="st2">
					<path d="M288.5,219.2v1.4h-5.9V213h5.8v1.4h-4v1.7h3.6v1.4h-3.6v1.8H288.5z"/>
				</g>
				<g class="st2">
					<path d="M297.2,213l-3.3,7.7h-1.8l-3.3-7.7h1.9l2.3,5.5l2.4-5.5H297.2z"/>
				</g>
				<g class="st2">
					<path d="M303.8,219.2v1.4h-5.9V213h5.8v1.4h-4v1.7h3.6v1.4h-3.6v1.8H303.8z"/>
				</g>
				<g class="st2">
					<path d="M305.2,213h1.8v6.2h3.8v1.4h-5.6V213z"/>
				</g>
				<g class="st2">
					<path d="M311.2,216.8c0-2.3,1.8-4,4.2-4c2.4,0,4.2,1.7,4.2,4c0,2.3-1.8,4-4.2,4C313,220.8,311.2,219.1,311.2,216.8z
						 M317.8,216.8c0-1.5-1-2.5-2.4-2.5c-1.4,0-2.4,1-2.4,2.5c0,1.5,1,2.5,2.4,2.5C316.8,219.3,317.8,218.3,317.8,216.8z"/>
				</g>
				<g class="st2">
					<path d="M327.6,215.8c0,1.7-1.3,2.8-3.3,2.8h-1.5v2.1H321V213h3.3C326.3,213,327.6,214,327.6,215.8z M325.8,215.8
						c0-0.8-0.5-1.3-1.6-1.3h-1.4v2.7h1.4C325.3,217.1,325.8,216.6,325.8,215.8z"/>
				</g>
				<g class="st2">
					<path d="M335.9,220.6l0-4.6l-2.3,3.8h-0.8l-2.2-3.7v4.5h-1.7V213h1.5l2.9,4.8l2.8-4.8h1.5l0,7.7H335.9z"/>
					<path d="M345.3,219.2v1.4h-5.9V213h5.8v1.4h-4v1.7h3.6v1.4h-3.6v1.8H345.3z"/>
					<path d="M353.7,213v7.7h-1.5l-3.8-4.7v4.7h-1.8V213h1.5l3.8,4.7V213H353.7z"/>
					<path d="M357.1,214.4h-2.5V213h6.7v1.4h-2.5v6.2h-1.8V214.4z"/>
				</g>
			</g>
			<g>
				<path d="M334.8,186h-2.1v-15.2l2.1,2.1v-11.9h-11.9l3.7,3.7l-3.6,3.6l-8.1-6l-13.6,9.7v-19.4h-2.1v35.5h35.5V186z M313.9,170.7
					V186h-6.2v-10.8L313.9,170.7z M316,170.8l6.3,4.7V186H316V170.8z M324.4,175.8l6.2-6.2V186h-6.3L324.4,175.8L324.4,175.8z
					 M315,164.8l8.3,6.2l6.3-6.3l-1.6-1.6h4.8v4.8l-1.7-1.6l-7.6,7.6l-8.5-6.3l-13.6,9.6v-2.6L315,164.8z M301.4,179.6l4.2-3v9.4
					h-4.2V179.6L301.4,179.6z"/>
			</g>
			<g class="st2">
				<path d="M279.1,203c0-3.7,2.1-5.9,4.9-5.9c2.8,0,4.9,2.1,4.9,5.9c0,3.7-2.1,5.9-4.9,5.9C281.1,208.9,279.1,206.8,279.1,203z
					 M286.1,203c0-2.6-0.9-3.6-2.2-3.6c-1.3,0-2.2,1.1-2.2,3.6s0.9,3.6,2.2,3.6C285.2,206.7,286.1,205.6,286.1,203z"/>
			</g>
			<g class="st2">
				<path d="M298.3,205.2c0,1.9-1.5,3.7-4.7,3.7c-1.6,0-3.2-0.4-4.3-1.2l1-2c0.9,0.6,2.1,1,3.2,1c1.3,0,2.1-0.5,2.1-1.5
					c0-0.9-0.6-1.4-2.1-1.4h-1.2v-1.7l2.3-2.6h-4.8v-2.1h7.9v1.7l-2.6,2.9C297.2,202.3,298.3,203.6,298.3,205.2z"/>
				<path d="M299.4,207.2c0-0.9,0.7-1.6,1.6-1.6c0.9,0,1.6,0.6,1.6,1.6c0,0.9-0.7,1.6-1.6,1.6C300.1,208.8,299.4,208.2,299.4,207.2z
					"/>
			</g>
		</g>
	</g>
	<g>
		<g>
			<g>
				<g class="st2">
					<path d="M416,155.1h1.7c1.4,0,2.3,0.9,2.3,2.1c0,1.2-0.9,2.1-2.3,2.1H416V155.1z M417.7,158.9c1.1,0,1.8-0.7,1.8-1.7
						s-0.7-1.7-1.8-1.7h-1.2v3.4H417.7z"/>
					<path d="M423.6,157.8H421c0,0.7,0.6,1.1,1.2,1.1c0.4,0,0.7-0.1,1-0.4l0.2,0.3c-0.3,0.3-0.7,0.5-1.2,0.5c-1,0-1.7-0.7-1.7-1.6
						s0.7-1.6,1.5-1.6c0.9,0,1.5,0.7,1.5,1.6C423.7,157.7,423.6,157.8,423.6,157.8z M421,157.5h2.2c-0.1-0.6-0.5-1.1-1.1-1.1
						C421.5,156.5,421.1,156.9,421,157.5z"/>
					<path d="M424.1,158.9l0.2-0.3c0.3,0.2,0.7,0.4,1.1,0.4c0.6,0,0.8-0.2,0.8-0.5c0-0.8-2.1-0.2-2.1-1.4c0-0.5,0.4-0.9,1.3-0.9
						c0.4,0,0.9,0.1,1.1,0.3l-0.2,0.3c-0.3-0.2-0.6-0.3-0.9-0.3c-0.6,0-0.8,0.2-0.8,0.5c0,0.9,2.1,0.2,2.1,1.4
						c0,0.5-0.5,0.9-1.3,0.9C424.9,159.3,424.3,159.1,424.1,158.9z"/>
					<path d="M427.4,155.1c0-0.2,0.1-0.3,0.3-0.3s0.3,0.1,0.3,0.3c0,0.2-0.1,0.3-0.3,0.3C427.5,155.4,427.4,155.3,427.4,155.1z
						 M427.5,156.1h0.4v3.2h-0.4V156.1z"/>
					<path d="M432,156.1v2.8c0,1.1-0.5,1.6-1.6,1.6c-0.6,0-1.1-0.2-1.5-0.5l0.2-0.3c0.3,0.3,0.8,0.4,1.2,0.4c0.8,0,1.2-0.4,1.2-1.2
						v-0.4c-0.3,0.4-0.7,0.6-1.2,0.6c-0.9,0-1.6-0.6-1.6-1.5s0.7-1.5,1.6-1.5c0.5,0,1,0.2,1.3,0.6v-0.6H432z M431.6,157.6
						c0-0.7-0.5-1.2-1.2-1.2s-1.2,0.5-1.2,1.2c0,0.7,0.5,1.2,1.2,1.2S431.6,158.3,431.6,157.6z"/>
					<path d="M436.1,157.4v1.8h-0.4v-1.8c0-0.7-0.3-1-1-1c-0.7,0-1.1,0.4-1.1,1.1v1.7h-0.4v-3.2h0.4v0.6c0.2-0.4,0.7-0.6,1.2-0.6
						C435.6,156.1,436.1,156.5,436.1,157.4z"/>
					<path d="M443.2,159.6c-0.3,0.3-0.6,0.5-1,0.5c-0.5,0-0.9-0.2-1.5-0.8c-1.2,0-2.1-0.9-2.1-2.1c0-1.2,0.9-2.1,2.2-2.1
						c1.3,0,2.2,0.9,2.2,2.1c0,1.1-0.7,1.9-1.7,2.1c0.3,0.3,0.6,0.5,0.9,0.5c0.3,0,0.6-0.1,0.8-0.4L443.2,159.6z M440.8,158.9
						c1,0,1.8-0.7,1.8-1.7c0-1-0.8-1.7-1.8-1.7c-1,0-1.8,0.7-1.8,1.7C439,158.2,439.8,158.9,440.8,158.9z"/>
					<path d="M446.8,156.1v3.2h-0.4v-0.6c-0.2,0.4-0.6,0.6-1.1,0.6c-0.8,0-1.3-0.5-1.3-1.4v-1.8h0.4v1.8c0,0.7,0.3,1,1,1
						c0.7,0,1.1-0.4,1.1-1.2v-1.7H446.8z"/>
					<path d="M450.4,157.3v2H450v-0.5c-0.2,0.3-0.6,0.5-1.1,0.5c-0.7,0-1.2-0.4-1.2-0.9c0-0.5,0.3-0.9,1.2-0.9h1v-0.2
						c0-0.5-0.3-0.8-0.9-0.8c-0.4,0-0.8,0.1-1.1,0.4l-0.2-0.3c0.3-0.3,0.8-0.4,1.3-0.4C449.9,156.1,450.4,156.5,450.4,157.3z
						 M449.9,158.3v-0.5h-1c-0.6,0-0.8,0.2-0.8,0.6c0,0.4,0.3,0.6,0.8,0.6C449.4,159,449.8,158.7,449.9,158.3z"/>
					<path d="M451.5,154.8h0.4v4.5h-0.4V154.8z"/>
					<path d="M453,155.1c0-0.2,0.1-0.3,0.3-0.3s0.3,0.1,0.3,0.3c0,0.2-0.1,0.3-0.3,0.3C453.2,155.4,453,155.3,453,155.1z
						 M453.1,156.1h0.4v3.2h-0.4V156.1z"/>
				</g>
				<g class="st2">
					<path d="M455.5,159.1c-0.2,0.2-0.4,0.2-0.7,0.2c-0.6,0-0.9-0.3-0.9-0.9v-1.9h-0.6v-0.4h0.6v-0.7h0.4v0.7h1v0.4h-1v1.9
						c0,0.4,0.2,0.6,0.5,0.6c0.2,0,0.3-0.1,0.5-0.2L455.5,159.1z"/>
				</g>
				<g class="st2">
					<path d="M458.8,156.1l-1.6,3.5c-0.3,0.6-0.6,0.8-1.1,0.8c-0.3,0-0.6-0.1-0.8-0.3l0.2-0.3c0.2,0.2,0.3,0.2,0.6,0.2
						c0.3,0,0.5-0.1,0.7-0.5l0.1-0.3l-1.4-3.2h0.4l1.2,2.7l1.2-2.7H458.8z"/>
				</g>
				<g class="st2">
					<path d="M427.8,163.4h-1.5V163h3.4v0.4h-1.5v3.8h-0.4V163.4z"/>
				</g>
				<g class="st2">
					<path d="M432.6,165.8H430c0,0.7,0.6,1.1,1.2,1.1c0.4,0,0.7-0.1,1-0.4l0.2,0.3c-0.3,0.3-0.7,0.5-1.2,0.5c-1,0-1.7-0.7-1.7-1.6
						s0.7-1.6,1.5-1.6c0.9,0,1.5,0.7,1.5,1.6C432.7,165.7,432.6,165.7,432.6,165.8z M430,165.5h2.2c-0.1-0.6-0.5-1.1-1.1-1.1
						C430.5,164.4,430,164.8,430,165.5z"/>
					<path d="M433.1,166.9l0.2-0.3c0.3,0.2,0.7,0.4,1.1,0.4c0.6,0,0.9-0.2,0.9-0.5c0-0.8-2.1-0.2-2.1-1.4c0-0.5,0.4-0.9,1.3-0.9
						c0.4,0,0.9,0.1,1.1,0.3l-0.2,0.3c-0.3-0.2-0.6-0.3-0.9-0.3c-0.6,0-0.8,0.2-0.8,0.5c0,0.9,2.1,0.2,2.1,1.4
						c0,0.5-0.5,0.9-1.3,0.9C433.8,167.3,433.3,167.1,433.1,166.9z"/>
					<path d="M438.1,167c-0.2,0.2-0.4,0.2-0.7,0.2c-0.6,0-0.9-0.3-0.9-0.9v-1.9H436v-0.4h0.6v-0.7h0.4v0.7h1v0.4h-1v1.9
						c0,0.4,0.2,0.6,0.5,0.6c0.2,0,0.3-0.1,0.5-0.2L438.1,167z"/>
					<path d="M438.8,163.1c0-0.2,0.1-0.3,0.3-0.3s0.3,0.1,0.3,0.3c0,0.2-0.1,0.3-0.3,0.3C439,163.4,438.8,163.2,438.8,163.1z
						 M438.9,164.1h0.4v3.2h-0.4V164.1z"/>
					<path d="M443.4,165.4v1.8H443v-1.8c0-0.7-0.3-1-1-1c-0.7,0-1.1,0.4-1.1,1.1v1.7h-0.4v-3.2h0.4v0.6c0.2-0.4,0.7-0.6,1.2-0.6
						C442.9,164,443.4,164.5,443.4,165.4z"/>
					<path d="M447.6,164.1v2.8c0,1.1-0.5,1.6-1.6,1.6c-0.6,0-1.1-0.2-1.5-0.5l0.2-0.3c0.3,0.3,0.8,0.4,1.2,0.4
						c0.8,0,1.2-0.4,1.2-1.2v-0.4c-0.3,0.4-0.7,0.6-1.2,0.6c-0.9,0-1.6-0.6-1.6-1.5s0.7-1.5,1.6-1.5c0.5,0,1,0.2,1.3,0.6v-0.6H447.6
						z M447.1,165.6c0-0.7-0.5-1.2-1.2-1.2s-1.2,0.5-1.2,1.2c0,0.7,0.5,1.2,1.2,1.2S447.1,166.3,447.1,165.6z"/>
				</g>
				<g class="st2">
					<path d="M427.3,174.1h-2.4l-0.5,1.1H424l1.9-4.2h0.4l1.9,4.2h-0.5L427.3,174.1z M427.1,173.7l-1-2.3l-1,2.3H427.1z"/>
					<path d="M432.1,173.6c0,1-0.7,1.6-1.6,1.6c-0.5,0-0.9-0.2-1.2-0.6v1.8h-0.4V172h0.4v0.6c0.3-0.4,0.7-0.7,1.2-0.7
						C431.4,172,432.1,172.7,432.1,173.6z M431.7,173.6c0-0.7-0.5-1.2-1.2-1.2c-0.7,0-1.2,0.5-1.2,1.2c0,0.7,0.5,1.2,1.2,1.2
						C431.1,174.9,431.7,174.4,431.7,173.6z"/>
					<path d="M436.2,173.6c0,1-0.7,1.6-1.6,1.6c-0.5,0-0.9-0.2-1.2-0.6v1.8H433V172h0.4v0.6c0.3-0.4,0.7-0.7,1.2-0.7
						C435.5,172,436.2,172.7,436.2,173.6z M435.7,173.6c0-0.7-0.5-1.2-1.2-1.2c-0.7,0-1.2,0.5-1.2,1.2c0,0.7,0.5,1.2,1.2,1.2
						C435.2,174.9,435.7,174.4,435.7,173.6z"/>
				</g>
				<g class="st2">
					<path d="M438.4,172v0.4c0,0-0.1,0-0.1,0c-0.7,0-1.1,0.4-1.1,1.2v1.6h-0.4V172h0.4v0.6C437.4,172.2,437.8,172,438.4,172z"/>
					<path d="M438.8,173.6c0-0.9,0.7-1.6,1.6-1.6c0.9,0,1.6,0.7,1.6,1.6s-0.7,1.6-1.6,1.6C439.5,175.2,438.8,174.6,438.8,173.6z
						 M441.6,173.6c0-0.7-0.5-1.2-1.2-1.2c-0.7,0-1.2,0.5-1.2,1.2s0.5,1.2,1.2,1.2C441.1,174.9,441.6,174.4,441.6,173.6z"/>
					<path d="M445.5,172l-1.4,3.2h-0.4l-1.4-3.2h0.4l1.2,2.7l1.2-2.7H445.5z"/>
				</g>
				<g class="st2">
					<path d="M447.9,173.2v2h-0.4v-0.5c-0.2,0.3-0.6,0.5-1.1,0.5c-0.7,0-1.2-0.4-1.2-0.9c0-0.5,0.3-0.9,1.2-0.9h1v-0.2
						c0-0.5-0.3-0.8-0.9-0.8c-0.4,0-0.8,0.1-1.1,0.4l-0.2-0.3c0.3-0.3,0.8-0.4,1.3-0.4C447.5,172,447.9,172.4,447.9,173.2z
						 M447.5,174.2v-0.5h-1c-0.6,0-0.8,0.2-0.8,0.6c0,0.4,0.3,0.6,0.8,0.6C447,174.9,447.3,174.7,447.5,174.2z"/>
					<path d="M449.1,170.7h0.4v4.5h-0.4V170.7z"/>
				</g>
				<g class="st2">
					<path d="M413.2,140.7h1.8v6.2h3.8v1.4h-5.6V140.7z"/>
				</g>
				<g class="st2">
					<path d="M424.9,146.7h-3.6l-0.7,1.6h-1.8l3.4-7.7h1.8l3.4,7.7h-1.9L424.9,146.7z M424.4,145.4l-1.2-2.9l-1.2,2.9H424.4z"/>
				</g>
				<g class="st2">
					<path d="M428,145v-4.3h1.8v4.2c0,1.5,0.6,2.1,1.7,2.1c1.1,0,1.7-0.6,1.7-2.1v-4.2h1.8v4.3c0,2.3-1.3,3.5-3.5,3.5
						C429.3,148.5,428,147.3,428,145z"/>
					<path d="M443.8,140.7v7.7h-1.5l-3.8-4.7v4.7h-1.8v-7.7h1.5l3.8,4.7v-4.7H443.8z"/>
					<path d="M445.1,144.6c0-2.3,1.8-4,4.2-4c1.3,0,2.4,0.5,3.2,1.4l-1.1,1.1c-0.5-0.6-1.2-0.9-1.9-0.9c-1.4,0-2.5,1-2.5,2.5
						c0,1.4,1,2.5,2.5,2.5c0.8,0,1.4-0.3,1.9-0.9l1.1,1.1c-0.7,0.9-1.8,1.4-3.2,1.4C446.9,148.5,445.1,146.9,445.1,144.6z"/>
					<path d="M460.7,140.7v7.7h-1.8v-3.1h-3.5v3.1h-1.8v-7.7h1.8v3h3.5v-3H460.7z"/>
				</g>
			</g>
			<g>
				<g>
					<path d="M448.9,87.2l1.8-1.8l1.6,1.6l1.6-1.6l-4.9-4.9l-1.6,1.7l1.6,1.6l-2,2c-2-1.4-4.3-2.4-6.7-2.9v-2.8h2.3v-2.3h-11.6v2.3
						h2.3v2.8c-2.4,0.5-4.7,1.5-6.7,2.9l-2-2l1.7-1.6l-1.6-1.6l-4.9,4.9l1.6,1.6l1.6-1.6l1.8,1.8c-7,6.6-7.3,17.7-0.6,24.6
						c6.6,7,17.7,7.3,24.6,0.6c7-6.6,7.3-17.7,0.6-24.6C449.4,87.7,449.2,87.5,448.9,87.2z M435.8,80.1h2.3v2.4c-0.4,0-0.8,0-1.2,0
						s-0.8,0-1.2,0V80.1z M436.9,115.1c-8.4,0-15.2-6.7-15.2-15.1c0-8.4,6.7-15.2,15.1-15.2c8.4,0,15.2,6.7,15.2,15.1
						C452.1,108.3,445.3,115.1,436.9,115.1L436.9,115.1z"/>
				</g>
				<g>
					<path d="M438.1,96.6v-9.4h-2.3v9.5c-1.8,0.7-2.7,2.7-2.1,4.5c0.7,1.8,2.7,2.7,4.5,2.1c1.8-0.7,2.7-2.7,2.1-4.5
						C439.9,97.7,439.1,97,438.1,96.6z M436.9,101.1c-0.6,0-1.2-0.5-1.2-1.2s0.5-1.2,1.2-1.2s1.2,0.5,1.2,1.2
						S437.6,101.1,436.9,101.1C436.9,101.1,436.9,101.1,436.9,101.1z"/>
				</g>
				<g>
					<path d="M435.8,110.4h2.3v2.3h-2.3V110.4z"/>
				</g>
				<g>
					<path d="M424.2,98.7h2.3v2.3h-2.3V98.7z"/>
				</g>
				<g>
					<path d="M447.4,98.7h2.3v2.3h-2.3V98.7z"/>
				</g>
				<g>
					<path d="M428.7,109.8l-1.6-1.6l1.6-1.6l1.6,1.6L428.7,109.8z"/>
				</g>
				<g>
					<path d="M445.2,93.3l-1.6-1.6l1.6-1.6l1.6,1.6L445.2,93.3z"/>
				</g>
				<g>
					<path d="M445.2,109.8l-1.6-1.6l1.6-1.6l1.6,1.6L445.2,109.8z"/>
				</g>
				<g>
					<path d="M428.7,93.3l-1.6-1.6l1.6-1.6l1.6,1.6L428.7,93.3z"/>
				</g>
			</g>
			<g class="st2">
				<path d="M397.6,129.4c0-3.7,2.1-5.9,4.9-5.9c2.8,0,4.9,2.1,4.9,5.9c0,3.7-2.1,5.9-4.9,5.9C399.7,135.2,397.6,133.1,397.6,129.4z
					 M404.7,129.4c0-2.6-0.9-3.6-2.2-3.6c-1.3,0-2.2,1.1-2.2,3.6s0.9,3.6,2.2,3.6C403.8,133,404.7,132,404.7,129.4z"/>
			</g>
			<g class="st2">
				<path d="M418.9,132.7h-1.8v2.4h-2.6v-2.4h-6.1v-1.8l5.3-7.2h2.8l-5,6.8h3v-2.1h2.5v2.1h1.8V132.7z"/>
			</g>
			<g class="st2">
				<path d="M420,133.6c0-0.9,0.7-1.6,1.6-1.6s1.6,0.6,1.6,1.6c0,0.9-0.7,1.6-1.6,1.6S420,134.5,420,133.6z"/>
			</g>
		</g>
	</g>
	<g>
		<g>
			<g>
				<g class="st2">
					<path d="M546.9,226.2l0.2-0.3c0.3,0.3,0.8,0.5,1.4,0.5c0.8,0,1.1-0.3,1.1-0.7c0-1.2-2.6-0.4-2.6-2c0-0.6,0.5-1.2,1.6-1.2
						c0.5,0,1,0.1,1.3,0.4l-0.2,0.4c-0.4-0.2-0.8-0.3-1.2-0.3c-0.8,0-1.1,0.3-1.1,0.8c0,1.2,2.6,0.5,2.6,2c0,0.6-0.5,1.2-1.6,1.2
						C547.8,226.8,547.2,226.6,546.9,226.2z"/>
					<path d="M553.8,223.6v3.2h-0.4v-0.6c-0.2,0.4-0.6,0.6-1.1,0.6c-0.8,0-1.3-0.5-1.3-1.4v-1.8h0.4v1.8c0,0.7,0.3,1,1,1
						c0.7,0,1.1-0.4,1.1-1.2v-1.7H553.8z"/>
					<path d="M558.2,225.2c0,1-0.7,1.6-1.6,1.6c-0.5,0-0.9-0.2-1.2-0.6v1.8H555v-4.3h0.4v0.6c0.3-0.4,0.7-0.7,1.2-0.7
						C557.5,223.6,558.2,224.2,558.2,225.2z M557.8,225.2c0-0.7-0.5-1.2-1.2-1.2c-0.7,0-1.2,0.5-1.2,1.2c0,0.7,0.5,1.2,1.2,1.2
						C557.2,226.4,557.8,225.9,557.8,225.2z"/>
					<path d="M562.3,225.2c0,1-0.7,1.6-1.6,1.6c-0.5,0-0.9-0.2-1.2-0.6v1.8h-0.4v-4.3h0.4v0.6c0.3-0.4,0.7-0.7,1.2-0.7
						C561.6,223.6,562.3,224.2,562.3,225.2z M561.8,225.2c0-0.7-0.5-1.2-1.2-1.2c-0.7,0-1.2,0.5-1.2,1.2c0,0.7,0.5,1.2,1.2,1.2
						C561.3,226.4,561.8,225.9,561.8,225.2z"/>
					<path d="M562.8,225.2c0-0.9,0.7-1.6,1.6-1.6c0.9,0,1.6,0.7,1.6,1.6s-0.7,1.6-1.6,1.6C563.5,226.8,562.8,226.1,562.8,225.2z
						 M565.6,225.2c0-0.7-0.5-1.2-1.2-1.2s-1.2,0.5-1.2,1.2s0.5,1.2,1.2,1.2S565.6,225.9,565.6,225.2z"/>
				</g>
				<g class="st2">
					<path d="M568.2,223.6v0.4c0,0-0.1,0-0.1,0c-0.7,0-1.1,0.4-1.1,1.2v1.6h-0.4v-3.2h0.4v0.6C567.2,223.8,567.6,223.6,568.2,223.6z
						"/>
				</g>
				<g class="st2">
					<path d="M570.7,226.6c-0.2,0.2-0.4,0.2-0.7,0.2c-0.6,0-0.9-0.3-0.9-0.9V224h-0.6v-0.4h0.6v-0.7h0.4v0.7h1v0.4h-1v1.9
						c0,0.4,0.2,0.6,0.5,0.6c0.2,0,0.3-0.1,0.5-0.2L570.7,226.6z"/>
				</g>
				<g class="st2">
					<path d="M529.7,230.5v4.2h-0.4l-2.7-3.4v3.4h-0.4v-4.2h0.4l2.7,3.4v-3.4H529.7z"/>
				</g>
				<g class="st2">
					<path d="M533.8,233.3h-2.7c0,0.7,0.6,1.1,1.2,1.1c0.4,0,0.7-0.1,1-0.4l0.2,0.3c-0.3,0.3-0.7,0.5-1.2,0.5c-1,0-1.7-0.7-1.7-1.6
						s0.7-1.6,1.5-1.6c0.9,0,1.5,0.7,1.5,1.6C533.8,233.2,533.8,233.2,533.8,233.3z M531.2,232.9h2.2c-0.1-0.6-0.5-1.1-1.1-1.1
						C531.7,231.9,531.2,232.3,531.2,232.9z"/>
				</g>
				<g class="st2">
					<path d="M539.2,231.5l-1.2,3.2h-0.4l-1-2.6l-1,2.6h-0.4l-1.2-3.2h0.4l1,2.7l1-2.7h0.4l1,2.7l1-2.7H539.2z"/>
					<path d="M541.5,230.5h0.4v4.2h-0.4V230.5z"/>
					<path d="M548.4,232.9v1.8H548v-1.8c0-0.7-0.3-1-0.9-1c-0.7,0-1.1,0.4-1.1,1.1v1.7h-0.4v-1.8c0-0.7-0.3-1-0.9-1
						c-0.6,0-1.1,0.4-1.1,1.1v1.7h-0.4v-3.2h0.4v0.6c0.2-0.4,0.6-0.6,1.2-0.6c0.5,0,0.9,0.2,1.1,0.7c0.2-0.4,0.7-0.7,1.3-0.7
						C547.9,231.5,548.4,232,548.4,232.9z"/>
					<path d="M552.8,233.1c0,1-0.7,1.6-1.6,1.6c-0.5,0-0.9-0.2-1.2-0.6v1.8h-0.4v-4.3h0.4v0.6c0.3-0.4,0.7-0.7,1.2-0.7
						C552.1,231.5,552.8,232.2,552.8,233.1z M552.4,233.1c0-0.7-0.5-1.2-1.2-1.2c-0.7,0-1.2,0.5-1.2,1.2c0,0.7,0.5,1.2,1.2,1.2
						C551.9,234.4,552.4,233.9,552.4,233.1z"/>
					<path d="M553.7,230.2h0.4v4.5h-0.4V230.2z"/>
					<path d="M558.1,233.3h-2.7c0,0.7,0.6,1.1,1.2,1.1c0.4,0,0.7-0.1,1-0.4l0.2,0.3c-0.3,0.3-0.7,0.5-1.2,0.5c-1,0-1.7-0.7-1.7-1.6
						s0.7-1.6,1.5-1.6c0.9,0,1.5,0.7,1.5,1.6C558.1,233.2,558.1,233.2,558.1,233.3z M555.4,232.9h2.2c-0.1-0.6-0.5-1.1-1.1-1.1
						C555.9,231.9,555.5,232.3,555.4,232.9z"/>
					<path d="M564.2,232.9v1.8h-0.4v-1.8c0-0.7-0.3-1-0.9-1c-0.7,0-1.1,0.4-1.1,1.1v1.7h-0.4v-1.8c0-0.7-0.3-1-0.9-1
						c-0.6,0-1.1,0.4-1.1,1.1v1.7h-0.4v-3.2h0.4v0.6c0.2-0.4,0.6-0.6,1.2-0.6c0.5,0,0.9,0.2,1.1,0.7c0.2-0.4,0.7-0.7,1.3-0.7
						C563.7,231.5,564.2,232,564.2,232.9z"/>
					<path d="M568.1,233.3h-2.7c0,0.7,0.6,1.1,1.2,1.1c0.4,0,0.7-0.1,1-0.4l0.2,0.3c-0.3,0.3-0.7,0.5-1.2,0.5c-1,0-1.7-0.7-1.7-1.6
						s0.7-1.6,1.5-1.6c0.9,0,1.5,0.7,1.5,1.6C568.1,233.2,568.1,233.2,568.1,233.3z M565.4,232.9h2.2c-0.1-0.6-0.5-1.1-1.1-1.1
						C565.9,231.9,565.5,232.3,565.4,232.9z"/>
					<path d="M571.9,232.9v1.8h-0.4v-1.8c0-0.7-0.3-1-1-1c-0.7,0-1.1,0.4-1.1,1.1v1.7H569v-3.2h0.4v0.6c0.2-0.4,0.7-0.6,1.2-0.6
						C571.3,231.5,571.9,232,571.9,232.9z"/>
					<path d="M574.7,234.5c-0.2,0.2-0.4,0.2-0.7,0.2c-0.6,0-0.9-0.3-0.9-0.9v-1.9h-0.6v-0.4h0.6v-0.7h0.4v0.7h1v0.4h-1v1.9
						c0,0.4,0.2,0.6,0.5,0.6c0.2,0,0.3-0.1,0.5-0.2L574.7,234.5z"/>
					<path d="M577.9,232.8v2h-0.4v-0.5c-0.2,0.3-0.6,0.5-1.1,0.5c-0.7,0-1.2-0.4-1.2-0.9c0-0.5,0.3-0.9,1.2-0.9h1v-0.2
						c0-0.5-0.3-0.8-0.9-0.8c-0.4,0-0.8,0.1-1.1,0.4l-0.2-0.3c0.3-0.3,0.8-0.4,1.3-0.4C577.4,231.5,577.9,231.9,577.9,232.8z
						 M577.4,233.8v-0.5h-1c-0.6,0-0.8,0.2-0.8,0.6c0,0.4,0.3,0.6,0.8,0.6C576.9,234.4,577.3,234.2,577.4,233.8z"/>
					<path d="M580.7,234.5c-0.2,0.2-0.4,0.2-0.7,0.2c-0.6,0-0.9-0.3-0.9-0.9v-1.9h-0.6v-0.4h0.6v-0.7h0.4v0.7h1v0.4h-1v1.9
						c0,0.4,0.2,0.6,0.5,0.6c0.2,0,0.3-0.1,0.5-0.2L580.7,234.5z"/>
					<path d="M581.4,230.5c0-0.2,0.1-0.3,0.3-0.3s0.3,0.1,0.3,0.3c0,0.2-0.1,0.3-0.3,0.3C581.5,230.9,581.4,230.7,581.4,230.5z
						 M581.5,231.5h0.4v3.2h-0.4V231.5z"/>
					<path d="M582.8,233.1c0-0.9,0.7-1.6,1.6-1.6c0.9,0,1.6,0.7,1.6,1.6s-0.7,1.6-1.6,1.6C583.5,234.8,582.8,234.1,582.8,233.1z
						 M585.6,233.1c0-0.7-0.5-1.2-1.2-1.2c-0.7,0-1.2,0.5-1.2,1.2s0.5,1.2,1.2,1.2C585.1,234.4,585.6,233.9,585.6,233.1z"/>
					<path d="M589.8,232.9v1.8h-0.4v-1.8c0-0.7-0.3-1-1-1c-0.7,0-1.1,0.4-1.1,1.1v1.7h-0.4v-3.2h0.4v0.6c0.2-0.4,0.7-0.6,1.2-0.6
						C589.3,231.5,589.8,232,589.8,232.9z"/>
					<path d="M590.5,234.4l0.2-0.3c0.3,0.2,0.7,0.4,1.1,0.4c0.6,0,0.9-0.2,0.9-0.5c0-0.8-2.1-0.2-2.1-1.4c0-0.5,0.4-0.9,1.3-0.9
						c0.4,0,0.9,0.1,1.1,0.3l-0.2,0.3c-0.3-0.2-0.6-0.3-0.9-0.3c-0.6,0-0.8,0.2-0.8,0.5c0,0.9,2.1,0.2,2.1,1.4
						c0,0.5-0.5,0.9-1.3,0.9C591.3,234.8,590.8,234.6,590.5,234.4z"/>
				</g>
				<g class="st2">
					<path d="M551.4,238.5v4.2h-0.4v-3.4l-1.7,2.8h-0.2l-1.7-2.8v3.4H547v-4.2h0.4l1.8,3.1l1.8-3.1H551.4z"/>
					<path d="M552.3,241.1c0-0.9,0.7-1.6,1.6-1.6c0.9,0,1.6,0.7,1.6,1.6s-0.7,1.6-1.6,1.6C553,242.7,552.3,242,552.3,241.1z
						 M555.1,241.1c0-0.7-0.5-1.2-1.2-1.2s-1.2,0.5-1.2,1.2s0.5,1.2,1.2,1.2S555.1,241.8,555.1,241.1z"/>
					<path d="M559.3,238.2v4.5h-0.4v-0.6c-0.3,0.4-0.7,0.7-1.2,0.7c-0.9,0-1.6-0.7-1.6-1.6c0-1,0.7-1.6,1.6-1.6
						c0.5,0,0.9,0.2,1.2,0.6v-1.9H559.3z M558.9,241.1c0-0.7-0.5-1.2-1.2-1.2c-0.7,0-1.2,0.5-1.2,1.2s0.5,1.2,1.2,1.2
						C558.4,242.3,558.9,241.8,558.9,241.1z"/>
					<path d="M563.4,239.5v3.2h-0.4v-0.6c-0.2,0.4-0.6,0.6-1.1,0.6c-0.8,0-1.3-0.5-1.3-1.4v-1.8h0.4v1.8c0,0.7,0.3,1,1,1
						c0.7,0,1.1-0.4,1.1-1.2v-1.7H563.4z"/>
					<path d="M564.6,238.2h0.4v4.5h-0.4V238.2z"/>
					<path d="M568.6,240.7v2h-0.4v-0.5c-0.2,0.3-0.6,0.5-1.1,0.5c-0.7,0-1.2-0.4-1.2-0.9c0-0.5,0.3-0.9,1.2-0.9h1v-0.2
						c0-0.5-0.3-0.8-0.9-0.8c-0.4,0-0.8,0.1-1.1,0.4l-0.2-0.3c0.3-0.3,0.8-0.4,1.3-0.4C568.1,239.5,568.6,239.9,568.6,240.7z
						 M568.1,241.7v-0.5h-1c-0.6,0-0.8,0.2-0.8,0.6c0,0.4,0.3,0.6,0.8,0.6C567.6,242.4,568,242.1,568.1,241.7z"/>
					<path d="M571.3,239.5v0.4c0,0-0.1,0-0.1,0c-0.7,0-1.1,0.4-1.1,1.2v1.6h-0.4v-3.2h0.4v0.6C570.3,239.7,570.7,239.5,571.3,239.5z
						"/>
				</g>
				<g class="st2">
					<path d="M523.1,215.9l0-4.6l-2.3,3.8H520l-2.2-3.7v4.5h-1.7v-7.7h1.5l2.9,4.8l2.8-4.8h1.5l0,7.7H523.1z"/>
					<path d="M531.6,214.2h-3.6l-0.7,1.6h-1.8l3.4-7.7h1.8l3.4,7.7h-1.9L531.6,214.2z M531.1,212.9l-1.2-2.9l-1.2,2.9H531.1z"/>
					<path d="M535,208.2h1.8v7.7H535V208.2z"/>
					<path d="M545.6,208.2v7.7h-1.5l-3.8-4.7v4.7h-1.8v-7.7h1.5l3.8,4.7v-4.7H545.6z"/>
					<path d="M549,209.6h-2.5v-1.4h6.7v1.4h-2.5v6.2H549V209.6z"/>
					<path d="M560.1,214.4v1.4h-5.9v-7.7h5.8v1.4h-4v1.7h3.6v1.4h-3.6v1.8H560.1z"/>
					<path d="M568.6,208.2v7.7h-1.5l-3.8-4.7v4.7h-1.8v-7.7h1.5l3.8,4.7v-4.7H568.6z"/>
					<path d="M575.4,214.2h-3.6l-0.7,1.6h-1.8l3.4-7.7h1.8l3.4,7.7h-1.9L575.4,214.2z M574.9,212.9l-1.2-2.9l-1.2,2.9H574.9z"/>
					<path d="M585.8,208.2v7.7h-1.5l-3.8-4.7v4.7h-1.8v-7.7h1.5l3.8,4.7v-4.7H585.8z"/>
					<path d="M587.2,212c0-2.3,1.8-4,4.2-4c1.3,0,2.4,0.5,3.2,1.4l-1.1,1.1c-0.5-0.6-1.2-0.9-1.9-0.9c-1.4,0-2.5,1-2.5,2.5
						c0,1.4,1,2.5,2.5,2.5c0.8,0,1.4-0.3,1.9-0.9l1.1,1.1c-0.7,0.9-1.8,1.4-3.2,1.4C588.9,216,587.2,214.3,587.2,212z"/>
					<path d="M601.6,214.4v1.4h-5.9v-7.7h5.8v1.4h-4v1.7h3.6v1.4h-3.6v1.8H601.6z"/>
				</g>
			</g>
			<g>
				<g>
					<path d="M556.5,158.8c1.3-1.2,1.4-3.3,0.2-4.6c-0.2-0.3-0.5-0.5-0.8-0.6l2.3-4.8h-12l2.3,4.8c-1.6,0.8-2.2,2.8-1.3,4.4
						c0.2,0.3,0.4,0.6,0.6,0.8c-5.8,4.4-7.5,11.5-7.5,18.8v5.7h19.3v2.1H577v-21.5h-16C559.9,161.9,558.3,160.2,556.5,158.8z
						 M550,157.5c-0.6,0-1.1-0.5-1.1-1.1s0.5-1.1,1.1-1.1h4.3c0.6,0,1.1,0.5,1.1,1.1s-0.5,1.1-1.1,1.1H550z M554.7,150.9l-1.1,2.3
						h-3l-1.1-2.3L554.7,150.9L554.7,150.9z M542.5,181.2v-3.6c0-8.8,2.6-14.6,7.8-17.9h3.7c2.5,1.5,4.5,3.8,5.7,6.4v15.1H542.5z
						 M574.9,183.3h-13V179h13V183.3z M561.9,176.9v-4.3h13v4.3H561.9z M574.9,166.1v4.3h-13v-4.3H574.9z"/>
				</g>
				<g>
					<path d="M552.1,169.3c0.6,0,1.1,0.5,1.1,1.1h2.1c0-1.4-0.9-2.5-2.2-3v-1.3H551v1.3c-1.7,0.6-2.6,2.4-2,4.1
						c0.5,1.3,1.7,2.2,3,2.2c0.6,0,1.1,0.5,1.1,1.1s-0.5,1.1-1.1,1.1s-1.1-0.5-1.1-1.1h-2.2c0,1.4,0.9,2.5,2.2,3v1.3h2.2v-1.3
						c1.7-0.6,2.6-2.4,2-4.1c-0.5-1.3-1.7-2.2-3-2.2c-0.6,0-1.1-0.5-1.1-1.1C551.1,169.8,551.6,169.3,552.1,169.3z"/>
				</g>
			</g>
			<g class="st2">
				<path d="M520.3,197.9c0-3.7,2.1-5.9,4.9-5.9c2.8,0,4.9,2.1,4.9,5.9c0,3.7-2.1,5.9-4.9,5.9C522.4,203.8,520.3,201.7,520.3,197.9z
					 M527.4,197.9c0-2.6-0.9-3.6-2.2-3.6c-1.3,0-2.2,1.1-2.2,3.6s0.9,3.6,2.2,3.6C526.5,201.6,527.4,200.5,527.4,197.9z"/>
				<path d="M539.8,200c0,2-1.5,3.8-4.7,3.8c-1.6,0-3.2-0.4-4.3-1.2l1-2c0.9,0.6,2,1,3.2,1c1.3,0,2.1-0.5,2.1-1.5
					c0-0.9-0.6-1.5-2.6-1.5h-2.9l0.6-6.4h6.9v2.1h-4.7l-0.2,2.2h0.9C538.5,196.5,539.8,198,539.8,200z"/>
				<path d="M540.8,202.1c0-0.9,0.7-1.6,1.6-1.6s1.6,0.6,1.6,1.6c0,0.9-0.7,1.6-1.6,1.6S540.8,203.1,540.8,202.1z"/>
			</g>
		</g>
	</g>
	<g>
		<g class="st2">
			<path d="M299.9,57.9c0,4.1-3.1,7.8-10,7.8c-3.4,0-6.9-0.9-9.2-2.6l2.2-4.3c1.8,1.4,4.4,2.2,6.9,2.2c2.8,0,4.5-1.1,4.5-3.1
				c0-1.8-1.3-3-4.5-3h-2.6v-3.7l5-5.6h-10.3V41h17v3.6l-5.5,6.2C297.6,51.6,299.9,54.3,299.9,57.9z"/>
			<path d="M320.4,57.7c0,4.3-3.1,8-10.1,8c-3.4,0-6.9-0.9-9.2-2.6l2.2-4.3c1.8,1.4,4.4,2.2,6.9,2.2c2.8,0,4.5-1.2,4.5-3.1
				c0-1.9-1.2-3.1-5.6-3.1h-6.2l1.2-13.6h14.8v4.5h-10.1l-0.4,4.6h2C317.6,50.1,320.4,53.4,320.4,57.7z"/>
		</g>
		<g class="st2">
			<path d="M321.9,47.4c0-4.1,2.5-6.7,6-6.7c3.5,0,6,2.6,6,6.7s-2.5,6.7-6,6.7C324.4,54.1,321.9,51.5,321.9,47.4z M330.5,47.4
				c0-2.6-1-3.8-2.5-3.8c-1.5,0-2.5,1.3-2.5,3.8c0,2.6,1,3.8,2.5,3.8C329.5,51.3,330.5,50,330.5,47.4z M342.4,41h4.1L330,65.3h-4.1
				L342.4,41z M338.4,58.9c0-4.1,2.5-6.7,6-6.7c3.5,0,6,2.6,6,6.7s-2.5,6.7-6,6.7C340.9,65.5,338.4,63,338.4,58.9z M346.9,58.9
				c0-2.6-1-3.8-2.5-3.8c-1.5,0-2.5,1.2-2.5,3.8s1,3.8,2.5,3.8C345.9,62.7,346.9,61.4,346.9,58.9z"/>
		</g>
		<g class="st2">
			<path d="M287.2,73.9h1.9v8.4h-1.9V73.9z"/>
			<path d="M298.9,73.9v8.4h-1.6l-4.2-5.1v5.1h-1.9v-8.4h1.6l4.2,5.1v-5.1H298.9z"/>
			<path d="M308.6,73.9v8.4h-1.9v-3.4h-3.8v3.4h-1.9v-8.4h1.9v3.3h3.8v-3.3H308.6z"/>
			<path d="M310,78.1c0-2.5,1.9-4.3,4.6-4.3c2.6,0,4.6,1.8,4.6,4.3c0,2.5-2,4.3-4.6,4.3C312,82.4,310,80.6,310,78.1z M317.2,78.1
				c0-1.6-1.1-2.7-2.6-2.7c-1.5,0-2.6,1.1-2.6,2.7c0,1.6,1.1,2.7,2.6,2.7C316.1,80.8,317.2,79.7,317.2,78.1z"/>
			<path d="M320.6,78.6v-4.7h1.9v4.6c0,1.6,0.7,2.3,1.9,2.3c1.2,0,1.9-0.7,1.9-2.3v-4.6h1.9v4.7c0,2.5-1.4,3.8-3.8,3.8
				S320.6,81.1,320.6,78.6z"/>
			<path d="M329.5,81.5l0.7-1.5c0.7,0.5,1.8,0.9,2.8,0.9c1.2,0,1.6-0.4,1.6-0.9c0-1.6-4.9-0.5-4.9-3.6c0-1.4,1.2-2.6,3.5-2.6
				c1.1,0,2.1,0.3,2.9,0.7l-0.6,1.5c-0.8-0.4-1.6-0.7-2.3-0.7c-1.2,0-1.6,0.4-1.6,1c0,1.5,4.9,0.5,4.9,3.6c0,1.4-1.2,2.6-3.6,2.6
				C331.6,82.4,330.2,82,329.5,81.5z"/>
			<path d="M344.3,80.7v1.6h-6.5v-8.4h6.3v1.6h-4.4v1.8h3.9v1.5h-3.9v1.9H344.3z"/>
		</g>
		<g class="st2">
			<path d="M300.5,87.9c0,1.9-1.4,3-3.6,3h-1.7v2.3h-1.9v-8.4h3.6C299.1,84.9,300.5,86.1,300.5,87.9z M298.5,87.9
				c0-0.9-0.6-1.5-1.8-1.5h-1.6v2.9h1.6C297.9,89.4,298.5,88.9,298.5,87.9z"/>
		</g>
		<g class="st2">
			<path d="M307.2,93.3l-1.6-2.3h-0.1h-1.7v2.3h-1.9v-8.4h3.6c2.2,0,3.6,1.2,3.6,3c0,1.3-0.6,2.2-1.7,2.7l1.9,2.7H307.2z
				 M305.4,86.5h-1.6v2.9h1.6c1.2,0,1.8-0.6,1.8-1.5C307.2,87,306.6,86.5,305.4,86.5z"/>
			<path d="M310.2,89.1c0-2.5,1.9-4.3,4.6-4.3c2.6,0,4.6,1.8,4.6,4.3c0,2.5-2,4.3-4.6,4.3C312.1,93.4,310.2,91.6,310.2,89.1z
				 M317.4,89.1c0-1.6-1.1-2.7-2.6-2.7c-1.5,0-2.6,1.1-2.6,2.7c0,1.6,1.1,2.7,2.6,2.7C316.3,91.8,317.4,90.7,317.4,89.1z"/>
			<path d="M322.8,86.5v2.2h3.9v1.6h-3.9v3.1h-1.9v-8.4h6.3v1.6H322.8z"/>
			<path d="M328.5,84.9h1.9v8.4h-1.9V84.9z"/>
			<path d="M334.2,86.5h-2.7v-1.6h7.3v1.6h-2.7v6.8h-1.9V86.5z"/>
		</g>
		<g class="st2">
			<path d="M281.9,95.9h1.9v8.4h-1.9V95.9z"/>
			<path d="M293.6,95.9v8.4H292l-4.2-5.1v5.1h-1.9v-8.4h1.6l4.2,5.1v-5.1H293.6z"/>
			<path d="M303.3,95.9v8.4h-1.6l-4.2-5.1v5.1h-1.9v-8.4h1.6l4.2,5.1v-5.1H303.3z"/>
			<path d="M304.7,100.1c0-2.5,1.9-4.3,4.6-4.3c2.6,0,4.6,1.8,4.6,4.3c0,2.5-2,4.3-4.6,4.3C306.7,104.4,304.7,102.6,304.7,100.1z
				 M312,100.1c0-1.6-1.1-2.7-2.6-2.7c-1.5,0-2.6,1.1-2.6,2.7c0,1.6,1.1,2.7,2.6,2.7C310.8,102.8,312,101.7,312,100.1z"/>
			<path d="M314.9,100.1c0-2.5,1.9-4.3,4.6-4.3c1.5,0,2.7,0.5,3.5,1.5l-1.2,1.2c-0.6-0.6-1.3-1-2.1-1c-1.6,0-2.7,1.1-2.7,2.7
				c0,1.6,1.1,2.7,2.7,2.7c0.8,0,1.5-0.3,2.1-1l1.2,1.2c-0.8,1-2,1.5-3.5,1.5C316.8,104.4,314.9,102.6,314.9,100.1z"/>
			<path d="M330.7,102.7v1.6h-6.5v-8.4h6.3v1.6h-4.4v1.8h3.9v1.5h-3.9v1.9H330.7z"/>
			<path d="M337.8,102.5h-3.9l-0.7,1.8h-2l3.7-8.4h1.9l3.8,8.4h-2L337.8,102.5z M337.2,101l-1.3-3.2l-1.3,3.2H337.2z"/>
			<path d="M349.1,95.9v8.4h-1.6l-4.2-5.1v5.1h-1.9v-8.4h1.6l4.2,5.1v-5.1H349.1z"/>
		</g>
	</g>
	<g>
		<g>
			<g class="st2">
				<path d="M397.1,246l0.6-1.3c0.6,0.5,1.6,0.8,2.5,0.8c1.1,0,1.5-0.4,1.5-0.8c0-1.4-4.5-0.4-4.5-3.3c0-1.3,1.1-2.4,3.2-2.4
					c1,0,2,0.2,2.7,0.7l-0.5,1.3c-0.7-0.4-1.4-0.6-2.1-0.6c-1.1,0-1.5,0.4-1.5,0.9c0,1.4,4.5,0.4,4.5,3.3c0,1.3-1.1,2.4-3.3,2.4
					C399.1,246.9,397.8,246.5,397.1,246z"/>
				<path d="M404.3,242.9c0-2.3,1.8-4,4.2-4c2.4,0,4.2,1.7,4.2,4c0,2.3-1.8,4-4.2,4C406,246.9,404.3,245.2,404.3,242.9z
					 M410.9,242.9c0-1.5-1-2.5-2.4-2.5c-1.4,0-2.4,1-2.4,2.5c0,1.5,1,2.5,2.4,2.5C409.8,245.4,410.9,244.4,410.9,242.9z"/>
				<path d="M413.5,242.9c0-2.3,1.8-4,4.2-4c1.3,0,2.4,0.5,3.2,1.4l-1.1,1.1c-0.5-0.6-1.2-0.9-1.9-0.9c-1.4,0-2.5,1-2.5,2.5
					c0,1.4,1,2.5,2.5,2.5c0.8,0,1.4-0.3,1.9-0.9l1.1,1.1c-0.7,0.9-1.8,1.4-3.2,1.4C415.3,246.9,413.5,245.2,413.5,242.9z"/>
				<path d="M422,239.1h1.8v7.7H422V239.1z"/>
				<path d="M430.7,245.1h-3.6l-0.7,1.6h-1.8l3.4-7.7h1.8l3.4,7.7h-1.9L430.7,245.1z M430.1,243.7l-1.2-2.9l-1.2,2.9H430.1z"/>
				<path d="M434,239.1h1.8v6.2h3.8v1.4H434V239.1z"/>
				<path d="M450.7,246.7l0-4.6l-2.3,3.8h-0.8l-2.2-3.7v4.5h-1.7v-7.7h1.5l2.9,4.8l2.8-4.8h1.5l0,7.7H450.7z"/>
				<path d="M460.1,245.3v1.4h-5.9v-7.7h5.8v1.4h-4v1.7h3.6v1.4H456v1.8H460.1z"/>
				<path d="M461.6,239.1h3.5c2.5,0,4.2,1.5,4.2,3.8c0,2.3-1.7,3.8-4.2,3.8h-3.5V239.1z M465,245.3c1.5,0,2.5-0.9,2.5-2.4
					c0-1.5-1-2.4-2.5-2.4h-1.6v4.8H465z"/>
				<path d="M470.6,239.1h1.8v7.7h-1.8V239.1z"/>
				<path d="M479.3,245.1h-3.6l-0.7,1.6h-1.8l3.4-7.7h1.8l3.4,7.7h-1.9L479.3,245.1z M478.7,243.7l-1.2-2.9l-1.2,2.9H478.7z"/>
			</g>
			<g>
				<g class="st2">
					<path d="M423.3,263.3v4.2h-0.4v-3.4l-1.7,2.8H421l-1.7-2.8v3.4h-0.4v-4.2h0.4l1.8,3.1l1.8-3.1H423.3z"/>
					<path d="M427,265.5v2h-0.4V267c-0.2,0.3-0.6,0.5-1.1,0.5c-0.7,0-1.2-0.4-1.2-0.9c0-0.5,0.3-0.9,1.2-0.9h1v-0.2
						c0-0.5-0.3-0.8-0.9-0.8c-0.4,0-0.8,0.1-1.1,0.4l-0.2-0.3c0.3-0.3,0.8-0.4,1.3-0.4C426.5,264.3,427,264.7,427,265.5z
						 M426.6,266.5V266h-1c-0.6,0-0.8,0.2-0.8,0.6c0,0.4,0.3,0.6,0.8,0.6C426,267.2,426.4,266.9,426.6,266.5z"/>
					<path d="M431.1,265.6v1.8h-0.4v-1.8c0-0.7-0.3-1-1-1c-0.7,0-1.1,0.4-1.1,1.1v1.7h-0.4v-3.2h0.4v0.6c0.2-0.4,0.7-0.6,1.2-0.6
						C430.5,264.3,431.1,264.7,431.1,265.6z"/>
					<path d="M434.6,265.5v2h-0.4V267c-0.2,0.3-0.6,0.5-1.1,0.5c-0.7,0-1.2-0.4-1.2-0.9c0-0.5,0.3-0.9,1.2-0.9h1v-0.2
						c0-0.5-0.3-0.8-0.9-0.8c-0.4,0-0.8,0.1-1.1,0.4l-0.2-0.3c0.3-0.3,0.8-0.4,1.3-0.4C434.1,264.3,434.6,264.7,434.6,265.5z
						 M434.2,266.5V266h-1c-0.6,0-0.8,0.2-0.8,0.6c0,0.4,0.3,0.6,0.8,0.6C433.7,267.2,434,266.9,434.2,266.5z"/>
					<path d="M438.7,264.3v2.8c0,1.1-0.5,1.6-1.6,1.6c-0.6,0-1.1-0.2-1.5-0.5l0.2-0.3c0.3,0.3,0.8,0.4,1.2,0.4
						c0.8,0,1.2-0.4,1.2-1.2v-0.4c-0.3,0.4-0.7,0.6-1.2,0.6c-0.9,0-1.6-0.6-1.6-1.5s0.7-1.5,1.6-1.5c0.5,0,1,0.2,1.3,0.6v-0.6H438.7
						z M438.3,265.8c0-0.7-0.5-1.2-1.2-1.2s-1.2,0.5-1.2,1.2c0,0.7,0.5,1.2,1.2,1.2S438.3,266.5,438.3,265.8z"/>
					<path d="M442.7,266H440c0,0.7,0.6,1.1,1.2,1.1c0.4,0,0.7-0.1,1-0.4l0.2,0.3c-0.3,0.3-0.7,0.5-1.2,0.5c-1,0-1.7-0.7-1.7-1.6
						s0.7-1.6,1.5-1.6c0.9,0,1.5,0.7,1.5,1.6C442.7,265.9,442.7,266,442.7,266z M440,265.7h2.2c-0.1-0.6-0.5-1.1-1.1-1.1
						C440.5,264.7,440.1,265.1,440,265.7z"/>
				</g>
				<g class="st2">
					<path d="M444.7,263.3h0.4v3.8h2.4v0.4h-2.8V263.3z"/>
				</g>
				<g class="st2">
					<path d="M450.8,266h-2.7c0,0.7,0.6,1.1,1.2,1.1c0.4,0,0.7-0.1,1-0.4l0.2,0.3c-0.3,0.3-0.7,0.5-1.2,0.5c-1,0-1.7-0.7-1.7-1.6
						s0.7-1.6,1.5-1.6c0.9,0,1.5,0.7,1.5,1.6C450.8,265.9,450.8,266,450.8,266z M448.2,265.7h2.2c-0.1-0.6-0.5-1.1-1.1-1.1
						C448.7,264.7,448.2,265.1,448.2,265.7z"/>
				</g>
				<g class="st2">
					<path d="M453.9,265.5v2h-0.4V267c-0.2,0.3-0.6,0.5-1.1,0.5c-0.7,0-1.2-0.4-1.2-0.9c0-0.5,0.3-0.9,1.2-0.9h1v-0.2
						c0-0.5-0.3-0.8-0.9-0.8c-0.4,0-0.8,0.1-1.1,0.4l-0.2-0.3c0.3-0.3,0.8-0.4,1.3-0.4C453.4,264.3,453.9,264.7,453.9,265.5z
						 M453.5,266.5V266h-1c-0.6,0-0.8,0.2-0.8,0.6c0,0.4,0.3,0.6,0.8,0.6C453,267.2,453.3,266.9,453.5,266.5z"/>
					<path d="M458,263v4.5h-0.4v-0.6c-0.3,0.4-0.7,0.7-1.2,0.7c-0.9,0-1.6-0.7-1.6-1.6c0-1,0.7-1.6,1.6-1.6c0.5,0,0.9,0.2,1.2,0.6
						V263H458z M457.6,265.9c0-0.7-0.5-1.2-1.2-1.2c-0.7,0-1.2,0.5-1.2,1.2s0.5,1.2,1.2,1.2C457,267.1,457.6,266.6,457.6,265.9z"/>
					<path d="M458.7,267.1l0.2-0.3c0.3,0.2,0.7,0.4,1.1,0.4c0.6,0,0.9-0.2,0.9-0.5c0-0.8-2.1-0.2-2.1-1.4c0-0.5,0.4-0.9,1.3-0.9
						c0.4,0,0.9,0.1,1.1,0.3l-0.2,0.3c-0.3-0.2-0.6-0.3-0.9-0.3c-0.6,0-0.8,0.2-0.8,0.5c0,0.9,2.1,0.2,2.1,1.4
						c0,0.5-0.5,0.9-1.3,0.9C459.5,267.5,459,267.3,458.7,267.1z"/>
				</g>
				<g class="st2">
					<path d="M412.8,279.2v4.2h-0.4V280l-1.7,2.8h-0.2l-1.7-2.8v3.4h-0.4v-4.2h0.4l1.8,3.1l1.8-3.1H412.8z"/>
					<path d="M416.4,281.4v2H416v-0.5c-0.2,0.3-0.6,0.5-1.1,0.5c-0.7,0-1.2-0.4-1.2-0.9c0-0.5,0.3-0.9,1.2-0.9h1v-0.2
						c0-0.5-0.3-0.8-0.9-0.8c-0.4,0-0.8,0.1-1.1,0.4l-0.2-0.3c0.3-0.3,0.8-0.4,1.3-0.4C416,280.2,416.4,280.6,416.4,281.4z
						 M416,282.4v-0.5h-1c-0.6,0-0.8,0.2-0.8,0.6c0,0.4,0.3,0.6,0.8,0.6C415.5,283.1,415.8,282.9,416,282.4z"/>
					<path d="M420.5,281.6v1.8h-0.4v-1.8c0-0.7-0.3-1-1-1c-0.7,0-1.1,0.4-1.1,1.1v1.7h-0.4v-3.2h0.4v0.6c0.2-0.4,0.7-0.6,1.2-0.6
						C420,280.2,420.5,280.7,420.5,281.6z"/>
					<path d="M424.1,281.4v2h-0.4v-0.5c-0.2,0.3-0.6,0.5-1.1,0.5c-0.7,0-1.2-0.4-1.2-0.9c0-0.5,0.3-0.9,1.2-0.9h1v-0.2
						c0-0.5-0.3-0.8-0.9-0.8c-0.4,0-0.8,0.1-1.1,0.4l-0.2-0.3c0.3-0.3,0.8-0.4,1.3-0.4C423.6,280.2,424.1,280.6,424.1,281.4z
						 M423.6,282.4v-0.5h-1c-0.6,0-0.8,0.2-0.8,0.6c0,0.4,0.3,0.6,0.8,0.6C423.1,283.1,423.5,282.9,423.6,282.4z"/>
					<path d="M428.2,280.2v2.8c0,1.1-0.5,1.6-1.6,1.6c-0.6,0-1.1-0.2-1.5-0.5l0.2-0.3c0.3,0.3,0.8,0.4,1.2,0.4
						c0.8,0,1.2-0.4,1.2-1.2v-0.4c-0.3,0.4-0.7,0.6-1.2,0.6c-0.9,0-1.6-0.6-1.6-1.5s0.7-1.5,1.6-1.5c0.5,0,1,0.2,1.3,0.6v-0.6H428.2
						z M427.7,281.7c0-0.7-0.5-1.2-1.2-1.2s-1.2,0.5-1.2,1.2c0,0.7,0.5,1.2,1.2,1.2S427.7,282.4,427.7,281.7z"/>
					<path d="M432.1,281.9h-2.7c0,0.7,0.6,1.1,1.2,1.1c0.4,0,0.7-0.1,1-0.4l0.2,0.3c-0.3,0.3-0.7,0.5-1.2,0.5c-1,0-1.7-0.7-1.7-1.6
						s0.7-1.6,1.5-1.6c0.9,0,1.5,0.7,1.5,1.6C432.1,281.9,432.1,281.9,432.1,281.9z M429.5,281.6h2.2c-0.1-0.6-0.5-1.1-1.1-1.1
						C430,280.6,429.5,281,429.5,281.6z"/>
					<path d="M434.6,281.6v-2.4h0.4v2.4c0,1,0.5,1.5,1.3,1.5c0.8,0,1.3-0.5,1.3-1.5v-2.4h0.4v2.4c0,1.2-0.7,1.8-1.7,1.8
						C435.3,283.4,434.6,282.8,434.6,281.6z"/>
					<path d="M438.9,283l0.2-0.3c0.3,0.2,0.7,0.4,1.1,0.4c0.6,0,0.8-0.2,0.8-0.5c0-0.8-2.1-0.2-2.1-1.4c0-0.5,0.4-0.9,1.3-0.9
						c0.4,0,0.9,0.1,1.1,0.3l-0.2,0.3c-0.3-0.2-0.6-0.3-0.9-0.3c-0.6,0-0.8,0.2-0.8,0.5c0,0.9,2.1,0.2,2.1,1.4
						c0,0.5-0.5,0.9-1.3,0.9C439.7,283.4,439.2,283.3,438.9,283z"/>
					<path d="M445,281.9h-2.7c0,0.7,0.6,1.1,1.2,1.1c0.4,0,0.7-0.1,1-0.4l0.2,0.3c-0.3,0.3-0.7,0.5-1.2,0.5c-1,0-1.7-0.7-1.7-1.6
						s0.7-1.6,1.5-1.6c0.9,0,1.5,0.7,1.5,1.6C445,281.9,445,281.9,445,281.9z M442.4,281.6h2.2c-0.1-0.6-0.5-1.1-1.1-1.1
						C442.9,280.6,442.4,281,442.4,281.6z"/>
					<path d="M447.5,280.2v0.4c0,0-0.1,0-0.1,0c-0.7,0-1.1,0.4-1.1,1.2v1.6h-0.4v-3.2h0.4v0.6C446.5,280.4,446.9,280.2,447.5,280.2z
						"/>
					<path d="M449.3,282.8l0.3-0.3c0.2,0.3,0.5,0.5,0.9,0.5c0.5,0,0.8-0.3,0.8-0.9v-2.6h-1.5v-0.4h2v2.9c0,0.9-0.4,1.3-1.2,1.3
						C450,283.4,449.5,283.2,449.3,282.8z"/>
					<path d="M452.6,281.8c0-0.9,0.7-1.6,1.6-1.6c0.9,0,1.6,0.7,1.6,1.6s-0.7,1.6-1.6,1.6C453.3,283.4,452.6,282.8,452.6,281.8z
						 M455.4,281.8c0-0.7-0.5-1.2-1.2-1.2c-0.7,0-1.2,0.5-1.2,1.2s0.5,1.2,1.2,1.2C454.9,283.1,455.4,282.6,455.4,281.8z"/>
					<path d="M459.6,280.2v3.2h-0.4v-0.6c-0.2,0.4-0.6,0.6-1.1,0.6c-0.8,0-1.3-0.5-1.3-1.4v-1.8h0.4v1.8c0,0.7,0.3,1,1,1
						c0.7,0,1.1-0.4,1.1-1.2v-1.7H459.6z"/>
				</g>
				<g class="st2">
					<path d="M461.1,280.2v0.4c0,0-0.1,0-0.1,0c-0.7,0-1.1,0.4-1.1,1.2v1.6h-0.4v-3.2h0.4v0.6C460.2,280.4,460.6,280.2,461.1,280.2z
						"/>
				</g>
				<g class="st2">
					<path d="M464.7,281.6v1.8h-0.4v-1.8c0-0.7-0.3-1-1-1c-0.7,0-1.1,0.4-1.1,1.1v1.7h-0.4v-3.2h0.4v0.6c0.2-0.4,0.7-0.6,1.2-0.6
						C464.2,280.2,464.7,280.7,464.7,281.6z"/>
				</g>
				<g class="st2">
					<path d="M468.6,281.9h-2.7c0,0.7,0.6,1.1,1.2,1.1c0.4,0,0.7-0.1,1-0.4l0.2,0.3c-0.3,0.3-0.7,0.5-1.2,0.5c-1,0-1.7-0.7-1.7-1.6
						s0.7-1.6,1.5-1.6c0.9,0,1.5,0.7,1.5,1.6C468.6,281.9,468.6,281.9,468.6,281.9z M465.9,281.6h2.2c-0.1-0.6-0.5-1.1-1.1-1.1
						C466.4,280.6,466,281,465.9,281.6z"/>
				</g>
				<g class="st2">
					<path d="M472,280.2l-1.6,3.5c-0.3,0.6-0.6,0.8-1.1,0.8c-0.3,0-0.6-0.1-0.8-0.3l0.2-0.3c0.2,0.2,0.3,0.2,0.6,0.2
						c0.3,0,0.5-0.1,0.7-0.5l0.1-0.3l-1.4-3.2h0.4l1.2,2.7l1.2-2.7H472z"/>
				</g>
				<g class="st2">
					<path d="M415.6,295.1v4.2h-0.4v-3.4l-1.7,2.8h-0.2l-1.7-2.8v3.4h-0.4v-4.2h0.4l1.8,3.1l1.8-3.1H415.6z"/>
					<path d="M419.3,297.3v2h-0.4v-0.5c-0.2,0.3-0.6,0.5-1.1,0.5c-0.7,0-1.2-0.4-1.2-0.9c0-0.5,0.3-0.9,1.2-0.9h1v-0.2
						c0-0.5-0.3-0.8-0.9-0.8c-0.4,0-0.8,0.1-1.1,0.4l-0.2-0.3c0.3-0.3,0.8-0.4,1.3-0.4C418.9,296.1,419.3,296.5,419.3,297.3z
						 M418.9,298.4v-0.5h-1c-0.6,0-0.8,0.2-0.8,0.6c0,0.4,0.3,0.6,0.8,0.6C418.4,299,418.7,298.8,418.9,298.4z"/>
					<path d="M423.4,297.5v1.8H423v-1.8c0-0.7-0.3-1-1-1c-0.7,0-1.1,0.4-1.1,1.1v1.7h-0.4v-3.2h0.4v0.6c0.2-0.4,0.7-0.6,1.2-0.6
						C422.9,296.1,423.4,296.6,423.4,297.5z"/>
					<path d="M426.9,297.3v2h-0.4v-0.5c-0.2,0.3-0.6,0.5-1.1,0.5c-0.7,0-1.2-0.4-1.2-0.9c0-0.5,0.3-0.9,1.2-0.9h1v-0.2
						c0-0.5-0.3-0.8-0.9-0.8c-0.4,0-0.8,0.1-1.1,0.4l-0.2-0.3c0.3-0.3,0.8-0.4,1.3-0.4C426.5,296.1,426.9,296.5,426.9,297.3z
						 M426.5,298.4v-0.5h-1c-0.6,0-0.8,0.2-0.8,0.6c0,0.4,0.3,0.6,0.8,0.6C426,299,426.3,298.8,426.5,298.4z"/>
					<path d="M431.1,296.1v2.8c0,1.1-0.5,1.6-1.6,1.6c-0.6,0-1.1-0.2-1.5-0.5l0.2-0.3c0.3,0.3,0.8,0.4,1.2,0.4
						c0.8,0,1.2-0.4,1.2-1.2v-0.4c-0.3,0.4-0.7,0.6-1.2,0.6c-0.9,0-1.6-0.6-1.6-1.5s0.7-1.5,1.6-1.5c0.5,0,1,0.2,1.3,0.6v-0.6H431.1
						z M430.6,297.6c0-0.7-0.5-1.2-1.2-1.2s-1.2,0.5-1.2,1.2c0,0.7,0.5,1.2,1.2,1.2S430.6,298.3,430.6,297.6z"/>
					<path d="M435,297.9h-2.7c0,0.7,0.6,1.1,1.2,1.1c0.4,0,0.7-0.1,1-0.4l0.2,0.3c-0.3,0.3-0.7,0.5-1.2,0.5c-1,0-1.7-0.7-1.7-1.6
						s0.7-1.6,1.5-1.6c0.9,0,1.5,0.7,1.5,1.6C435,297.8,435,297.8,435,297.9z M432.4,297.5h2.2c-0.1-0.6-0.5-1.1-1.1-1.1
						C432.9,296.5,432.4,296.9,432.4,297.5z"/>
				</g>
				<g class="st2">
					<path d="M438.7,299.1c-0.2,0.2-0.4,0.2-0.7,0.2c-0.6,0-0.9-0.3-0.9-0.9v-1.9h-0.6v-0.4h0.6v-0.7h0.4v0.7h1v0.4h-1v1.9
						c0,0.4,0.2,0.6,0.5,0.6c0.2,0,0.3-0.1,0.5-0.2L438.7,299.1z"/>
				</g>
				<g class="st2">
					<path d="M442,297.9h-2.7c0,0.7,0.6,1.1,1.2,1.1c0.4,0,0.7-0.1,1-0.4l0.2,0.3c-0.3,0.3-0.7,0.5-1.2,0.5c-1,0-1.7-0.7-1.7-1.6
						s0.7-1.6,1.5-1.6c0.9,0,1.5,0.7,1.5,1.6C442,297.8,442,297.8,442,297.9z M439.3,297.5h2.2c-0.1-0.6-0.5-1.1-1.1-1.1
						C439.8,296.5,439.4,296.9,439.3,297.5z"/>
					<path d="M445.8,297.5v1.8h-0.4v-1.8c0-0.7-0.3-1-1-1c-0.7,0-1.1,0.4-1.1,1.1v1.7h-0.4v-3.2h0.4v0.6c0.2-0.4,0.7-0.6,1.2-0.6
						C445.2,296.1,445.8,296.6,445.8,297.5z"/>
					<path d="M449.8,294.8v4.5h-0.4v-0.6c-0.3,0.4-0.7,0.7-1.2,0.7c-0.9,0-1.6-0.7-1.6-1.6c0-1,0.7-1.6,1.6-1.6
						c0.5,0,0.9,0.2,1.2,0.6v-1.9H449.8z M449.4,297.7c0-0.7-0.5-1.2-1.2-1.2c-0.7,0-1.2,0.5-1.2,1.2s0.5,1.2,1.2,1.2
						C448.9,299,449.4,298.5,449.4,297.7z"/>
					<path d="M453.8,297.9h-2.7c0,0.7,0.6,1.1,1.2,1.1c0.4,0,0.7-0.1,1-0.4l0.2,0.3c-0.3,0.3-0.7,0.5-1.2,0.5c-1,0-1.7-0.7-1.7-1.6
						s0.7-1.6,1.5-1.6c0.9,0,1.5,0.7,1.5,1.6C453.8,297.8,453.8,297.8,453.8,297.9z M451.1,297.5h2.2c-0.1-0.6-0.5-1.1-1.1-1.1
						C451.6,296.5,451.2,296.9,451.1,297.5z"/>
					<path d="M457.6,297.5v1.8h-0.4v-1.8c0-0.7-0.3-1-1-1c-0.7,0-1.1,0.4-1.1,1.1v1.7h-0.4v-3.2h0.4v0.6c0.2-0.4,0.7-0.6,1.2-0.6
						C457,296.1,457.6,296.6,457.6,297.5z"/>
					<path d="M458.4,297.7c0-0.9,0.7-1.6,1.6-1.6c0.5,0,1,0.2,1.2,0.6L461,297c-0.2-0.3-0.6-0.5-0.9-0.5c-0.7,0-1.2,0.5-1.2,1.2
						c0,0.7,0.5,1.2,1.2,1.2c0.4,0,0.7-0.1,0.9-0.5l0.3,0.2c-0.3,0.4-0.7,0.6-1.2,0.6C459.1,299.3,458.4,298.7,458.4,297.7z"/>
					<path d="M462,295.1c0-0.2,0.1-0.3,0.3-0.3s0.3,0.1,0.3,0.3c0,0.2-0.1,0.3-0.3,0.3C462.2,295.4,462,295.3,462,295.1z
						 M462.1,296.1h0.4v3.2h-0.4V296.1z"/>
					<path d="M466.5,297.9h-2.7c0,0.7,0.6,1.1,1.2,1.1c0.4,0,0.7-0.1,1-0.4l0.2,0.3c-0.3,0.3-0.7,0.5-1.2,0.5c-1,0-1.7-0.7-1.7-1.6
						s0.7-1.6,1.5-1.6c0.9,0,1.5,0.7,1.5,1.6C466.5,297.8,466.5,297.8,466.5,297.9z M463.8,297.5h2.2c-0.1-0.6-0.5-1.1-1.1-1.1
						C464.3,296.5,463.9,296.9,463.8,297.5z"/>
					<path d="M466.9,298.9l0.2-0.3c0.3,0.2,0.7,0.4,1.1,0.4c0.6,0,0.9-0.2,0.9-0.5c0-0.8-2.1-0.2-2.1-1.4c0-0.5,0.4-0.9,1.3-0.9
						c0.4,0,0.9,0.1,1.1,0.3l-0.2,0.3c-0.3-0.2-0.6-0.3-0.9-0.3c-0.6,0-0.8,0.2-0.8,0.5c0,0.9,2.1,0.2,2.1,1.4
						c0,0.5-0.5,0.9-1.3,0.9C467.7,299.3,467.2,299.2,466.9,298.9z"/>
				</g>
				<g>
					<circle cx="406.2" cy="265.6" r="1.1"/>
				</g>
				<g>
					<circle cx="406.2" cy="281.2" r="1.1"/>
				</g>
				<g>
					<circle cx="406.2" cy="296.9" r="1.1"/>
				</g>
			</g>
		</g>
	</g>
	<g>
		<g class="st2">
			<path d="M179.5,240.6l-1.7,1.8v3.2h-2.9V233h2.9v5.9l5.6-5.9h3.2l-5.2,5.6l5.5,7h-3.4L179.5,240.6z"/>
		</g>
		<g class="st2">
			<path d="M198,243.3v2.3h-9.8V233h9.5v2.3h-6.6v2.7h5.9v2.3h-5.9v2.9H198z"/>
		</g>
		<g class="st2">
			<path d="M206.2,241.1v4.5h-2.9v-4.5l-4.9-8.1h3.1l3.4,5.6l3.4-5.6h2.9L206.2,241.1z"/>
		</g>
		<g class="st2">
			<path d="M154.8,252.3v3.3h5.8v2.3h-5.8v4.6h-2.9V250h9.5v2.3H154.8z"/>
		</g>
		<g class="st2">
			<path d="M171.2,259.9h-5.9l-1.1,2.7h-3l5.6-12.6h2.9l5.6,12.6h-3.1L171.2,259.9z M170.2,257.7l-2-4.8l-2,4.8H170.2z"/>
		</g>
		<g class="st2">
			<path d="M175.7,256.3c0-3.8,2.9-6.5,6.8-6.5c2.2,0,4,0.8,5.2,2.2l-1.9,1.7c-0.8-1-1.9-1.5-3.2-1.5c-2.4,0-4,1.7-4,4s1.7,4,4,4
				c1.3,0,2.3-0.5,3.2-1.5l1.9,1.7c-1.2,1.5-3,2.2-5.2,2.2C178.6,262.8,175.7,260.1,175.7,256.3z"/>
		</g>
		<g class="st2">
			<path d="M192.2,252.4h-4V250h11v2.4h-4v10.2h-2.9V252.4z"/>
		</g>
		<g class="st2">
			<path d="M199.7,256.3c0-3.7,2.9-6.5,6.9-6.5c4,0,6.9,2.8,6.9,6.5c0,3.8-2.9,6.5-6.9,6.5C202.6,262.8,199.7,260,199.7,256.3z
				 M210.5,256.3c0-2.4-1.7-4-3.9-4c-2.3,0-3.9,1.6-3.9,4s1.7,4,3.9,4C208.8,260.3,210.5,258.7,210.5,256.3z"/>
			<path d="M223.7,262.6l-2.4-3.5h-0.1h-2.5v3.5h-2.9V250h5.5c3.4,0,5.5,1.7,5.5,4.6c0,1.9-1,3.3-2.6,4l2.8,4.1H223.7z M221,252.4
				h-2.4v4.4h2.4c1.8,0,2.7-0.8,2.7-2.2C223.7,253.2,222.8,252.4,221,252.4z"/>
			<path d="M227.9,261.4l1-2.2c1.1,0.8,2.6,1.3,4.2,1.3c1.7,0,2.4-0.6,2.4-1.3c0-2.4-7.3-0.7-7.3-5.4c0-2.1,1.7-3.9,5.3-3.9
				c1.6,0,3.2,0.4,4.4,1.1l-0.9,2.2c-1.2-0.7-2.4-1-3.5-1c-1.7,0-2.4,0.6-2.4,1.4c0,2.3,7.3,0.7,7.3,5.3c0,2.1-1.7,3.9-5.3,3.9
				C231,262.8,229,262.2,227.9,261.4z"/>
		</g>
		<g class="st2">
			<path d="M184.6,271.5c0-1.2,0.9-2.1,2.2-2.1c0.6,0,1.2,0.2,1.5,0.6l-0.3,0.3c-0.3-0.3-0.8-0.5-1.2-0.5c-1,0-1.8,0.7-1.8,1.7
				c0,1,0.8,1.7,1.8,1.7c0.5,0,0.9-0.2,1.2-0.5l0.3,0.3c-0.4,0.4-0.9,0.6-1.5,0.6C185.5,273.6,184.6,272.7,184.6,271.5z"/>
		</g>
		<g class="st2">
			<path d="M188.6,272c0-0.9,0.7-1.6,1.6-1.6s1.6,0.7,1.6,1.6s-0.7,1.6-1.6,1.6S188.6,272.9,188.6,272z M191.4,272
				c0-0.7-0.5-1.2-1.2-1.2c-0.7,0-1.2,0.5-1.2,1.2s0.5,1.2,1.2,1.2C190.9,273.2,191.4,272.7,191.4,272z"/>
			<path d="M192.3,273.2l0.2-0.3c0.3,0.2,0.7,0.4,1.1,0.4c0.6,0,0.9-0.2,0.9-0.5c0-0.8-2.1-0.2-2.1-1.4c0-0.5,0.4-0.9,1.3-0.9
				c0.4,0,0.9,0.1,1.1,0.3l-0.2,0.3c-0.3-0.2-0.6-0.3-0.9-0.3c-0.6,0-0.8,0.2-0.8,0.5c0,0.9,2.1,0.2,2.1,1.4c0,0.5-0.5,0.9-1.3,0.9
				C193.1,273.6,192.6,273.4,192.3,273.2z"/>
			<path d="M197.4,273.4c-0.2,0.2-0.4,0.2-0.7,0.2c-0.6,0-0.9-0.3-0.9-0.9v-1.9h-0.6v-0.4h0.6v-0.7h0.4v0.7h1v0.4h-1v1.9
				c0,0.4,0.2,0.6,0.5,0.6c0.2,0,0.3-0.1,0.5-0.2L197.4,273.4z"/>
			<path d="M197.7,273.2l0.2-0.3c0.3,0.2,0.7,0.4,1.1,0.4c0.6,0,0.9-0.2,0.9-0.5c0-0.8-2.1-0.2-2.1-1.4c0-0.5,0.4-0.9,1.3-0.9
				c0.4,0,0.9,0.1,1.1,0.3L200,271c-0.3-0.2-0.6-0.3-0.9-0.3c-0.6,0-0.8,0.2-0.8,0.5c0,0.9,2.1,0.2,2.1,1.4c0,0.5-0.5,0.9-1.3,0.9
				C198.5,273.6,197.9,273.4,197.7,273.2z"/>
		</g>
		<g class="st2">
			<path d="M177.1,281l0.2-0.3c0.3,0.3,0.8,0.5,1.4,0.5c0.8,0,1.1-0.3,1.1-0.7c0-1.2-2.6-0.4-2.6-2c0-0.6,0.5-1.2,1.6-1.2
				c0.5,0,1,0.1,1.3,0.4l-0.2,0.4c-0.4-0.2-0.8-0.3-1.2-0.3c-0.8,0-1.1,0.3-1.1,0.8c0,1.2,2.6,0.5,2.6,2c0,0.6-0.5,1.2-1.6,1.2
				C178,281.6,177.4,281.3,177.1,281z"/>
		</g>
		<g class="st2">
			<path d="M186.7,279.9l-0.7,0.7v0.9h-0.4v-4.5h0.4v3l1.9-1.7h0.5l-1.4,1.3l1.5,1.9h-0.5L186.7,279.9z"/>
		</g>
		<g class="st2">
			<path d="M188.8,277.4c0-0.2,0.1-0.3,0.3-0.3s0.3,0.1,0.3,0.3c0,0.2-0.1,0.3-0.3,0.3C188.9,277.7,188.8,277.5,188.8,277.4z
				 M188.8,278.4h0.4v3.2h-0.4V278.4z"/>
			<path d="M190.5,277.1h0.4v4.5h-0.4V277.1z"/>
			<path d="M192.1,277.1h0.4v4.5h-0.4V277.1z"/>
			<path d="M194.8,281.2l0.2-0.3c0.3,0.2,0.7,0.4,1.1,0.4c0.6,0,0.9-0.2,0.9-0.5c0-0.8-2.1-0.2-2.1-1.4c0-0.5,0.4-0.9,1.3-0.9
				c0.4,0,0.9,0.1,1.1,0.3l-0.2,0.3c-0.3-0.2-0.6-0.3-0.9-0.3c-0.6,0-0.8,0.2-0.8,0.5c0,0.9,2.1,0.2,2.1,1.4c0,0.5-0.5,0.9-1.3,0.9
				C195.6,281.6,195.1,281.4,194.8,281.2z"/>
			<path d="M201,280.1h-2.7c0,0.7,0.6,1.1,1.2,1.1c0.4,0,0.7-0.1,1-0.4l0.2,0.3c-0.3,0.3-0.7,0.5-1.2,0.5c-1,0-1.7-0.7-1.7-1.6
				s0.7-1.6,1.5-1.6s1.5,0.7,1.5,1.6C201,280,201,280,201,280.1z M198.3,279.8h2.2c-0.1-0.6-0.5-1.1-1.1-1.1
				C198.8,278.7,198.4,279.1,198.3,279.8z"/>
			<path d="M203.5,281.3c-0.2,0.2-0.4,0.2-0.7,0.2c-0.6,0-0.9-0.3-0.9-0.9v-1.9h-0.6v-0.4h0.6v-0.7h0.4v0.7h1v0.4h-1v1.9
				c0,0.4,0.2,0.6,0.5,0.6c0.2,0,0.3-0.1,0.5-0.2L203.5,281.3z"/>
		</g>
		<g class="st2">
		</g>
		<g class="st2">
			<path d="M180.7,285.7h-1.5v-0.4h3.4v0.4h-1.5v3.8h-0.4V285.7z"/>
		</g>
		<g class="st2">
			<path d="M185.8,286.3v3.2h-0.4v-0.6c-0.2,0.4-0.6,0.6-1.1,0.6c-0.8,0-1.3-0.5-1.3-1.4v-1.8h0.4v1.8c0,0.7,0.3,1,1,1
				c0.7,0,1.1-0.4,1.1-1.2v-1.7H185.8z"/>
		</g>
		<g class="st2">
			<path d="M188.6,286.3v0.4c0,0-0.1,0-0.1,0c-0.7,0-1.1,0.4-1.1,1.2v1.6H187v-3.2h0.4v0.6C187.6,286.5,188,286.3,188.6,286.3z"/>
		</g>
		<g class="st2">
			<path d="M192.1,287.7v1.8h-0.4v-1.8c0-0.7-0.3-1-1-1c-0.7,0-1.1,0.4-1.1,1.1v1.7h-0.4v-3.2h0.4v0.6c0.2-0.4,0.7-0.6,1.2-0.6
				C191.6,286.3,192.1,286.7,192.1,287.7z"/>
		</g>
		<g class="st2">
			<path d="M192.9,287.9c0-0.9,0.7-1.6,1.6-1.6s1.6,0.7,1.6,1.6s-0.7,1.6-1.6,1.6S192.9,288.8,192.9,287.9z M195.7,287.9
				c0-0.7-0.5-1.2-1.2-1.2c-0.7,0-1.2,0.5-1.2,1.2s0.5,1.2,1.2,1.2C195.2,289.1,195.7,288.6,195.7,287.9z"/>
			<path d="M199.6,286.3l-1.4,3.2h-0.4l-1.4-3.2h0.4l1.2,2.7l1.2-2.7H199.6z"/>
		</g>
		<g class="st2">
			<path d="M202.5,288h-2.7c0,0.7,0.6,1.1,1.2,1.1c0.4,0,0.7-0.1,1-0.4l0.2,0.3c-0.3,0.3-0.7,0.5-1.2,0.5c-1,0-1.7-0.7-1.7-1.6
				s0.7-1.6,1.5-1.6s1.5,0.7,1.5,1.6C202.6,287.9,202.5,288,202.5,288z M199.9,287.7h2.2c-0.1-0.6-0.5-1.1-1.1-1.1
				C200.4,286.7,199.9,287.1,199.9,287.7z"/>
			<path d="M205,286.3v0.4c0,0-0.1,0-0.1,0c-0.7,0-1.1,0.4-1.1,1.2v1.6h-0.4v-3.2h0.4v0.6C204,286.5,204.4,286.3,205,286.3z"/>
		</g>
		<g class="st2">
		</g>
		<g class="st2">
			<path d="M168.2,295.3c0-1.2,0.9-2.1,2.2-2.1c0.6,0,1.2,0.2,1.5,0.6l-0.3,0.3c-0.3-0.3-0.8-0.5-1.2-0.5c-1,0-1.8,0.7-1.8,1.7
				c0,1,0.8,1.7,1.8,1.7c0.5,0,0.9-0.2,1.2-0.5l0.3,0.3c-0.4,0.4-0.9,0.6-1.5,0.6C169.1,297.5,168.2,296.6,168.2,295.3z"/>
		</g>
		<g class="st2">
			<path d="M172.3,295.9c0-0.9,0.7-1.6,1.6-1.6s1.6,0.7,1.6,1.6s-0.7,1.6-1.6,1.6S172.3,296.8,172.3,295.9z M175.1,295.9
				c0-0.7-0.5-1.2-1.2-1.2c-0.7,0-1.2,0.5-1.2,1.2s0.5,1.2,1.2,1.2C174.6,297.1,175.1,296.6,175.1,295.9z"/>
			<path d="M181.6,295.6v1.8h-0.4v-1.8c0-0.7-0.3-1-0.9-1c-0.7,0-1.1,0.4-1.1,1.1v1.7h-0.4v-1.8c0-0.7-0.3-1-0.9-1
				c-0.6,0-1.1,0.4-1.1,1.1v1.7h-0.4v-3.2h0.4v0.6c0.2-0.4,0.6-0.6,1.2-0.6c0.5,0,0.9,0.2,1.1,0.7c0.2-0.4,0.7-0.7,1.3-0.7
				C181.1,294.2,181.6,294.7,181.6,295.6z"/>
			<path d="M188,295.6v1.8h-0.4v-1.8c0-0.7-0.3-1-0.9-1c-0.7,0-1.1,0.4-1.1,1.1v1.7h-0.4v-1.8c0-0.7-0.3-1-0.9-1
				c-0.6,0-1.1,0.4-1.1,1.1v1.7h-0.4v-3.2h0.4v0.6c0.2-0.4,0.6-0.6,1.2-0.6c0.5,0,0.9,0.2,1.1,0.7c0.2-0.4,0.7-0.7,1.3-0.7
				C187.5,294.2,188,294.7,188,295.6z"/>
			<path d="M192,294.3v3.2h-0.4v-0.6c-0.2,0.4-0.6,0.6-1.1,0.6c-0.8,0-1.3-0.5-1.3-1.4v-1.8h0.4v1.8c0,0.7,0.3,1,1,1
				c0.7,0,1.1-0.4,1.1-1.2v-1.7H192z"/>
			<path d="M196.1,295.6v1.8h-0.4v-1.8c0-0.7-0.3-1-1-1c-0.7,0-1.1,0.4-1.1,1.1v1.7h-0.4v-3.2h0.4v0.6c0.2-0.4,0.7-0.6,1.2-0.6
				C195.6,294.2,196.1,294.7,196.1,295.6z"/>
			<path d="M197.2,293.3c0-0.2,0.1-0.3,0.3-0.3s0.3,0.1,0.3,0.3c0,0.2-0.1,0.3-0.3,0.3C197.3,293.6,197.2,293.4,197.2,293.3z
				 M197.3,294.3h0.4v3.2h-0.4V294.3z"/>
			<path d="M198.6,295.9c0-0.9,0.7-1.6,1.6-1.6c0.5,0,1,0.2,1.2,0.6l-0.3,0.2c-0.2-0.3-0.6-0.5-0.9-0.5c-0.7,0-1.2,0.5-1.2,1.2
				c0,0.7,0.5,1.2,1.2,1.2c0.4,0,0.7-0.1,0.9-0.5l0.3,0.2c-0.3,0.4-0.7,0.6-1.2,0.6C199.3,297.5,198.6,296.8,198.6,295.9z"/>
			<path d="M204.7,295.5v2h-0.4v-0.5c-0.2,0.3-0.6,0.5-1.1,0.5c-0.7,0-1.2-0.4-1.2-0.9c0-0.5,0.3-0.9,1.2-0.9h1v-0.2
				c0-0.5-0.3-0.8-0.9-0.8c-0.4,0-0.8,0.1-1.1,0.4l-0.2-0.3c0.3-0.3,0.8-0.4,1.3-0.4C204.2,294.2,204.7,294.7,204.7,295.5z
				 M204.2,296.5V296h-1c-0.6,0-0.8,0.2-0.8,0.6c0,0.4,0.3,0.6,0.8,0.6C203.7,297.1,204.1,296.9,204.2,296.5z"/>
			<path d="M207.5,297.2c-0.2,0.2-0.4,0.2-0.7,0.2c-0.6,0-0.9-0.3-0.9-0.9v-1.9h-0.6v-0.4h0.6v-0.7h0.4v0.7h1v0.4h-1v1.9
				c0,0.4,0.2,0.6,0.5,0.6c0.2,0,0.3-0.1,0.5-0.2L207.5,297.2z"/>
			<path d="M208.2,293.3c0-0.2,0.1-0.3,0.3-0.3s0.3,0.1,0.3,0.3c0,0.2-0.1,0.3-0.3,0.3C208.3,293.6,208.2,293.4,208.2,293.3z
				 M208.3,294.3h0.4v3.2h-0.4V294.3z"/>
			<path d="M209.6,295.9c0-0.9,0.7-1.6,1.6-1.6s1.6,0.7,1.6,1.6s-0.7,1.6-1.6,1.6S209.6,296.8,209.6,295.9z M212.4,295.9
				c0-0.7-0.5-1.2-1.2-1.2c-0.7,0-1.2,0.5-1.2,1.2s0.5,1.2,1.2,1.2C211.9,297.1,212.4,296.6,212.4,295.9z"/>
			<path d="M216.6,295.6v1.8h-0.4v-1.8c0-0.7-0.3-1-1-1c-0.7,0-1.1,0.4-1.1,1.1v1.7h-0.4v-3.2h0.4v0.6c0.2-0.4,0.7-0.6,1.2-0.6
				C216.1,294.2,216.6,294.7,216.6,295.6z"/>
		</g>
	</g>
</g>
</svg>
