<svg id="Capa_1" data-name="Capa 1" xmlns="http://www.w3.org/2000/svg" viewBox="0 0 413.77 146.98">
  <defs>
    <style>
      .cls-1 {
        fill: #c1272d;
      }

      .cls-2 {
        font-size: 6.83px;
        fill: #f2f2f2;
      }

      .cls-2, .cls-5, .cls-6 {
        font-family: Montserrat;
      }

      .cls-3 {
        fill: #f15a24;
      }

      .cls-4 {
        fill: #1a1a1a;
      }

      .cls-5 {
        font-size: 12px;
      }

      .cls-6 {
        font-size: 6px;
      }
    </style>
  </defs>
  <title>equipo</title>
  <circle class="cls-1" cx="37.35" cy="67.13" r="37.35"/>
  <text class="cls-2" transform="translate(23.73 64.52)">DIGI<tspan x="15.04" y="0">T</tspan><tspan x="18.72" y="0">AL</tspan><tspan x="-4.47" y="8.19">MAN</tspan><tspan x="12.5" y="8.19">A</tspan><tspan x="17.32" y="8.19">GER</tspan></text>
  <text x="-12.45" y="-7.02"/>  <circle class="cls-1" cx="131.02" cy="66.57" r="37.35"/>
  <text class="cls-2" transform="translate(117.4 63.96)">DIGI<tspan x="15.04" y="0">T</tspan><tspan x="18.72" y="0">AL</tspan><tspan x="-10.26" y="8.19">MAN</tspan><tspan x="6.7" y="8.19">A</tspan><tspan x="11.53" y="8.19">GER JR.</tspan></text>
  <text x="-12.45" y="-7.02"/>  <circle class="cls-3" cx="276.91" cy="67.02" r="37.35"/>
  <text class="cls-2" transform="translate(257 64.41)">FRONTEND <tspan x="-1.57" y="8.19">D</tspan><tspan x="4.06" y="8.19">E</tspan><tspan x="8.56" y="8.19">V</tspan><tspan x="13.23" y="8.19">E</tspan><tspan x="17.79" y="8.19">L</tspan><tspan x="21.72" y="8.19">O</tspan><tspan x="27.45" y="8.19">P</tspan><tspan x="32.28" y="8.19">ER</tspan></text>
  <text x="-12.45" y="-7.02"/>  <circle class="cls-3" cx="370.57" cy="66.46" r="37.35"/>
  <text class="cls-2" transform="translate(353.03 63.85)">B<tspan x="5.15" y="0">A</tspan><tspan x="9.97" y="0">CKEND</tspan><tspan x="-3.93" y="8.19">D</tspan><tspan x="1.71" y="8.19">E</tspan><tspan x="6.21" y="8.19">V</tspan><tspan x="10.87" y="8.19">E</tspan><tspan x="15.44" y="8.19">L</tspan><tspan x="19.36" y="8.19">O</tspan><tspan x="25.09" y="8.19">P</tspan><tspan x="29.92" y="8.19">ER</tspan></text>
  <text x="-12.45" y="-7.02"/>  <rect class="cls-4" x="205.12" y="63.22" width="25.18" height="25.18" transform="translate(412.82 -31.55) rotate(135)"/>
  <text class="cls-5" transform="translate(36.77 10.31)">MAN<tspan x="30.77" y="0">A</tspan><tspan x="40.32" y="0">GEMENT</tspan></text>
  <text class="cls-5" transform="translate(274.66 10.2)">D<tspan x="9.91" y="0">E</tspan><tspan x="17.87" y="0">V</tspan><tspan x="27.12" y="0">E</tspan><tspan x="35.2" y="0">L</tspan><tspan x="42.48" y="0">O</tspan><tspan x="52.66" y="0">P</tspan><tspan x="61.45" y="0">MENT</tspan></text>
  <text class="cls-6" transform="translate(0.1 121.54)">· <tspan x="3.08" y="0">T</tspan><tspan x="6.44" y="0">iempo </tspan><tspan x="27.45" y="0">P</tspan><tspan x="31.67" y="0">a</tspan><tspan x="35.21" y="0">r</tspan><tspan x="37.54" y="0">cial</tspan><tspan x="0" y="7.2">· Supe</tspan><tspan x="18.5" y="7.2">r</tspan><tspan x="21" y="7.2">visión ge</tspan><tspan x="47.55" y="7.2">n</tspan><tspan x="51.62" y="7.2">e</tspan><tspan x="55.25" y="7.2">r</tspan><tspan x="57.6" y="7.2">al</tspan><tspan x="0" y="14.4">· En </tspan><tspan x="12.73" y="14.4">I</tspan><tspan x="14.5" y="14.4">W</tspan><tspan x="21.07" y="14.4">N S</tspan><tspan x="31.21" y="14.4">c</tspan><tspan x="34.54" y="14.4">ope</tspan></text>
  <text class="cls-6" transform="translate(97.66 121.65)">· Responsable <tspan x="43.22" y="0">P</tspan><tspan x="47.39" y="0">r</tspan><tspan x="49.75" y="0">ima</tspan><tspan x="61.27" y="0">r</tspan><tspan x="63.63" y="0">io</tspan></text>
  <text class="cls-6" transform="translate(244.77 121.21)">· Dise<tspan x="16.21" y="0">ñ</tspan><tspan x="20.29" y="0">o</tspan><tspan x="0" y="7.2">· Desa</tspan><tspan x="18.14" y="7.2">r</tspan><tspan x="20.5" y="7.2">r</tspan><tspan x="22.82" y="7.2">ollo </tspan><tspan x="35.15" y="7.2">L</tspan><tspan x="38.69" y="7.2">a</tspan><tspan x="42.17" y="7.2">y</tspan><tspan x="45.34" y="7.2">out</tspan><tspan x="0" y="14.4">· Desa</tspan><tspan x="18.14" y="14.4">r</tspan><tspan x="20.5" y="14.4">r</tspan><tspan x="22.82" y="14.4">ollo Responsi</tspan><tspan x="62.48" y="14.4">v</tspan><tspan x="65.65" y="14.4">o</tspan></text>
  <text class="cls-6" transform="translate(338.99 121.32)">· Dise<tspan x="16.21" y="0">ñ</tspan><tspan x="20.29" y="0">o Base de Da</tspan><tspan x="59.57" y="0">t</tspan><tspan x="61.9" y="0">os</tspan><tspan x="0" y="7.2">· Desa</tspan><tspan x="18.14" y="7.2">r</tspan><tspan x="20.5" y="7.2">r</tspan><tspan x="22.82" y="7.2">ollo B</tspan><tspan x="39.67" y="7.2">a</tspan><tspan x="43.22" y="7.2">c</tspan><tspan x="46.55" y="7.2">k</tspan><tspan x="50.03" y="7.2">e</tspan><tspan x="53.66" y="7.2">n</tspan><tspan x="57.73" y="7.2">d</tspan><tspan x="0" y="14.4">· Desa</tspan><tspan x="18.14" y="14.4">r</tspan><tspan x="20.5" y="14.4">r</tspan><tspan x="22.82" y="14.4">ollo Rou</tspan><tspan x="47.29" y="14.4">t</tspan><tspan x="49.61" y="14.4">e</tspan><tspan x="53.23" y="14.4">r</tspan><tspan x="55.61" y="14.4">s</tspan></text>
</svg>
