<svg id="Capa_1" data-name="Capa 1" xmlns="http://www.w3.org/2000/svg" viewBox="0 0 512.21 153.08">
  <defs>
    <style>
      .cls-1 {
        fill: #f05829;
      }

      .cls-2 {
        font-size: 7.14px;
        fill: #f2f2f2;
        font-family: Montserrat;
      }

      .cls-3 {
        fill: #9e005d;
      }

      .cls-4 {
        fill: none;
        stroke: #000;
        stroke-miterlimit: 10;
        stroke-width: 0.57px;
      }

      .cls-5 {
        fill: #c1272d;
      }

      .cls-6 {
        fill: #f7931e;
      }

      .cls-7 {
        fill: #ff1d25;
      }

      .cls-8 {
        fill: #0071bc;
      }

      .cls-9 {
        fill: #1b1464;
      }
    </style>
  </defs>
  <title>flow-backend</title>
  <rect class="cls-1" x="4.3" y="64.84" width="115.79" height="22.47"/>
  <text class="cls-2" transform="translate(16.26 77.92)">AMA<tspan x="17.05" y="0">Z</tspan><tspan x="21.63" y="0">ON </tspan><tspan x="35.29" y="0">W</tspan><tspan x="43.11" y="0">EB SER</tspan><tspan x="69.45" y="0">V</tspan><tspan x="74.32" y="0">ICES</tspan></text>
  <polygon points="120.4 74.75 144.81 75.17 120.4 75.6 120.4 74.75"/>
  <rect class="cls-3" x="143.3" y="64.84" width="49.49" height="22.47"/>
  <text class="cls-2" transform="translate(152.3 77.92)">NOD<tspan x="17.68" y="0">E</tspan><tspan x="22.53" y="0">.</tspan><tspan x="24.45" y="0">JS</tspan></text>
  <polygon points="192.91 75.75 217.31 76.17 192.91 76.6 192.91 75.75"/>
  <line class="cls-4" x1="218.19" y1="0.25" x2="218.19" y2="153.08"/>
  <rect class="cls-5" x="227.52" y="0.74" width="115.79" height="22.47"/>
  <text class="cls-2" transform="translate(236.33 13.83)">S<tspan x="4.33" y="0">3 - Simple S</tspan><tspan x="46.02" y="0">t</tspan><tspan x="48.79" y="0">o</tspan><tspan x="53.26" y="0">r</tspan><tspan x="56.06" y="0">a</tspan><tspan x="60.28" y="0">ge Se</tspan><tspan x="80.05" y="0">r</tspan><tspan x="83.02" y="0">vi</tspan><tspan x="88.81" y="0">c</tspan><tspan x="92.76" y="0">e</tspan></text>
  <rect class="cls-6" x="228.01" y="32.96" width="115.79" height="22.47"/>
  <text class="cls-2" transform="translate(262.82 46.05)">A<tspan x="5.12" y="0">P</tspan><tspan x="10.17" y="0">I Ga</tspan><tspan x="23.92" y="0">t</tspan><tspan x="26.68" y="0">e</tspan><tspan x="30.92" y="0">w</tspan><tspan x="37.08" y="0">a</tspan><tspan x="41.22" y="0">y</tspan></text>
  <rect class="cls-7" x="227.9" y="65" width="115.79" height="22.47"/>
  <text class="cls-2" transform="translate(246.35 78.09)">L<tspan x="4.22" y="0">AMB</tspan><tspan x="21.53" y="0">D</tspan><tspan x="27.35" y="0">A FUN</tspan><tspan x="50.31" y="0">C</tspan><tspan x="55.37" y="0">TIONS</tspan></text>
  <rect class="cls-8" x="227.58" y="97.3" width="115.79" height="22.47"/>
  <text class="cls-2" transform="translate(257.05 110.39)">SQL <tspan x="16.45" y="0">D</tspan><tspan x="22.27" y="0">AT</tspan><tspan x="30.98" y="0">ABASE</tspan></text>
  <rect class="cls-9" x="226.88" y="129.56" width="115.79" height="22.47"/>
  <text class="cls-2" transform="translate(242.71 142.64)">C<tspan x="5.02" y="0">OGNI</tspan><tspan x="24.48" y="0">T</tspan><tspan x="28.51" y="0">O </tspan><tspan x="36.36" y="0">A</tspan><tspan x="41.37" y="0">U</tspan><tspan x="46.92" y="0">TH USERS</tspan></text>
  <line class="cls-4" x1="353.23" x2="353.23" y2="152.83"/>
  <polygon points="353.68 75.87 378.09 76.29 353.68 76.72 353.68 75.87"/>
  <rect class="cls-3" x="378.71" y="56.65" width="54.1" height="39.66"/>
  <text class="cls-2" transform="translate(395.11 69.73)">USER<tspan x="0.16" y="8.56">D</tspan><tspan x="5.98" y="8.56">AT</tspan><tspan x="14.7" y="8.56">A</tspan><tspan x="-6.68" y="17.13">ANALISIS</tspan></text>
  <polygon points="433.08 75.42 457.49 75.85 433.08 76.27 433.08 75.42"/>
  <rect class="cls-9" x="458.11" y="56.2" width="54.1" height="39.66"/>
  <text class="cls-2" transform="translate(462.24 72.86)">MARKETING<tspan x="3.63" y="8.56">S</tspan><tspan x="7.94" y="8.56">T</tspan><tspan x="11.79" y="8.56">RA</tspan><tspan x="16.9" y="8.56"></tspan><tspan x="21.99" y="8.56">T</tspan><tspan x="26.09" y="8.56">E</tspan><tspan x="30.83" y="8.56">GY</tspan></text>
</svg>
