<svg id="Capa_1" data-name="Capa 1" xmlns="http://www.w3.org/2000/svg" viewBox="0 0 494.33 189.24">
  <defs>
    <style>
      .cls-1 {
        fill: #f05829;
      }

      .cls-2 {
        font-size: 36px;
        fill: #f2f2f2;
      }

      .cls-2, .cls-3, .cls-4 {
        font-family: Montserrat;
      }

      .cls-3 {
        font-size: 6.59px;
      }

      .cls-4 {
        font-size: 6px;
      }
    </style>
  </defs>
  <title>flow-desarrollo</title>
  <circle class="cls-1" cx="42.89" cy="57.37" r="42.89"/>
  <text class="cls-2" transform="translate(36.39 68.06)">1</text>
  <circle class="cls-1" cx="147.44" cy="57.04" r="42.89"/>
  <text class="cls-3" transform="translate(133.74 6.13)">DISEÑO</text>
  <circle class="cls-1" cx="250.44" cy="57.04" r="42.89"/>
  <text class="cls-3" transform="translate(226.16 6.13)">DESARROL<tspan x="38.98" y="0">L</tspan><tspan x="42.98" y="0">O</tspan></text>
  <circle class="cls-1" cx="351.44" cy="57.48" r="42.89"/>
  <text class="cls-3" transform="translate(336.45 6.57)">TE<tspan x="8.74" y="0">S</tspan><tspan x="13" y="0">TING</tspan></text>
  <circle class="cls-1" cx="451.44" cy="57.48" r="42.89"/>
  <text class="cls-3" transform="translate(434.56 6.57)">ENTREGA</text>
  <text class="cls-2" transform="translate(137.99 68.51)">2</text>
  <text class="cls-2" transform="translate(241.18 68.06)">3</text>
  <text class="cls-2" transform="translate(341.21 68.06)">4</text>
  <text class="cls-2" transform="translate(441.59 68.62)">5</text>
  <text class="cls-3" transform="translate(20.89 6.35)">P<tspan x="4.83" y="0">L</tspan><tspan x="8.96" y="0">ANE</tspan><tspan x="24" y="0">A</tspan><tspan x="29.24" y="0">CIÓN</tspan></text>
  <text class="cls-3" transform="translate(125.78 111.35)">3 SEMANAS</text>
  <text class="cls-3" transform="translate(229.66 111.35)">5 SEMANAS</text>
  <text class="cls-3" transform="translate(333.04 111.79)">1 SEMANA</text>
  <text class="cls-3" transform="translate(441.55 111.79)">1 DÍA</text>
  <text class="cls-3" transform="translate(18.92 111.57)">2 SEMANAS</text>
  <text class="cls-4" transform="translate(0.21 133.69)">· Desa<tspan x="18.14" y="0">r</tspan><tspan x="20.5" y="0">r</tspan><tspan x="22.82" y="0">ollo de est</tspan><tspan x="53.41" y="0">r</tspan><tspan x="55.76" y="0">a</tspan><tspan x="59.3" y="0">t</tspan><tspan x="61.62" y="0">egía</tspan><tspan x="0" y="7.2">· Imple</tspan><tspan x="20.57" y="7.2">m</tspan><tspan x="26.95" y="7.2">ent</tspan><tspan x="37.07" y="7.2">a</tspan><tspan x="40.62" y="7.2">ción</tspan><tspan x="0" y="14.4">· C</tspan><tspan x="7.4" y="14.4">r</tspan><tspan x="9.73" y="14.4">o</tspan><tspan x="13.49" y="14.4">n</tspan><tspan x="17.56" y="14.4">og</tspan><tspan x="25.44" y="14.4">r</tspan><tspan x="27.79" y="14.4">ama</tspan><tspan x="0" y="21.6">· </tspan><tspan x="3.08" y="21.6">A</tspan><tspan x="7.36" y="21.6">sign</tspan><tspan x="20.08" y="21.6">a</tspan><tspan x="23.63" y="21.6">ción de SCRUM</tspan></text>
  <text class="cls-4" transform="translate(105.88 133.36)">· <tspan x="3.08" y="0">U</tspan><tspan x="7.78" y="0">X / UI</tspan><tspan x="0" y="7.2">· Dise</tspan><tspan x="16.21" y="7.2">ñ</tspan><tspan x="20.29" y="7.2">o </tspan><tspan x="25.62" y="7.2">r</tspan><tspan x="27.95" y="7.2">esponsi</tspan><tspan x="50.95" y="7.2">v</tspan><tspan x="54.11" y="7.2">o</tspan><tspan x="0" y="14.4">· </tspan><tspan x="3.08" y="14.4">F</tspan><tspan x="6.82" y="14.4">r</tspan><tspan x="9.17" y="14.4">a</tspan><tspan x="12.71" y="14.4">m</tspan><tspan x="19.09" y="14.4">e</tspan><tspan x="22.66" y="14.4">w</tspan><tspan x="27.84" y="14.4">o</tspan><tspan x="31.6" y="14.4">r</tspan><tspan x="33.96" y="14.4">k</tspan><tspan x="37.47" y="14.4">s </tspan><tspan x="41.98" y="14.4">C</tspan><tspan x="46.27" y="14.4">SS</tspan><tspan x="0" y="21.6">· </tspan><tspan x="3.08" y="21.6">F</tspan><tspan x="6.82" y="21.6">r</tspan><tspan x="9.17" y="21.6">a</tspan><tspan x="12.71" y="21.6">m</tspan><tspan x="19.09" y="21.6">e</tspan><tspan x="22.66" y="21.6">w</tspan><tspan x="27.84" y="21.6">o</tspan><tspan x="31.6" y="21.6">r</tspan><tspan x="33.96" y="21.6">k</tspan><tspan x="37.47" y="21.6">s J</tspan><tspan x="44.98" y="21.6">a</tspan><tspan x="48.46" y="21.6">v</tspan><tspan x="51.62" y="21.6">asc</tspan><tspan x="61.47" y="21.6">r</tspan><tspan x="63.83" y="21.6">ipt</tspan><tspan x="0" y="28.8">· Imple</tspan><tspan x="20.57" y="28.8">m</tspan><tspan x="26.95" y="28.8">ent</tspan><tspan x="37.07" y="28.8">a</tspan><tspan x="40.62" y="28.8">ción de </tspan><tspan x="64.27" y="28.8">t</tspan><tspan x="66.59" y="28.8">e</tspan><tspan x="70.13" y="28.8">x</tspan><tspan x="73.33" y="28.8">t</tspan><tspan x="75.65" y="28.8">os</tspan><tspan x="0" y="36">· Imple</tspan><tspan x="20.57" y="36">m</tspan><tspan x="26.95" y="36">ent</tspan><tspan x="37.07" y="36">a</tspan><tspan x="40.62" y="36">ción de </tspan><tspan x="0" y="43.2">Im</tspan><tspan x="8.18" y="43.2">á</tspan><tspan x="11.73" y="43.2">ge</tspan><tspan x="19.47" y="43.2">n</tspan><tspan x="23.54" y="43.2">es</tspan></text>
  <text class="cls-4" transform="translate(208.21 133.03)">· Desa<tspan x="18.14" y="0">r</tspan><tspan x="20.5" y="0">r</tspan><tspan x="22.82" y="0">ollo de </tspan><tspan x="44.41" y="0">r</tspan><tspan x="46.74" y="0">ou</tspan><tspan x="54.54" y="0">t</tspan><tspan x="56.86" y="0">e</tspan><tspan x="60.49" y="0">r</tspan><tspan x="62.87" y="0">s</tspan><tspan x="0" y="7.2">· A</tspan><tspan x="7.39" y="7.2">r</tspan><tspan x="9.71" y="7.2">qui</tspan><tspan x="19.43" y="7.2">t</tspan><tspan x="21.76" y="7.2">e</tspan><tspan x="25.38" y="7.2">c</tspan><tspan x="28.79" y="7.2">tu</tspan><tspan x="35.27" y="7.2">r</tspan><tspan x="37.62" y="7.2">a Base de da</tspan><tspan x="75.8" y="7.2">t</tspan><tspan x="78.12" y="7.2">os</tspan><tspan x="0" y="14.4">· Desa</tspan><tspan x="18.14" y="14.4">r</tspan><tspan x="20.5" y="14.4">r</tspan><tspan x="22.82" y="14.4">ollo A</tspan><tspan x="39.45" y="14.4">P</tspan><tspan x="43.7" y="14.4">I</tspan><tspan x="45.51" y="14.4">’</tspan><tspan x="46.69" y="14.4">s</tspan><tspan x="0" y="21.6">· </tspan><tspan x="3.08" y="21.6">C</tspan><tspan x="7.26" y="21.6">onsu</tspan><tspan x="22.06" y="21.6">m</tspan><tspan x="28.43" y="21.6">o de E</tspan><tspan x="47.05" y="21.6">n</tspan><tspan x="51.12" y="21.6">dpoints</tspan><tspan x="0" y="28.8">· I</tspan><tspan x="4.9" y="28.8">t</tspan><tspan x="7.22" y="28.8">e</tspan><tspan x="10.84" y="28.8">r</tspan><tspan x="13.19" y="28.8">a</tspan><tspan x="16.75" y="28.8">cio</tspan><tspan x="25.5" y="28.8">n</tspan><tspan x="29.57" y="28.8">es de Reposi</tspan><tspan x="67.31" y="28.8">t</tspan><tspan x="69.63" y="28.8">o</tspan><tspan x="73.39" y="28.8">r</tspan><tspan x="75.75" y="28.8">ios</tspan></text>
  <text class="cls-4" transform="translate(309.44 134.14)">· UNIT <tspan x="19.54" y="0">T</tspan><tspan x="22.66" y="0">esti</tspan><tspan x="33.26" y="0">n</tspan><tspan x="37.34" y="0">g de </tspan><tspan x="0" y="7.2">C</tspan><tspan x="4.18" y="7.2">ompo</tspan><tspan x="22.13" y="7.2">n</tspan><tspan x="26.21" y="7.2">en</tspan><tspan x="33.89" y="7.2">t</tspan><tspan x="36.22" y="7.2">es</tspan><tspan x="0" y="14.4">· UNIT </tspan><tspan x="19.54" y="14.4">T</tspan><tspan x="22.66" y="14.4">esti</tspan><tspan x="33.26" y="14.4">n</tspan><tspan x="37.34" y="14.4">g de E</tspan><tspan x="56.3" y="14.4">n</tspan><tspan x="60.38" y="14.4">dpoints</tspan><tspan x="0" y="21.6">· Imple</tspan><tspan x="20.57" y="21.6">m</tspan><tspan x="26.95" y="21.6">ent</tspan><tspan x="37.07" y="21.6">a</tspan><tspan x="40.62" y="21.6">ción en </tspan><tspan x="0" y="28.8">Se</tspan><tspan x="7.31" y="28.8">r</tspan><tspan x="9.81" y="28.8">vidor</tspan><tspan x="0" y="36">· </tspan><tspan x="3.08" y="36">T</tspan><tspan x="6.2" y="36">esti</tspan><tspan x="16.81" y="36">n</tspan><tspan x="20.88" y="36">g de </tspan><tspan x="35.83" y="36">b</tspan><tspan x="39.88" y="36">ase de da</tspan><tspan x="68.42" y="36">t</tspan><tspan x="70.74" y="36">os</tspan></text>
</svg>
