<svg id="Capa_1" data-name="Capa 1" xmlns="http://www.w3.org/2000/svg" viewBox="0 0 481.72 459.76">
  <defs>
    <style>
      .cls-1 {
        fill: #f05829;
      }

      .cls-2 {
        font-size: 7.14px;
        fill: #f2f2f2;
        font-family: Montserrat;
      }

      .cls-3 {
        fill: #af4022;
      }

      .cls-4 {
        fill: none;
        stroke: #f7931e;
        stroke-miterlimit: 10;
        stroke-width: 0.57px;
      }

      .cls-5 {
        fill: #1a1a1a;
      }

      .cls-6 {
        fill: #666;
      }

      .cls-7 {
        fill: #999;
      }

      .cls-8 {
        fill: #c1272d;
      }
    </style>
  </defs>
  <title>mapa</title>
  <rect class="cls-1" x="5.93" y="60.96" width="72.89" height="22.47"/>
  <text class="cls-2" transform="translate(25.37 74.04)">US<tspan x="10.04" y="0">U</tspan><tspan x="15.58" y="0">ARIO</tspan></text>
  <rect class="cls-3" x="92.61" width="72.89" height="22.47"/>
  <text class="cls-2" transform="translate(110.08 13.08)">MODE<tspan x="23.47" y="0">L</tspan><tspan x="27.57" y="0">OS</tspan></text>
  <rect class="cls-3" x="92.7" y="30.1" width="72.89" height="22.47"/>
  <text class="cls-2" transform="translate(97.56 43.19)">DI<tspan x="8.05" y="0">S</tspan><tspan x="12.37" y="0">TRIBUIDORES</tspan></text>
  <rect class="cls-3" x="92.4" y="60.16" width="72.89" height="22.47"/>
  <text class="cls-2" transform="translate(109.34 73.24)">SER<tspan x="14.32" y="0">V</tspan><tspan x="19.19" y="0">ICIOS</tspan></text>
  <rect class="cls-3" x="92.49" y="90.26" width="72.89" height="22.47"/>
  <text class="cls-2" transform="translate(96.26 103.35)">FINANCIAMIEN<tspan x="55.34" y="0">T</tspan><tspan x="59.36" y="0">O</tspan></text>
  <rect class="cls-3" x="92.7" y="120.05" width="72.89" height="22.47"/>
  <text class="cls-2" transform="translate(110.29 133.13)">L<tspan x="4.2" y="0">I</tspan><tspan x="6.3" y="0">V</tspan><tspan x="11.17" y="0">E CH</tspan><tspan x="28.75" y="0">A</tspan><tspan x="33.62" y="0">T</tspan></text>
  <line class="cls-4" x1="165.5" y1="10.48" x2="386.56" y2="10.48"/>
  <line class="cls-4" x1="386.56" y1="10.48" x2="386.56" y2="124.46"/>
  <line class="cls-4" x1="165.59" y1="40.05" x2="369.84" y2="40.05"/>
  <line class="cls-4" x1="369.84" y1="40.05" x2="370.63" y2="411.02"/>
  <rect class="cls-5" x="390.7" y="10.76" width="72.89" height="22.47"/>
  <text class="cls-2" x="-9.13" y="-12.15"><tspan x="406.89" y="24.65">Migh</tspan><tspan x="425.35" y="24.65">t</tspan><tspan x="428.17" y="24.65">y </tspan><tspan x="433.91" y="24.65">E</tspan><tspan x="438.62" y="24.65">X</tspan><tspan x="443.07" y="24.65">6</tspan></text>
  <rect class="cls-5" x="390.8" y="40.86" width="72.89" height="22.47"/>
  <text class="cls-2" x="-9.13" y="-12.15"><tspan x="395.63" y="54.89">Solati H</tspan><tspan x="423.11" y="54.89">3</tspan><tspan x="427.06" y="54.89">50 </tspan><tspan x="437.7" y="54.89">C</tspan><tspan x="442.77" y="54.89">a</tspan><tspan x="446.98" y="54.89">r</tspan><tspan x="449.75" y="54.89">ga</tspan></text>
  <rect class="cls-5" x="390.49" y="70.92" width="72.89" height="22.47"/>
  <text class="cls-2" transform="translate(406.53 84)">Migh<tspan x="18.46" y="0">t</tspan><tspan x="21.29" y="0">y </tspan><tspan x="27.02" y="0">E</tspan><tspan x="31.73" y="0">X</tspan><tspan x="36.26" y="0">8</tspan></text>
  <rect class="cls-5" x="390.59" y="101.02" width="72.89" height="22.47"/>
  <text class="cls-2" x="-9.13" y="-12.15"><tspan x="394.41" y="113.63">Solati H</tspan><tspan x="421.88" y="113.63">3</tspan><tspan x="425.84" y="113.63">50 </tspan><tspan x="436.47" y="113.63">P</tspan><tspan x="441.49" y="113.63">asaje</tspan></text>
  <rect class="cls-6" x="375.29" y="131.63" width="72.89" height="22.47"/>
  <text class="cls-2" x="-9.13" y="-12.15"><tspan x="380.38" y="145.53">E</tspan><tspan x="385.1" y="145.53">st</tspan><tspan x="391.48" y="145.53">a</tspan><tspan x="395.71" y="145.53">do de M</tspan><tspan x="424.72" y="145.53">é</tspan><tspan x="428.93" y="145.53">xi</tspan><tspan x="434.66" y="145.53">c</tspan><tspan x="438.61" y="145.53">o</tspan></text>
  <rect class="cls-6" x="375.38" y="161.74" width="72.89" height="22.47"/>
  <text class="cls-2" x="-9.13" y="-12.15"><tspan x="396.17" y="175.77">C</tspan><tspan x="401.13" y="175.77">o</tspan><tspan x="405.59" y="175.77">ahuila</tspan></text>
  <rect class="cls-6" x="375.08" y="191.79" width="72.89" height="22.47"/>
  <text class="cls-2" transform="translate(395.56 204.88)">Du<tspan x="10.7" y="0">r</tspan><tspan x="13.49" y="0">a</tspan><tspan x="17.7" y="0">n</tspan><tspan x="22.55" y="0">go</tspan></text>
  <rect class="cls-6" x="375.17" y="221.9" width="72.89" height="22.47"/>
  <text class="cls-2" x="-9.13" y="-12.15"><tspan x="390.73" y="234.51">Guanajua</tspan><tspan x="425.26" y="234.51">t</tspan><tspan x="428.02" y="234.51">o</tspan></text>
  <rect class="cls-6" x="375.33" y="252.84" width="72.89" height="22.47"/>
  <text class="cls-2" x="-9.13" y="-12.15"><tspan x="400" y="266.73">Jalis</tspan><tspan x="415.12" y="266.73">c</tspan><tspan x="419.07" y="266.73">o</tspan></text>
  <rect class="cls-6" x="375.42" y="282.94" width="72.89" height="22.47"/>
  <text class="cls-2" x="-9.13" y="-12.15"><tspan x="390.51" y="296.97">Nu</tspan><tspan x="401.12" y="296.97">e</tspan><tspan x="405.36" y="296.97">v</tspan><tspan x="409.12" y="296.97">o </tspan><tspan x="415.46" y="296.97">L</tspan><tspan x="419.61" y="296.97">eón</tspan></text>
  <rect class="cls-6" x="375.12" y="313" width="72.89" height="22.47"/>
  <text class="cls-2" transform="translate(398.6 326.08)">Sinal<tspan x="17.27" y="0">o</tspan><tspan x="21.72" y="0">a</tspan></text>
  <rect class="cls-6" x="375.21" y="343.1" width="72.89" height="22.47"/>
  <text class="cls-2" x="-9.13" y="-12.15"><tspan x="396.03" y="355.71">V</tspan><tspan x="400.62" y="355.71">e</tspan><tspan x="404.93" y="355.71">r</tspan><tspan x="407.73" y="355.71">a</tspan><tspan x="411.95" y="355.71">cruz</tspan></text>
  <rect class="cls-6" x="375.72" y="373.5" width="72.89" height="22.47"/>
  <text class="cls-2" x="-9.13" y="-12.15"><tspan x="397.54" y="386.11">Y</tspan><tspan x="401.82" y="386.11">ucatán</tspan></text>
  <line class="cls-4" x1="165.29" y1="71.8" x2="276.03" y2="71.8"/>
  <line class="cls-4" x1="276.03" y1="71.8" x2="276.82" y2="411.02"/>
  <rect class="cls-7" x="281.48" y="131.67" width="72.89" height="22.47"/>
  <text class="cls-2" x="-9.13" y="-12.15"><tspan x="286.57" y="145.56">E</tspan><tspan x="291.29" y="145.56">st</tspan><tspan x="297.68" y="145.56">a</tspan><tspan x="301.9" y="145.56">do de M</tspan><tspan x="330.92" y="145.56">é</tspan><tspan x="335.12" y="145.56">xi</tspan><tspan x="340.85" y="145.56">c</tspan><tspan x="344.8" y="145.56">o</tspan></text>
  <rect class="cls-7" x="281.57" y="161.77" width="72.89" height="22.47"/>
  <text class="cls-2" x="-9.13" y="-12.15"><tspan x="302.36" y="175.8">C</tspan><tspan x="307.33" y="175.8">o</tspan><tspan x="311.78" y="175.8">ahuila</tspan></text>
  <rect class="cls-7" x="281.27" y="191.83" width="72.89" height="22.47"/>
  <text class="cls-2" transform="translate(301.76 204.91)">Du<tspan x="10.7" y="0">r</tspan><tspan x="13.49" y="0">a</tspan><tspan x="17.7" y="0">n</tspan><tspan x="22.55" y="0">go</tspan></text>
  <rect class="cls-7" x="281.36" y="221.93" width="72.89" height="22.47"/>
  <text class="cls-2" x="-9.13" y="-12.15"><tspan x="296.92" y="234.54">Guanajua</tspan><tspan x="331.46" y="234.54">t</tspan><tspan x="334.22" y="234.54">o</tspan></text>
  <rect class="cls-7" x="281.52" y="252.87" width="72.89" height="22.47"/>
  <text class="cls-2" x="-9.13" y="-12.15"><tspan x="306.2" y="266.76">Jalis</tspan><tspan x="321.31" y="266.76">c</tspan><tspan x="325.26" y="266.76">o</tspan></text>
  <rect class="cls-7" x="281.61" y="282.98" width="72.89" height="22.47"/>
  <text class="cls-2" x="-9.13" y="-12.15"><tspan x="296.71" y="297">Nu</tspan><tspan x="307.31" y="297">e</tspan><tspan x="311.55" y="297">v</tspan><tspan x="315.31" y="297">o </tspan><tspan x="321.65" y="297">L</tspan><tspan x="325.8" y="297">eón</tspan></text>
  <rect class="cls-7" x="281.31" y="313.03" width="72.89" height="22.47"/>
  <text class="cls-2" transform="translate(304.79 326.11)">Sinal<tspan x="17.27" y="0">o</tspan><tspan x="21.72" y="0">a</tspan></text>
  <rect class="cls-7" x="281.4" y="343.13" width="72.89" height="22.47"/>
  <text class="cls-2" x="-9.13" y="-12.15"><tspan x="302.23" y="355.74">V</tspan><tspan x="306.81" y="355.74">e</tspan><tspan x="311.12" y="355.74">r</tspan><tspan x="313.92" y="355.74">a</tspan><tspan x="318.15" y="355.74">cruz</tspan></text>
  <rect class="cls-7" x="281.91" y="373.53" width="72.89" height="22.47"/>
  <text class="cls-2" x="-9.13" y="-12.15"><tspan x="303.73" y="386.14">Y</tspan><tspan x="308.01" y="386.14">ucatán</tspan></text>
  <line class="cls-4" y1="411.02" x2="481.72" y2="411.02"/>
  <line class="cls-4" x1="165.38" y1="100.27" x2="191.19" y2="100.27"/>
  <line class="cls-4" x1="191.2" y1="100.27" x2="191.98" y2="411.02"/>
  <rect class="cls-8" x="196.49" y="131.85" width="72.89" height="22.47"/>
  <text class="cls-2" x="-9.13" y="-12.15"><tspan x="213.26" y="145.74">OPCIONES</tspan></text>
  <rect class="cls-8" x="196.58" y="161.95" width="72.89" height="22.47"/>
  <text class="cls-2" x="-9.13" y="-12.15"><tspan x="210.34" y="175.98">SIMU</tspan><tspan x="229.35" y="175.98">L</tspan><tspan x="233.56" y="175.98">ADOR</tspan></text>
  <rect class="cls-8" x="196.28" y="192.01" width="72.89" height="22.47"/>
  <text class="cls-2" transform="translate(213.05 205.09)">OPCIONES</text>
  <line class="cls-4" x1="128.93" y1="142.99" x2="129.72" y2="275.53"/>
  <rect class="cls-8" x="95.35" y="275.62" width="72.89" height="22.47"/>
  <text class="cls-2" x="-9.13" y="-12.15"><tspan x="106.76" y="289.52">TIEMPO REAL</tspan></text>
  <rect class="cls-8" x="95.44" y="305.73" width="72.89" height="22.47"/>
  <text class="cls-2" x="-9.13" y="-12.15"><tspan x="120.25" y="319.76">T</tspan><tspan x="124.34" y="319.76">E</tspan><tspan x="129.05" y="319.76">X</tspan><tspan x="133.52" y="319.76">T</tspan><tspan x="137.54" y="319.76">O</tspan></text>
  <rect class="cls-8" x="95.14" y="335.78" width="72.89" height="22.47"/>
  <text class="cls-2" transform="translate(119.76 348.87)">V<tspan x="4.87" y="0">ID</tspan><tspan x="12.92" y="0">E</tspan><tspan x="17.67" y="0">O</tspan></text>
  <line class="cls-4" x1="239.14" y1="411.24" x2="239.2" y2="437.36"/>
  <rect class="cls-5" x="151.66" y="437.29" width="173.92" height="22.47"/>
  <text class="cls-2" x="-9.13" y="-12.15"><tspan x="202.85" y="451.05">ANÁLISIS DE </tspan><tspan x="250.58" y="451.05">D</tspan><tspan x="256.4" y="451.05">A</tspan><tspan x="261.27" y="451.05">T</tspan><tspan x="265.29" y="451.05">OS</tspan></text>
</svg>
