<svg id="Capa_1" data-name="Capa 1" xmlns="http://www.w3.org/2000/svg" viewBox="0 0 460.67 165.51">
  <defs>
    <style>
      .cls-1 {
        fill: #f7931e;
      }

      .cls-2, .cls-7 {
        font-size: 12px;
        font-family: Montserrat;
      }

      .cls-2 {
        fill: #f2f2f2;
      }

      .cls-3 {
        fill: #f15a24;
      }

      .cls-4 {
        fill: #ed1c24;
      }

      .cls-5 {
        fill: #333;
      }

      .cls-6 {
        fill: none;
        stroke: #333;
        stroke-miterlimit: 10;
        stroke-width: 0.85px;
      }

      .cls-7 {
        fill: #1a1a1a;
      }
    </style>
  </defs>
  <title>mern</title>
  <rect class="cls-1" y="19.09" width="135.11" height="96.44"/>
  <text class="cls-2" transform="translate(31.56 70.2)">FRONTEND</text>
  <rect class="cls-3" x="162.22" y="19.2" width="135.11" height="96.44"/>
  <text class="cls-2" transform="translate(193.78 70.31)">B<tspan x="9.28" y="0">A</tspan><tspan x="18.83" y="0">CKEND</tspan></text>
  <text x="-8.89" y="-4.47"/>  <rect class="cls-4" x="325.56" y="18.87" width="135.11" height="96.44"/>
  <text class="cls-2" transform="translate(379.67 69.98)">CRM</text>
  <text x="-8.89" y="-4.47"/>  <path class="cls-5" d="M144,69.67l0.31-1c0.2-.65.5-1.75,0.87-2.81L145.81,64c0.23-.68.47-1.26,0.73-2l0.83-2.2a0.48,0.48,0,0,1,.22-0.32,0.37,0.37,0,0,1,.23.16,0.53,0.53,0,0,0,.47.12l9.39,0,9.39,0a0.61,0.61,0,0,0,.47-0.09,0.27,0.27,0,0,1,.23-0.15A0.84,0.84,0,0,1,168,60l0.82,2.2c0.26,0.71.5,1.29,0.72,2L170.15,66c0.37,1.05.66,2.12,0.86,2.75l0.3,1-0.31,1c-0.2.63-.5,1.69-0.87,2.74l-0.62,1.82c-0.23.69-.47,1.27-0.73,2l-0.83,2.2a0.84,0.84,0,0,1-.22.41,0.27,0.27,0,0,1-.23-0.15,0.61,0.61,0,0,0-.47-0.09l-9.39,0-9.39,0a0.53,0.53,0,0,0-.47.11,0.37,0.37,0,0,1-.23.16,0.48,0.48,0,0,1-.22-0.32l-0.82-2.2c-0.26-.71-0.5-1.29-0.72-2l-0.61-1.85c-0.37-1.06-.66-2.17-0.86-2.82Z" transform="translate(-8.89 -4.47)"/>
  <path class="cls-5" d="M306.6,68.13l0.31-1c0.2-.65.5-1.75,0.87-2.81l0.62-1.85c0.23-.68.47-1.26,0.73-2l0.83-2.2a0.48,0.48,0,0,1,.22-0.32,0.37,0.37,0,0,1,.23.16,0.53,0.53,0,0,0,.47.12l9.39,0,9.39,0a0.61,0.61,0,0,0,.47-0.09,0.27,0.27,0,0,1,.23-0.15,0.83,0.83,0,0,1,.22.41l0.82,2.2c0.26,0.71.5,1.29,0.72,2l0.61,1.82c0.37,1.05.66,2.12,0.86,2.75l0.3,1-0.31,1c-0.2.63-.5,1.69-0.87,2.74l-0.62,1.82c-0.23.69-.47,1.27-0.73,2l-0.83,2.2a0.83,0.83,0,0,1-.22.41,0.27,0.27,0,0,1-.23-0.15,0.61,0.61,0,0,0-.47-0.09l-9.39,0-9.39,0a0.53,0.53,0,0,0-.47.11,0.37,0.37,0,0,1-.23.16,0.48,0.48,0,0,1-.22-0.32l-0.82-2.2c-0.26-.71-0.5-1.29-0.72-2L307.76,72c-0.37-1.06-.66-2.17-0.86-2.82Z" transform="translate(-8.89 -4.47)"/>
  <line class="cls-6" x1="148.74" y1="75.17" x2="148.74" y2="135.98"/>
  <text class="cls-7" transform="translate(131.67 149.42)">RE<tspan x="17.02" y="0">S</tspan><tspan x="24.78" y="0">T</tspan></text>
  <line class="cls-6" x1="311.56" y1="73.61" x2="311.56" y2="134.42"/>
  <text class="cls-7" transform="translate(295.61 147.87)">RE<tspan x="17.02" y="0">S</tspan><tspan x="24.78" y="0">T</tspan><tspan x="-16.04" y="14.4">OA</tspan><tspan x="3.56" y="14.4">uth </tspan><tspan x="29.48" y="14.4">2</tspan><tspan x="36.9" y="14.4">.</tspan><tspan x="40.37" y="14.4">0</tspan></text>
  <text class="cls-7" transform="translate(38.89 10.53)">RE<tspan x="17.02" y="0">A</tspan><tspan x="26.57" y="0">C</tspan><tspan x="35.44" y="0">T</tspan><tspan x="42.86" y="0">.</tspan><tspan x="47.11" y="0">JS</tspan></text>
  <text class="cls-7" transform="translate(197.89 10.2)">NOD<tspan x="29.74" y="0">E</tspan><tspan x="37.93" y="0">.</tspan><tspan x="42.18" y="0">JS</tspan></text>
</svg>
