<svg id="Capa_1" data-name="Capa 1" xmlns="http://www.w3.org/2000/svg" xmlns:xlink="http://www.w3.org/1999/xlink" viewBox="0 0 485.15 354.24">
  <defs>
    <style>
      .cls-1 {
        fill: none;
      }

      .cls-2 {
        fill: #ed7d31;
      }

      .cls-3, .cls-8 {
        font-size: 6.89px;
        font-family: Montserrat;
      }

      .cls-4 {
        white-space: pre;
      }

      .cls-5 {
        clip-path: url(#clip-path);
      }

      .cls-6 {
        clip-path: url(#clip-path-3);
      }

      .cls-7 {
        clip-path: url(#clip-path-5);
      }

      .cls-8 {
        fill: #fff;
      }

      .cls-9 {
        clip-path: url(#clip-path-7);
      }

      .cls-10 {
        clip-path: url(#clip-path-8);
      }

      .cls-11 {
        fill: #d4d4d4;
      }

      .cls-12 {
        clip-path: url(#clip-path-9);
      }

      .cls-13 {
        stroke: #000;
        stroke-miterlimit: 10;
      }
    </style>
    <clipPath id="clip-path" transform="translate(-8.43 -5.41)">
      <rect class="cls-1" x="9.57" y="53.06" width="156.17" height="25.26"/>
    </clipPath>
    <clipPath id="clip-path-3" transform="translate(-8.43 -5.41)">
      <rect class="cls-1" x="9.57" y="291.9" width="156.17" height="22.39"/>
    </clipPath>
    <clipPath id="clip-path-5" transform="translate(-8.43 -5.41)">
      <rect class="cls-1" x="9.57" y="314.87" width="156.17" height="25.26"/>
    </clipPath>
    <clipPath id="clip-path-7" transform="translate(-8.43 -5.41)">
      <rect class="cls-1" x="266.79" y="192" width="105.64" height="36.17"/>
    </clipPath>
    <clipPath id="clip-path-8" transform="translate(-8.43 -5.41)">
      <rect class="cls-1" x="373" y="192" width="119.42" height="36.17"/>
    </clipPath>
    <clipPath id="clip-path-9" transform="translate(-8.43 -5.41)">
      <polyline class="cls-1" points="9 359.08 493 359.08 493 5.41"/>
    </clipPath>
  </defs>
  <title>tabla-costos</title>
  <rect class="cls-2" x="364" y="21.09" width="120.57" height="26.56"/>
  <rect class="cls-2" x="364" y="164.78" width="120.57" height="21.82"/>
  <rect x="0.57" y="308.89" width="364" height="44.78"/>
  <text class="cls-3" transform="translate(2.3 16.65)">N<tspan x="5.73" y="0">o</tspan><tspan x="10.21" y="0">t</tspan><tspan x="13.38" y="0">e</tspan><tspan x="18.06" y="0">:</tspan><tspan x="20.15" y="0"> </tspan><tspan x="22.03" y="0">Los costos presentados son sin IVA</tspan></text>
  <text class="cls-3" transform="translate(2.3 36.78)">C<tspan x="5.08" y="0">on</tspan><tspan x="13.52" y="0">ce</tspan><tspan x="21.67" y="0">p</tspan><tspan x="26.11" y="0">to </tspan></text>
  <text class="cls-3" transform="translate(177.41 36.78)">O<tspan x="5.57" y="0">r</tspan><tspan x="8.4" y="0">igin</tspan><tspan x="20.37" y="0">a</tspan><tspan x="24.5" y="0">l </tspan><tspan x="27.57" y="0">C</tspan><tspan x="32.66" y="0">o</tspan><tspan x="36.67" y="0">s</tspan><tspan x="40.04" y="0">t</tspan><tspan x="42.72" y="0"> </tspan><tspan x="44.25" y="0">MX</tspan><tspan x="55.12" y="0">N</tspan><tspan x="60.92" y="0"> </tspan></text>
  <text class="cls-3" transform="translate(283.62 36.78)"><tspan class="cls-4"> I</tspan><tspan x="3.32" y="0">W</tspan><tspan x="10.58" y="0">M</tspan><tspan class="cls-4" x="17.17" y="0">  </tspan><tspan x="20.24" y="0">P</tspan><tspan x="25.13" y="0">r</tspan><tspan x="27.96" y="0">ofi</tspan><tspan x="36.21" y="0">t</tspan><tspan x="38.88" y="0"> </tspan><tspan x="40.41" y="0">MX</tspan><tspan x="51.28" y="0">N</tspan><tspan x="57.09" y="0"> </tspan></text>
  <text class="cls-3" transform="translate(372.62 36.78)">C<tspan x="5.08" y="0">o</tspan><tspan x="9.1" y="0">s</tspan><tspan x="12.47" y="0">t</tspan><tspan class="cls-4" x="15.14" y="0"> in</tspan><tspan x="22.63" y="0">c</tspan><tspan x="26.57" y="0">luding I</tspan><tspan x="50.68" y="0">W</tspan><tspan x="57.94" y="0">MM</tspan><tspan class="cls-4" x="71.11" y="0"> G</tspan><tspan x="77.8" y="0">a</tspan><tspan x="81.93" y="0">in </tspan><tspan x="89.42" y="0">MX</tspan><tspan x="100.29" y="0">N</tspan><tspan x="106.09" y="0"> </tspan></text>
  <g class="cls-5">
    <text class="cls-3" transform="translate(7.46 58.54)">Co<tspan x="9.47" y="0">r</tspan><tspan x="12.11" y="0">e</tspan><tspan x="16.34" y="0"> </tspan><tspan x="17.88" y="0">Sys</tspan><tspan x="28.71" y="0">t</tspan><tspan x="31.2" y="0">e</tspan><tspan x="35.43" y="0">m</tspan><tspan x="42.78" y="0"> </tspan><tspan x="44.32" y="0">(P</tspan><tspan x="51.35" y="0">ubli</tspan><tspan x="64.74" y="0">c</tspan><tspan class="cls-4" x="68.5" y="0"> W</tspan><tspan x="77.29" y="0">eb</tspan><tspan x="86.33" y="0">s</tspan><tspan x="89.52" y="0">i</tspan><tspan x="91.42" y="0">t</tspan><tspan x="93.91" y="0">e</tspan><tspan x="98.14" y="0">, </tspan><tspan x="100.75" y="0">A</tspan><tspan x="105.49" y="0">ppl</tspan><tspan x="117.01" y="0">y</tspan><tspan x="120.51" y="0"> </tspan><tspan x="122.05" y="0">Sys</tspan><tspan x="132.88" y="0">t</tspan><tspan x="135.37" y="0">e</tspan><tspan x="139.6" y="0">m</tspan><tspan x="146.95" y="0">,</tspan><tspan x="148.02" y="0"> </tspan></text>
  </g>
  <g class="cls-5">
    <text class="cls-3" transform="translate(7.46 68.73)">A<tspan x="4.74" y="0">d</tspan><tspan x="9.55" y="0">m</tspan><tspan x="16.91" y="0">in</tspan><tspan x="23.6" y="0"> </tspan><tspan x="25.14" y="0">Sys</tspan><tspan x="35.97" y="0">t</tspan><tspan x="38.46" y="0">e</tspan><tspan x="42.69" y="0">m) </tspan></text>
  </g>
  <text class="cls-3" transform="translate(188.32 62.58)">$140<tspan x="16.17" y="0">,</tspan><tspan x="17.24" y="0">000</tspan><tspan x="31.27" y="0">.</tspan><tspan x="32.34" y="0">0</tspan><tspan x="37.02" y="0">0</tspan></text>
  <text class="cls-3" transform="translate(293.39 62.58)">$60<tspan x="13.27" y="0">,</tspan><tspan x="14.34" y="0">000</tspan><tspan x="28.37" y="0">.</tspan><tspan x="29.44" y="0">0</tspan><tspan x="34.12" y="0">0</tspan></text>
  <text class="cls-3" transform="translate(404.77 62.58)">$200<tspan x="17.69" y="0">,</tspan><tspan x="18.76" y="0">000</tspan><tspan x="32.79" y="0">.</tspan><tspan x="33.86" y="0">0</tspan><tspan x="38.54" y="0">0</tspan></text>
  <text class="cls-3" transform="translate(7.46 90.71)">Di<tspan x="7.79" y="0">c</tspan><tspan x="11.54" y="0">t</tspan><tspan x="14.03" y="0">iona</tspan><tspan x="29.25" y="0">r</tspan><tspan x="31.89" y="0">ie</tspan><tspan x="38.03" y="0">s</tspan><tspan class="cls-4" x="41.22" y="0"> t</tspan><tspan x="45.24" y="0">o</tspan><tspan x="49.63" y="0"> </tspan><tspan x="51.17" y="0">S</tspan><tspan x="55.31" y="0">uppo</tspan><tspan x="74.08" y="0">r</tspan><tspan x="76.72" y="0">t </tspan><tspan x="80.74" y="0">3</tspan><tspan x="84.7" y="0"> </tspan><tspan x="86.24" y="0">language</tspan><tspan x="119.91" y="0">s</tspan></text>
  <text class="cls-3" transform="translate(190.04 90.71)">$35<tspan x="12.25" y="0">,</tspan><tspan x="13.32" y="0">000</tspan><tspan x="27.35" y="0">.</tspan><tspan x="28.42" y="0">0</tspan><tspan x="33.1" y="0">0</tspan></text>
  <text class="cls-3" transform="translate(295.68 90.71)">$5<tspan x="8.29" y="0">,</tspan><tspan x="9.36" y="0">000</tspan><tspan x="23.39" y="0">.</tspan><tspan x="24.46" y="0">0</tspan><tspan x="29.14" y="0">0</tspan></text>
  <text class="cls-3" transform="translate(406.49 90.71)">$40<tspan x="13.63" y="0">,</tspan><tspan x="14.7" y="0">000</tspan><tspan x="28.73" y="0">.</tspan><tspan x="29.8" y="0">0</tspan><tspan x="34.48" y="0">0</tspan></text>
  <text class="cls-3" transform="translate(7.46 121.14)">W<tspan x="7.25" y="0">ha</tspan><tspan x="16.18" y="0">t</tspan><tspan x="18.67" y="0">sA</tspan><tspan x="26.6" y="0">pp</tspan><tspan x="36.22" y="0"> </tspan><tspan x="37.75" y="0">No</tspan><tspan x="47.95" y="0">t</tspan><tspan x="50.44" y="0">ifi</tspan><tspan x="56.95" y="0">c</tspan><tspan x="60.7" y="0">a</tspan><tspan x="64.84" y="0">t</tspan><tspan x="67.33" y="0">ion</tspan><tspan x="78.42" y="0"> </tspan><tspan x="79.95" y="0">Sys</tspan><tspan x="90.78" y="0">t</tspan><tspan x="93.27" y="0">e</tspan><tspan x="97.5" y="0">m </tspan></text>
  <text class="cls-3" transform="translate(192.34 121.14)">$7<tspan x="8.44" y="0">,</tspan><tspan x="9.51" y="0">000</tspan><tspan x="23.54" y="0">.</tspan><tspan x="24.61" y="0">0</tspan><tspan x="29.29" y="0">0</tspan></text>
  <text class="cls-3" transform="translate(295.68 121.14)">$3<tspan x="8.29" y="0">,</tspan><tspan x="9.36" y="0">000</tspan><tspan x="23.39" y="0">.</tspan><tspan x="24.46" y="0">0</tspan><tspan x="29.14" y="0">0</tspan></text>
  <text class="cls-3" transform="translate(406.49 121.14)">$10<tspan x="11.55" y="0">,</tspan><tspan x="12.62" y="0">000</tspan><tspan x="26.65" y="0">.</tspan><tspan x="27.72" y="0">0</tspan><tspan x="32.39" y="0">0</tspan></text>
  <text class="cls-3" transform="translate(7.46 147.55)">To<tspan x="7.61" y="0">t</tspan><tspan x="10.28" y="0">a</tspan><tspan x="14.42" y="0">l</tspan><tspan x="15.96" y="0"> </tspan></text>
  <text class="cls-3" transform="translate(188.32 147.55)">$182<tspan x="15.36" y="0">,</tspan><tspan x="16.43" y="0">000</tspan><tspan x="30.47" y="0">.</tspan><tspan x="31.53" y="0">0</tspan><tspan x="36.21" y="0">0</tspan></text>
  <text class="cls-3" transform="translate(293.39 147.55)">$68<tspan x="13.08" y="0">,</tspan><tspan x="14.14" y="0">000</tspan><tspan x="28.18" y="0">.</tspan><tspan x="29.25" y="0">0</tspan><tspan x="33.92" y="0">0</tspan></text>
  <text class="cls-3" transform="translate(404.77 147.55)">$250<tspan x="16.98" y="0">,</tspan><tspan x="18.04" y="0">000</tspan><tspan x="32.08" y="0">.</tspan><tspan x="33.15" y="0">0</tspan><tspan x="37.82" y="0">0</tspan></text>
  <text class="cls-3" transform="translate(64.88 177.98)">C<tspan x="5.08" y="0">on</tspan><tspan x="13.52" y="0">ce</tspan><tspan x="21.67" y="0">p</tspan><tspan x="26.11" y="0">t </tspan></text>
  <text class="cls-3" transform="translate(186.02 177.98)">O<tspan x="5.57" y="0">r</tspan><tspan x="8.4" y="0">igin</tspan><tspan x="20.37" y="0">a</tspan><tspan x="24.5" y="0">l </tspan><tspan x="27.57" y="0">C</tspan><tspan x="32.66" y="0">o</tspan><tspan x="36.67" y="0">s</tspan><tspan x="40.04" y="0">t </tspan></text>
  <text class="cls-3" transform="translate(283.62 177.98)"><tspan class="cls-4"> I</tspan><tspan x="3.32" y="0">W</tspan><tspan x="10.58" y="0">M</tspan><tspan class="cls-4" x="17.17" y="0">  </tspan><tspan x="20.24" y="0">P</tspan><tspan x="25.13" y="0">r</tspan><tspan x="27.96" y="0">ofi</tspan><tspan x="36.21" y="0">t</tspan><tspan x="38.88" y="0"> </tspan><tspan x="40.41" y="0">MX</tspan><tspan x="51.28" y="0">N</tspan><tspan x="57.09" y="0"> </tspan></text>
  <text class="cls-3" transform="translate(382.38 177.98)">C<tspan x="5.08" y="0">o</tspan><tspan x="9.1" y="0">s</tspan><tspan x="12.47" y="0">t</tspan><tspan class="cls-4" x="15.14" y="0"> in</tspan><tspan x="22.63" y="0">c</tspan><tspan x="26.57" y="0">luding I</tspan><tspan x="50.68" y="0">W</tspan><tspan x="57.94" y="0">MM</tspan><tspan class="cls-4" x="71.11" y="0"> G</tspan><tspan x="77.8" y="0">a</tspan><tspan x="81.93" y="0">i</tspan><tspan x="83.47" y="0">n</tspan></text>
  <text class="cls-3" transform="translate(2.3 199.23)">M<tspan x="6.59" y="0">oinl</tspan><tspan x="19.58" y="0">y</tspan><tspan x="23.08" y="0"> </tspan><tspan x="24.62" y="0">M</tspan><tspan x="31.2" y="0">an</tspan><tspan x="40.13" y="0">t</tspan><tspan x="42.62" y="0">enan</tspan><tspan x="60.57" y="0">c</tspan><tspan x="64.32" y="0">e</tspan><tspan x="68.55" y="0"> </tspan></text>
  <text class="cls-3" transform="translate(192.34 199.23)">$8<tspan x="8.81" y="0">,</tspan><tspan x="9.88" y="0">000</tspan><tspan x="23.91" y="0">.</tspan><tspan x="24.98" y="0">0</tspan><tspan x="29.66" y="0">0</tspan></text>
  <text class="cls-3" transform="translate(2.3 213.97)">36<tspan x="8.23" y="0"> </tspan><tspan x="9.76" y="0">hou</tspan><tspan x="23.7" y="0">rs</tspan><tspan x="29.53" y="0"> </tspan><tspan x="31.06" y="0">o</tspan><tspan x="35.45" y="0">f </tspan><tspan x="38.95" y="0">de</tspan><tspan x="47.99" y="0">v</tspan><tspan x="51.49" y="0">elop</tspan><tspan x="66.82" y="0">m</tspan><tspan x="74.18" y="0">en</tspan><tspan x="83.2" y="0">t </tspan><tspan x="87.22" y="0">pe</tspan><tspan x="96.26" y="0">r</tspan><tspan x="98.9" y="0"> </tspan><tspan x="100.44" y="0">m</tspan><tspan x="107.79" y="0">on</tspan><tspan x="116.97" y="0">t</tspan><tspan x="119.46" y="0">h</tspan></text>
  <text class="cls-3" transform="translate(190.04 214.73)">$15<tspan x="10.83" y="0">,</tspan><tspan x="11.9" y="0">000</tspan><tspan x="25.93" y="0">.</tspan><tspan x="27" y="0">0</tspan><tspan x="31.68" y="0">0</tspan></text>
  <text class="cls-3" transform="translate(2.3 236.54)">T<tspan x="3.59" y="0">o</tspan><tspan x="7.98" y="0">t</tspan><tspan x="10.47" y="0">al</tspan><tspan x="16.51" y="0"> </tspan><tspan x="18.05" y="0">M</tspan><tspan x="24.64" y="0">on</tspan><tspan x="33.81" y="0">t</tspan><tspan x="36.3" y="0">l</tspan><tspan x="38.21" y="0">y</tspan><tspan x="41.71" y="0"> </tspan><tspan x="43.25" y="0">Co</tspan><tspan x="52.72" y="0">s</tspan><tspan x="55.91" y="0">t</tspan><tspan x="58.4" y="0"> </tspan></text>
  <text class="cls-3" transform="translate(190.04 236.54)">$23<tspan x="12.3" y="0">,</tspan><tspan x="13.37" y="0">000</tspan><tspan x="27.4" y="0">.</tspan><tspan x="28.47" y="0">0</tspan><tspan x="33.15" y="0">0</tspan></text>
  <text class="cls-3" transform="translate(295.68 236.54)">$4<tspan x="8.95" y="0">,</tspan><tspan x="10.02" y="0">000</tspan><tspan x="24.05" y="0">.</tspan><tspan x="25.12" y="0">0</tspan><tspan x="29.8" y="0">0</tspan></text>
  <text class="cls-3" transform="translate(406.49 236.54)">$27<tspan x="12.45" y="0">,</tspan><tspan x="13.52" y="0">000</tspan><tspan x="27.55" y="0">.</tspan><tspan x="28.62" y="0">0</tspan><tspan x="33.3" y="0">0</tspan></text>
  <text class="cls-3" transform="translate(2.3 258.94)">T<tspan x="3.59" y="0">o</tspan><tspan x="7.98" y="0">t</tspan><tspan x="10.47" y="0">al</tspan><tspan x="16.51" y="0"> </tspan><tspan x="18.05" y="0">Co</tspan><tspan x="27.52" y="0">s</tspan><tspan x="30.71" y="0">t f</tspan><tspan x="36.69" y="0">o</tspan><tspan x="41.08" y="0">r</tspan><tspan x="43.72" y="0"> </tspan><tspan x="45.26" y="0">1</tspan><tspan x="47.8" y="0"> </tspan><tspan x="49.34" y="0">y</tspan><tspan x="52.84" y="0">ea</tspan><tspan x="61.21" y="0">r </tspan></text>
  <text class="cls-3" transform="translate(188.32 258.94)">$276<tspan x="16.71" y="0">,</tspan><tspan x="17.78" y="0">000</tspan><tspan x="31.82" y="0">.</tspan><tspan x="32.88" y="0">0</tspan><tspan x="37.56" y="0">0</tspan></text>
  <text class="cls-3" transform="translate(293.39 258.94)">$48<tspan x="13.43" y="0">,</tspan><tspan x="14.5" y="0">000</tspan><tspan x="28.54" y="0">.</tspan><tspan x="29.6" y="0">0</tspan><tspan x="34.28" y="0">0</tspan></text>
  <text class="cls-3" transform="translate(404.77 258.94)">$324<tspan x="16.92" y="0">,</tspan><tspan x="17.99" y="0">000</tspan><tspan x="32.02" y="0">.</tspan><tspan x="33.09" y="0">0</tspan><tspan x="37.77" y="0">0</tspan></text>
  <g class="cls-6">
    <text class="cls-3" transform="translate(2.3 295.68)">T<tspan x="3.59" y="0">o</tspan><tspan x="7.98" y="0">t</tspan><tspan x="10.47" y="0">al</tspan><tspan x="16.51" y="0"> </tspan><tspan x="18.05" y="0">c</tspan><tspan x="21.81" y="0">o</tspan><tspan x="26.19" y="0">s</tspan><tspan x="29.38" y="0">t </tspan><tspan x="33.41" y="0">o</tspan><tspan x="37.8" y="0">f t</tspan><tspan x="43.78" y="0">he</tspan><tspan x="52.79" y="0"> </tspan><tspan x="54.33" y="0">p</tspan><tspan x="59.14" y="0">r</tspan><tspan x="61.78" y="0">oje</tspan><tspan x="72.34" y="0">c</tspan><tspan x="76.1" y="0">t </tspan><tspan x="80.12" y="0">(</tspan><tspan x="82.26" y="0">de</tspan><tspan x="91.3" y="0">v</tspan><tspan x="94.8" y="0">elop</tspan><tspan x="110.14" y="0">m</tspan><tspan x="117.49" y="0">en</tspan><tspan x="126.51" y="0">t </tspan><tspan x="130.54" y="0">and</tspan><tspan x="144.27" y="0"> </tspan><tspan x="145.81" y="0">1</tspan><tspan x="148.35" y="0"> </tspan><tspan x="149.89" y="0">y</tspan><tspan x="153.39" y="0">ea</tspan><tspan x="161.76" y="0">r </tspan></text>
  </g>
  <g class="cls-6">
    <text class="cls-3" transform="translate(2.3 304.87)">m<tspan x="7.36" y="0">ain</tspan><tspan x="18.2" y="0">t</tspan><tspan x="20.68" y="0">enan</tspan><tspan x="38.63" y="0">c</tspan><tspan x="42.38" y="0">e</tspan><tspan x="46.62" y="0"> </tspan><tspan x="48.15" y="0">wi</tspan><tspan x="56.02" y="0">t</tspan><tspan x="58.51" y="0">h</tspan><tspan x="63.29" y="0"> </tspan><tspan x="64.83" y="0">no</tspan><tspan class="cls-4" x="74.01" y="0"> IWW</tspan><tspan x="91.84" y="0">M</tspan><tspan x="98.42" y="0"> </tspan><tspan x="99.96" y="0">gain</tspan><tspan x="115.65" y="0">) </tspan></text>
  </g>
  <text class="cls-3" transform="translate(291.66 300.27)">$458<tspan x="17.4" y="0">,</tspan><tspan x="18.46" y="0">000</tspan><tspan x="32.5" y="0">.</tspan><tspan x="33.57" y="0">0</tspan><tspan x="38.24" y="0">0</tspan></text>
  <text class="cls-3" transform="translate(407.24 302.16)">$574<tspan x="17.02" y="0">,</tspan><tspan x="18.09" y="0">000</tspan><tspan x="32.13" y="0">.</tspan><tspan x="33.19" y="0">0</tspan><tspan x="37.87" y="0">0</tspan></text>
  <g class="cls-7">
    <text class="cls-8" transform="translate(2.3 319.8)">To<tspan x="7.61" y="0">t</tspan><tspan x="10.28" y="0">a</tspan><tspan x="14.42" y="0">l IWW</tspan><tspan x="33.79" y="0">M</tspan><tspan class="cls-4" x="40.37" y="0"> g</tspan><tspan x="46.39" y="0">a</tspan><tspan x="50.53" y="0">in </tspan><tspan x="58.02" y="0">(</tspan><tspan x="60.16" y="0">d</tspan><tspan x="64.6" y="0">eve</tspan><tspan x="76.74" y="0">lop</tspan><tspan x="86.73" y="0">me</tspan><tspan x="98.51" y="0">n</tspan><tspan x="102.92" y="0">t</tspan><tspan x="105.6" y="0"> </tspan><tspan x="107.13" y="0">a</tspan><tspan x="111.27" y="0">nd </tspan><tspan x="121.66" y="0">1</tspan><tspan x="124.21" y="0"> </tspan><tspan x="125.74" y="0">year</tspan><tspan x="140.62" y="0"> </tspan></text>
  </g>
  <g class="cls-7">
    <text class="cls-8" transform="translate(2.3 328.98)">ma<tspan x="11.68" y="0">i</tspan><tspan x="13.21" y="0">n</tspan><tspan x="17.63" y="0">t</tspan><tspan x="20.3" y="0">e</tspan><tspan x="24.53" y="0">n</tspan><tspan x="28.95" y="0">a</tspan><tspan x="33.09" y="0">n</tspan><tspan x="37.51" y="0">ce</tspan><tspan x="45.68" y="0">) </tspan></text>
  </g>
  <text class="cls-8" transform="translate(291.66 324.39)">$116<tspan x="13.68" y="0">,</tspan><tspan x="14.74" y="0">000</tspan><tspan x="28.78" y="0">.</tspan><tspan x="29.85" y="0">0</tspan><tspan x="34.52" y="0">0</tspan></text>
  <text class="cls-3" transform="translate(408.74 325)">$116<tspan x="13.68" y="0">,</tspan><tspan x="14.74" y="0">000</tspan><tspan x="28.78" y="0">.</tspan><tspan x="29.85" y="0">0</tspan><tspan x="34.52" y="0">0</tspan></text>
  <text class="cls-8" transform="translate(1.54 344.37)"><tspan class="cls-4"> To</tspan><tspan x="9.14" y="0">t</tspan><tspan x="11.82" y="0">a</tspan><tspan x="15.95" y="0">l I</tspan><tspan x="20.81" y="0">WW</tspan><tspan x="35.33" y="0">M</tspan><tspan class="cls-4" x="41.92" y="0"> g</tspan><tspan x="47.93" y="0">a</tspan><tspan x="52.06" y="0">in </tspan><tspan x="59.55" y="0">(</tspan><tspan x="61.7" y="0">p</tspan><tspan x="66.13" y="0">e</tspan><tspan x="70.36" y="0">r</tspan><tspan x="73.18" y="0">ce</tspan><tspan x="81.34" y="0">n</tspan><tspan x="85.75" y="0">t</tspan><tspan x="88.43" y="0">a</tspan><tspan x="92.56" y="0">g</tspan><tspan x="97.04" y="0">e</tspan><tspan x="101.26" y="0">, </tspan><tspan x="103.87" y="0">t</tspan><tspan x="106.54" y="0">o</tspan><tspan x="110.56" y="0">t</tspan><tspan x="113.23" y="0">a</tspan><tspan x="117.36" y="0">l p</tspan><tspan x="124.87" y="0">r</tspan><tspan x="127.7" y="0">oj</tspan><tspan x="133.29" y="0">ec</tspan><tspan x="141.44" y="0">t) </tspan></text>
  <text class="cls-8" transform="translate(299.13 344.37)">25<tspan x="7.97" y="0">.</tspan><tspan x="9.04" y="0">32</tspan><tspan x="17.01" y="0">%</tspan></text>
  <g class="cls-9">
    <text class="cls-3" transform="translate(295.68 206.69)">$4<tspan x="8.95" y="0">,</tspan><tspan x="10.02" y="0">000</tspan><tspan x="24.05" y="0">.</tspan><tspan x="25.12" y="0">0</tspan><tspan x="29.8" y="0">0</tspan></text>
  </g>
  <g class="cls-10">
    <text class="cls-3" transform="translate(406.49 206.69)">$27<tspan x="12.45" y="0">,</tspan><tspan x="13.52" y="0">000</tspan><tspan x="27.55" y="0">.</tspan><tspan x="28.62" y="0">0</tspan><tspan x="33.3" y="0">0</tspan></text>
  </g>
  <rect class="cls-11" x="484" width="0.57" height="36.74"/>
  <rect class="cls-11" x="157.31" y="37.89" width="0.57" height="8.61"/>
  <rect class="cls-11" x="257.79" y="37.89" width="0.57" height="8.61"/>
  <rect x="1.15" y="46.51" width="483.43" height="1.15"/>
  <rect class="cls-11" x="157.31" y="47.65" width="0.57" height="24.69"/>
  <rect class="cls-11" x="257.79" y="47.65" width="0.57" height="24.69"/>
  <rect class="cls-11" x="364" y="47.65" width="0.57" height="24.69"/>
  <rect class="cls-11" x="157.31" y="73.49" width="0.57" height="28.71"/>
  <rect class="cls-11" x="257.79" y="73.49" width="0.57" height="28.71"/>
  <rect class="cls-11" x="364" y="73.49" width="0.57" height="28.71"/>
  <rect class="cls-11" x="157.31" y="103.35" width="0.57" height="30.43"/>
  <rect class="cls-11" x="257.79" y="103.35" width="0.57" height="30.43"/>
  <rect class="cls-11" x="364" y="103.35" width="0.57" height="30.43"/>
  <polyline points="484.57 133.78 484.57 134.92 1.15 134.92 1.15 133.78"/>
  <rect y="36.74" width="1.15" height="118.85"/>
  <rect class="cls-11" x="157.31" y="134.92" width="0.57" height="19.52"/>
  <rect class="cls-11" x="257.79" y="134.92" width="0.57" height="19.52"/>
  <rect class="cls-11" x="364" y="134.92" width="0.57" height="19.52"/>
  <rect x="1.15" y="154.44" width="483.43" height="1.15"/>
  <rect class="cls-11" x="0.57" y="155.59" width="0.57" height="8.61"/>
  <rect class="cls-11" x="157.31" y="155.59" width="0.57" height="8.61"/>
  <rect class="cls-11" x="257.79" y="155.59" width="0.57" height="8.61"/>
  <rect class="cls-11" x="364" y="155.59" width="0.57" height="8.61"/>
  <rect class="cls-11" x="484" y="155.59" width="0.57" height="8.61"/>
  <rect class="cls-11" x="157.31" y="165.35" width="0.57" height="20.09"/>
  <rect class="cls-11" x="257.79" y="165.35" width="0.57" height="20.09"/>
  <rect class="cls-11" x="1.15" y="200.95" width="257.21" height="0.57"/>
  <rect class="cls-11" x="157.31" y="186.6" width="0.57" height="35.6"/>
  <rect class="cls-11" x="257.79" y="186.6" width="0.57" height="35.6"/>
  <rect class="cls-11" x="364" y="186.6" width="0.57" height="35.6"/>
  <rect x="483.43" y="165.35" width="1.15" height="57.99"/>
  <polygon class="cls-11" points="0.57 155.59 1.15 223.34 1.15 308.89 0.57 308.89 0.57 155.59"/>
  <rect class="cls-11" x="157.31" y="223.34" width="0.57" height="85.55"/>
  <rect class="cls-11" x="257.79" y="223.34" width="0.57" height="85.55"/>
  <rect class="cls-11" x="364" y="223.34" width="0.57" height="85.55"/>
  <rect class="cls-11" x="0.57" y="353.67" width="0.57" height="0.57"/>
  <rect class="cls-11" x="157.31" y="353.67" width="0.57" height="0.57"/>
  <rect class="cls-11" x="257.79" y="353.67" width="0.57" height="0.57"/>
  <rect class="cls-11" x="364" y="353.67" width="0.57" height="0.57"/>
  <rect class="cls-11" x="484" y="223.34" width="0.57" height="130.9"/>
  <rect class="cls-11" x="484.57" y="37.32" width="0.57" height="0.57"/>
  <rect class="cls-11" x="484.57" y="47.08" width="0.57" height="0.57"/>
  <rect class="cls-11" x="484.57" y="72.92" width="0.57" height="0.57"/>
  <g class="cls-12">
    <rect class="cls-11" x="484.57" y="102.77" width="0.57" height="0.57"/>
  </g>
  <rect class="cls-11" x="484.57" y="134.35" width="0.57" height="0.57"/>
  <rect class="cls-11" x="484.57" y="155.02" width="0.57" height="0.57"/>
  <rect class="cls-11" x="484.57" y="164.78" width="0.57" height="0.57"/>
  <rect class="cls-11" x="484.57" y="186.02" width="0.57" height="0.57"/>
  <rect class="cls-11" x="484.57" y="200.95" width="0.57" height="0.57"/>
  <rect class="cls-11" x="484.57" y="222.77" width="0.57" height="0.57"/>
  <rect class="cls-11" x="0.57" y="244.58" width="484.57" height="0.57"/>
  <rect class="cls-11" x="0.57" y="267.55" width="484.57" height="0.57"/>
  <rect class="cls-11" x="0.57" y="285.92" width="484.57" height="0.57"/>
  <rect class="cls-11" x="364.58" y="308.89" width="120.57" height="0.57"/>
  <rect class="cls-11" x="364.58" y="334.72" width="120.57" height="0.57"/>
  <line class="cls-13" x1="484.07" y1="186.09" x2="0.65" y2="186.09"/>
</svg>
