<?xml version="1.0" encoding="UTF-8"?>
<svg xmlns="http://www.w3.org/2000/svg" id="Layer_1" data-name="Layer 1" viewBox="0 0 512 512" width="512" height="512" fill="#fff"><path d="M114.263,110.9c-.3,2.089-.541,4.223-.709,6.343a6,6,0,0,0,5.509,6.453c.161.013.321.019.479.019a6,6,0,0,0,5.975-5.528c.147-1.861.356-3.733.622-5.564a6,6,0,0,0-11.876-1.723Z"/><path d="M122.792,98.99a6,6,0,0,0,7.708-3.548A85.291,85.291,0,0,1,210.36,39.9a85.607,85.607,0,0,1,19.308,2.2,6,6,0,0,0,2.711-11.689A97.7,97.7,0,0,0,210.323,27.9a97.3,97.3,0,0,0-91.079,63.378A6,6,0,0,0,122.792,98.99Z"/><path d="M125.663,294H163v15.7A28.288,28.288,0,0,1,142.807,336.7,40.358,40.358,0,0,0,114,375.2v16.96a24.733,24.733,0,0,0,5.918,48.739A24.8,24.8,0,0,0,144.7,416.163a24.475,24.475,0,0,0-18.7-24V375.2a28.29,28.29,0,0,1,20.193-26.995A40.356,40.356,0,0,0,175,309.7V294h50.837l.18,46.491a23.7,23.7,0,0,1-12.36,21.007A35.683,35.683,0,0,0,195,393.063v65.114a24.72,24.72,0,1,0,30.206,24.083A25.3,25.3,0,0,0,207,458.354V393.063a23.69,23.69,0,0,1,12.355-21.007,35.769,35.769,0,0,0,18.738-31.59L237.865,294H278v6.251a34.205,34.205,0,0,0,21.192,31.486A22.237,22.237,0,0,1,313,352.146v19.579a24.672,24.672,0,1,0,12,0V352.146a34.2,34.2,0,0,0-21.193-31.486A22.237,22.237,0,0,1,290,300.251V294h63v40.857a27.135,27.135,0,0,0,21.226,26.432A15.064,15.064,0,0,1,386,375.994v39.413a24.475,24.475,0,0,0-18.7,24,24.734,24.734,0,1,0,30.7-24V375.994a27.135,27.135,0,0,0-21.226-26.432A15.065,15.065,0,0,1,365,334.857V294h21.3a87.471,87.471,0,0,0,72.908-135.752,86.842,86.842,0,0,0-51.011-36.4,87.437,87.437,0,0,0-108.3-76.752A119.686,119.686,0,0,0,210.361,5h-.047A120.15,120.15,0,0,0,90.346,125.058q0,.715.01,1.448a86.656,86.656,0,0,0-36.722,30.279q-.664.966-1.3,1.927A6,6,0,0,0,57.355,168h.072a5.983,5.983,0,0,0,4.986-2.674,77.276,77.276,0,0,1,36.358-29.493,5.835,5.835,0,0,0,3.7-5.731c-.083-1.853-.124-3.487-.124-5.092A108.1,108.1,0,0,1,210.319,17h.042a107.744,107.744,0,0,1,82.866,38.731,6,6,0,0,0,6.32,1.9,75.435,75.435,0,0,1,96.963,69.3,6.028,6.028,0,0,0,4.81,5.644A75.472,75.472,0,0,1,386.3,282H125.671c-41.621,0-75.457-34.1-75.426-75.721,0-.708.012-1.405.034-2.1a6,6,0,1,0-12-.335c-.025.805-.038,1.609-.039,2.426C38.209,254.509,77.424,294,125.663,294Zm6.995,122.163a12.74,12.74,0,1,1-12.74-12.74A12.753,12.753,0,0,1,132.658,416.163Zm80.375,66.1a12.74,12.74,0,1,1-12.74-12.739A12.754,12.754,0,0,1,213.033,482.26Zm105.789-99.274a12.74,12.74,0,1,1-12.74,12.74A12.754,12.754,0,0,1,318.822,382.986Zm73.26,43.681a12.74,12.74,0,1,1-12.74,12.74A12.754,12.754,0,0,1,392.082,426.667Z"/></svg>
