<svg height="512pt" viewBox="0 0 512 512.464" width="512pt" xmlns="http://www.w3.org/2000/svg" fill="#fff"><path d="m49.574219 92.441406 13.3125-8.875-13.039063-19.566406 13.039063-19.558594-13.3125-8.882812-16 24c-1.789063 2.6875-1.789063 6.183594 0 8.875zm0 0"/><path d="m126.886719 92.441406 16-24c1.792969-2.6875 1.792969-6.183594 0-8.875l-16-24-13.3125 8.875 13.042969 19.558594-13.042969 19.558594zm0 0"/><path d="m72.640625 85.46875 16.007813-48 15.179687 5.0625-16.011719 48zm0 0"/><path d="m136.230469 240c2.121093 0 4.160156-.839844 5.65625-2.34375l32-32c1.503906-1.496094 2.34375-3.527344 2.34375-5.65625v-192c0-4.425781-3.582031-8-8-8h-160c-4.414063 0-8 3.574219-8 8v224c0 4.425781 3.585937 8 8 8zm0-19.3125v-20.6875h20.691406zm-120-204.6875h144v168h-32c-4.414063 0-8 3.574219-8 8v32h-104zm0 0"/><path d="m32.230469 112h80v16h-80zm0 0"/><path d="m128.230469 112h16v16h-16zm0 0"/><path d="m32.230469 144h80v16h-80zm0 0"/><path d="m128.230469 144h16v16h-16zm0 0"/><path d="m32.230469 176h40v16h-40zm0 0"/><path d="m88.230469 176h16v16h-16zm0 0"/><path d="m360.28125 352.28125-50.410156-22.082031-17.765625-23.695313c11.964843-6.917968 20.125-19.710937 20.125-34.503906v-72c0-22.054688-17.941407-40-40-40h-32c-22.054688 0-40 17.945312-40 40v72c0 14.792969 8.160156 27.585938 20.128906 34.503906l-17.671875 23.566406-49.335938 19.769532c-15.261718 6.121094-25.121093 20.6875-25.121093 37.128906v117.03125c0 4.414062 3.578125 7.992188 7.984375 8l240 .464844h.015625c2.121093 0 4.152343-.839844 5.65625-2.335938 1.503906-1.503906 2.34375-3.542968 2.34375-5.664062v-115.542969c0-15.890625-9.398438-30.273437-23.949219-36.640625zm-144.050781-152.28125c0-13.230469 10.769531-24 24-24h32c13.234375 0 24 10.769531 24 24v24h-24c-13.230469 0-24-10.769531-24-24v-8h-16v8c0 22.054688 17.945312 40 40 40h24v32c0 13.230469-10.765625 24-24 24h-32c-13.230469 0-24-10.769531-24-24zm20 112h40l16.53125 22.03125-36.53125 24.351562-36.527344-24.351562zm132 184.449219-32-.066407v-64.382812h-16v64.351562l-128-.246093v-64.105469h-16v64.078125l-32-.0625v-109.046875c0-9.855469 5.914062-18.609375 15.074219-22.28125l48-19.230469 44.496093 29.664063c2.6875 1.800781 6.183594 1.800781 8.871094 0l44.359375-29.570313 48.832031 21.394531c8.730469 3.816407 14.367188 12.4375 14.367188 21.976563zm0 0"/><path d="m248.230469 424h16v48h-16zm0 0"/><path d="m248.230469 392h16v16h-16zm0 0"/><path d="m368.230469 160h32v16h-32zm0 0"/><path d="m504.230469 0h-160c-4.414063 0-8 3.574219-8 8v224c0 4.425781 3.585937 8 8 8h160c4.417969 0 8-3.574219 8-8v-224c0-4.425781-3.582031-8-8-8zm-152 16h144v16h-144zm0 208v-176h144v176zm0 0"/><path d="m472.230469 64h-96c-4.414063 0-8 3.574219-8 8v64c0 4.425781 3.585937 8 8 8h96c4.417969 0 8-3.574219 8-8v-64c0-4.425781-3.582031-8-8-8zm-8 64h-80v-48h80zm0 0"/><path d="m400.230469 96h48v16h-48zm0 0"/><path d="m416.230469 160h64v16h-64zm0 0"/><path d="m368.230469 192h80v16h-80zm0 0"/><path d="m464.230469 192h16v16h-16zm0 0"/><path d="m440.230469 336h-16v16h24c4.417969 0 8-3.574219 8-8v-24h-16zm0 0"/><path d="m392.230469 336h16v16h-16zm0 0"/><path d="m440.230469 288h16v16h-16zm0 0"/><path d="m440.230469 256h16v16h-16zm0 0"/><path d="m80.230469 320h-16v24c0 4.425781 3.585937 8 8 8h24v-16h-16zm0 0"/><path d="m112.230469 336h16v16h-16zm0 0"/><path d="m64.230469 288h16v16h-16zm0 0"/><path d="m64.230469 256h16v16h-16zm0 0"/><path d="m200.230469 64h64v-16h-49.046875l7.703125-11.558594-13.3125-8.875-16 24c-1.636719 2.457032-1.789063 5.609375-.398438 8.210938 1.390625 2.597656 4.105469 4.222656 7.054688 4.222656zm0 0"/><path d="m280.230469 48h16v16h-16zm0 0"/><path d="m248.230469 112h49.050781l-7.707031 11.558594 13.3125 8.875 16-24c1.640625-2.457032 1.792969-5.609375.402343-8.210938-1.394531-2.597656-4.105468-4.222656-7.058593-4.222656h-64zm0 0"/><path d="m216.230469 96h16v16h-16zm0 0"/></svg>